G04 #@! TF.FileFunction,Other,ECO1*
%FSLAX46Y46*%
G04 Gerber Fmt 4.6, Leading zero omitted, Abs format (unit mm)*
G04 Created by KiCad (PCBNEW 4.0.1-stable) date 2018年02月17日 土曜日 19:18:34*
%MOMM*%
G01*
G04 APERTURE LIST*
%ADD10C,0.020000*%
%ADD11C,0.010000*%
G04 APERTURE END LIST*
D10*
D11*
G36*
X137063480Y-100712693D02*
X137063480Y-113765471D01*
X133394591Y-113765471D01*
X133394591Y-113694915D01*
X136992924Y-113694915D01*
X136992924Y-100783249D01*
X136375563Y-100784086D01*
X135774786Y-100815152D01*
X135289954Y-100905669D01*
X134925250Y-101054290D01*
X134684855Y-101259668D01*
X134630043Y-101346281D01*
X134538453Y-101660886D01*
X134564897Y-101982507D01*
X134698799Y-102272023D01*
X134929585Y-102490317D01*
X134941200Y-102497321D01*
X135199578Y-102587397D01*
X135518295Y-102613372D01*
X135831563Y-102574424D01*
X136007456Y-102510666D01*
X136239974Y-102320480D01*
X136375444Y-102063282D01*
X136416892Y-101771543D01*
X136367345Y-101477734D01*
X136229830Y-101214326D01*
X136007375Y-101013790D01*
X135861592Y-100945981D01*
X135721223Y-100891235D01*
X135709521Y-100864392D01*
X135776877Y-100857787D01*
X135922263Y-100901375D01*
X136106351Y-101016257D01*
X136189523Y-101085533D01*
X136399079Y-101362383D01*
X136490393Y-101677357D01*
X136466413Y-101998466D01*
X136330084Y-102293720D01*
X136084354Y-102531129D01*
X136054637Y-102549994D01*
X135756360Y-102661039D01*
X135407377Y-102686399D01*
X135068914Y-102626321D01*
X134889650Y-102545329D01*
X134667342Y-102336798D01*
X134511696Y-102048038D01*
X134452924Y-101735144D01*
X134452924Y-101734511D01*
X134517909Y-101431028D01*
X134692171Y-101152674D01*
X134944673Y-100939538D01*
X135133259Y-100855794D01*
X135164727Y-100829689D01*
X135061416Y-100810117D01*
X134821368Y-100796910D01*
X134442627Y-100789899D01*
X134364730Y-100789313D01*
X133394591Y-100783249D01*
X133394591Y-113694915D01*
X133394591Y-113765471D01*
X133324035Y-113765471D01*
X133324035Y-100712693D01*
X137063480Y-100712693D01*
X137063480Y-100712693D01*
G37*
X137063480Y-100712693D02*
X137063480Y-113765471D01*
X133394591Y-113765471D01*
X133394591Y-113694915D01*
X136992924Y-113694915D01*
X136992924Y-100783249D01*
X136375563Y-100784086D01*
X135774786Y-100815152D01*
X135289954Y-100905669D01*
X134925250Y-101054290D01*
X134684855Y-101259668D01*
X134630043Y-101346281D01*
X134538453Y-101660886D01*
X134564897Y-101982507D01*
X134698799Y-102272023D01*
X134929585Y-102490317D01*
X134941200Y-102497321D01*
X135199578Y-102587397D01*
X135518295Y-102613372D01*
X135831563Y-102574424D01*
X136007456Y-102510666D01*
X136239974Y-102320480D01*
X136375444Y-102063282D01*
X136416892Y-101771543D01*
X136367345Y-101477734D01*
X136229830Y-101214326D01*
X136007375Y-101013790D01*
X135861592Y-100945981D01*
X135721223Y-100891235D01*
X135709521Y-100864392D01*
X135776877Y-100857787D01*
X135922263Y-100901375D01*
X136106351Y-101016257D01*
X136189523Y-101085533D01*
X136399079Y-101362383D01*
X136490393Y-101677357D01*
X136466413Y-101998466D01*
X136330084Y-102293720D01*
X136084354Y-102531129D01*
X136054637Y-102549994D01*
X135756360Y-102661039D01*
X135407377Y-102686399D01*
X135068914Y-102626321D01*
X134889650Y-102545329D01*
X134667342Y-102336798D01*
X134511696Y-102048038D01*
X134452924Y-101735144D01*
X134452924Y-101734511D01*
X134517909Y-101431028D01*
X134692171Y-101152674D01*
X134944673Y-100939538D01*
X135133259Y-100855794D01*
X135164727Y-100829689D01*
X135061416Y-100810117D01*
X134821368Y-100796910D01*
X134442627Y-100789899D01*
X134364730Y-100789313D01*
X133394591Y-100783249D01*
X133394591Y-113694915D01*
X133394591Y-113765471D01*
X133324035Y-113765471D01*
X133324035Y-100712693D01*
X137063480Y-100712693D01*
G36*
X134626926Y-112072138D02*
X134742382Y-112087333D01*
X134793467Y-112159504D01*
X134805644Y-112328527D01*
X134805702Y-112352121D01*
X134805702Y-112632104D01*
X135634730Y-112651982D01*
X135988606Y-112662101D01*
X136225595Y-112675413D01*
X136369913Y-112696589D01*
X136445775Y-112730300D01*
X136477398Y-112781217D01*
X136484372Y-112815874D01*
X136479652Y-112956072D01*
X136454974Y-113009902D01*
X136368255Y-113029853D01*
X136170881Y-113046024D01*
X135893293Y-113056622D01*
X135605331Y-113059915D01*
X134805702Y-113059915D01*
X134805702Y-113347045D01*
X134797109Y-113529221D01*
X134757072Y-113606292D01*
X134664203Y-113613907D01*
X134646952Y-113611628D01*
X134629313Y-113607258D01*
X134629313Y-113553804D01*
X134702902Y-113507202D01*
X134733225Y-113352719D01*
X134735146Y-113271582D01*
X134735146Y-112989360D01*
X135534776Y-112989360D01*
X135857750Y-112985311D01*
X136127248Y-112974323D01*
X136312901Y-112958133D01*
X136382912Y-112940853D01*
X136426077Y-112862384D01*
X136369587Y-112803994D01*
X136202805Y-112762866D01*
X135915094Y-112736185D01*
X135558417Y-112722537D01*
X134735146Y-112702659D01*
X134735146Y-112422676D01*
X134717388Y-112227283D01*
X134658637Y-112147407D01*
X134629313Y-112142693D01*
X134579961Y-112166008D01*
X134548275Y-112251427D01*
X134530776Y-112422160D01*
X134523980Y-112701416D01*
X134523480Y-112848249D01*
X134526977Y-113177264D01*
X134539790Y-113388499D01*
X134565400Y-113505162D01*
X134607288Y-113550465D01*
X134629313Y-113553804D01*
X134629313Y-113607258D01*
X134576674Y-113594214D01*
X134529945Y-113548796D01*
X134500913Y-113449823D01*
X134483731Y-113271740D01*
X134472550Y-112988996D01*
X134468176Y-112830610D01*
X134448150Y-112072138D01*
X134626926Y-112072138D01*
X134626926Y-112072138D01*
G37*
X134626926Y-112072138D02*
X134742382Y-112087333D01*
X134793467Y-112159504D01*
X134805644Y-112328527D01*
X134805702Y-112352121D01*
X134805702Y-112632104D01*
X135634730Y-112651982D01*
X135988606Y-112662101D01*
X136225595Y-112675413D01*
X136369913Y-112696589D01*
X136445775Y-112730300D01*
X136477398Y-112781217D01*
X136484372Y-112815874D01*
X136479652Y-112956072D01*
X136454974Y-113009902D01*
X136368255Y-113029853D01*
X136170881Y-113046024D01*
X135893293Y-113056622D01*
X135605331Y-113059915D01*
X134805702Y-113059915D01*
X134805702Y-113347045D01*
X134797109Y-113529221D01*
X134757072Y-113606292D01*
X134664203Y-113613907D01*
X134646952Y-113611628D01*
X134629313Y-113607258D01*
X134629313Y-113553804D01*
X134702902Y-113507202D01*
X134733225Y-113352719D01*
X134735146Y-113271582D01*
X134735146Y-112989360D01*
X135534776Y-112989360D01*
X135857750Y-112985311D01*
X136127248Y-112974323D01*
X136312901Y-112958133D01*
X136382912Y-112940853D01*
X136426077Y-112862384D01*
X136369587Y-112803994D01*
X136202805Y-112762866D01*
X135915094Y-112736185D01*
X135558417Y-112722537D01*
X134735146Y-112702659D01*
X134735146Y-112422676D01*
X134717388Y-112227283D01*
X134658637Y-112147407D01*
X134629313Y-112142693D01*
X134579961Y-112166008D01*
X134548275Y-112251427D01*
X134530776Y-112422160D01*
X134523980Y-112701416D01*
X134523480Y-112848249D01*
X134526977Y-113177264D01*
X134539790Y-113388499D01*
X134565400Y-113505162D01*
X134607288Y-113550465D01*
X134629313Y-113553804D01*
X134629313Y-113607258D01*
X134576674Y-113594214D01*
X134529945Y-113548796D01*
X134500913Y-113449823D01*
X134483731Y-113271740D01*
X134472550Y-112988996D01*
X134468176Y-112830610D01*
X134448150Y-112072138D01*
X134626926Y-112072138D01*
G36*
X134492722Y-111640587D02*
X134523082Y-111588844D01*
X134604480Y-111557403D01*
X134762113Y-111539541D01*
X135021178Y-111528531D01*
X135224960Y-111522714D01*
X135540579Y-111507254D01*
X135807806Y-111481602D01*
X135992326Y-111449766D01*
X136053988Y-111425880D01*
X136127451Y-111287278D01*
X136141689Y-111088316D01*
X136099257Y-110895502D01*
X136029658Y-110793138D01*
X135890157Y-110738317D01*
X135624775Y-110694316D01*
X135248488Y-110663522D01*
X135200630Y-110661026D01*
X134877123Y-110642792D01*
X134669396Y-110622525D01*
X134552179Y-110593968D01*
X134500206Y-110550866D01*
X134488208Y-110486962D01*
X134488202Y-110484638D01*
X134499949Y-110417090D01*
X134553023Y-110373522D01*
X134674170Y-110347062D01*
X134890134Y-110330839D01*
X135123202Y-110321506D01*
X135442072Y-110319567D01*
X135736910Y-110333627D01*
X135957695Y-110360806D01*
X136006334Y-110372326D01*
X136253915Y-110510686D01*
X136420403Y-110735251D01*
X136498196Y-111011767D01*
X136479695Y-111305978D01*
X136357299Y-111583626D01*
X136293213Y-111665330D01*
X136087391Y-111895749D01*
X135512791Y-111895749D01*
X135512791Y-111851700D01*
X135826519Y-111822726D01*
X136056185Y-111754472D01*
X136228867Y-111641515D01*
X136259974Y-111612058D01*
X136396322Y-111384230D01*
X136436155Y-111102963D01*
X136379555Y-110817687D01*
X136258343Y-110612044D01*
X136177408Y-110525374D01*
X136092311Y-110467521D01*
X135972986Y-110431482D01*
X135789366Y-110410255D01*
X135511385Y-110396836D01*
X135305843Y-110390201D01*
X134960858Y-110382068D01*
X134733446Y-110384545D01*
X134600294Y-110400261D01*
X134538091Y-110431843D01*
X134523480Y-110478395D01*
X134545194Y-110534086D01*
X134627519Y-110568086D01*
X134796231Y-110585247D01*
X135077101Y-110590424D01*
X135118609Y-110590471D01*
X135587420Y-110611341D01*
X135922053Y-110674047D01*
X136123140Y-110778729D01*
X136161380Y-110824191D01*
X136206291Y-110982948D01*
X136208915Y-111197400D01*
X136170967Y-111389168D01*
X136147969Y-111437138D01*
X136076192Y-111489661D01*
X135923461Y-111528567D01*
X135669321Y-111557340D01*
X135320021Y-111578249D01*
X134973472Y-111597907D01*
X134746354Y-111621236D01*
X134616989Y-111652256D01*
X134563696Y-111694984D01*
X134558757Y-111719360D01*
X134590091Y-111777028D01*
X134700266Y-111814567D01*
X134913547Y-111837821D01*
X135087924Y-111846818D01*
X135512791Y-111851700D01*
X135512791Y-111895749D01*
X134488202Y-111895749D01*
X134488202Y-111719360D01*
X134492722Y-111640587D01*
X134492722Y-111640587D01*
G37*
X134492722Y-111640587D02*
X134523082Y-111588844D01*
X134604480Y-111557403D01*
X134762113Y-111539541D01*
X135021178Y-111528531D01*
X135224960Y-111522714D01*
X135540579Y-111507254D01*
X135807806Y-111481602D01*
X135992326Y-111449766D01*
X136053988Y-111425880D01*
X136127451Y-111287278D01*
X136141689Y-111088316D01*
X136099257Y-110895502D01*
X136029658Y-110793138D01*
X135890157Y-110738317D01*
X135624775Y-110694316D01*
X135248488Y-110663522D01*
X135200630Y-110661026D01*
X134877123Y-110642792D01*
X134669396Y-110622525D01*
X134552179Y-110593968D01*
X134500206Y-110550866D01*
X134488208Y-110486962D01*
X134488202Y-110484638D01*
X134499949Y-110417090D01*
X134553023Y-110373522D01*
X134674170Y-110347062D01*
X134890134Y-110330839D01*
X135123202Y-110321506D01*
X135442072Y-110319567D01*
X135736910Y-110333627D01*
X135957695Y-110360806D01*
X136006334Y-110372326D01*
X136253915Y-110510686D01*
X136420403Y-110735251D01*
X136498196Y-111011767D01*
X136479695Y-111305978D01*
X136357299Y-111583626D01*
X136293213Y-111665330D01*
X136087391Y-111895749D01*
X135512791Y-111895749D01*
X135512791Y-111851700D01*
X135826519Y-111822726D01*
X136056185Y-111754472D01*
X136228867Y-111641515D01*
X136259974Y-111612058D01*
X136396322Y-111384230D01*
X136436155Y-111102963D01*
X136379555Y-110817687D01*
X136258343Y-110612044D01*
X136177408Y-110525374D01*
X136092311Y-110467521D01*
X135972986Y-110431482D01*
X135789366Y-110410255D01*
X135511385Y-110396836D01*
X135305843Y-110390201D01*
X134960858Y-110382068D01*
X134733446Y-110384545D01*
X134600294Y-110400261D01*
X134538091Y-110431843D01*
X134523480Y-110478395D01*
X134545194Y-110534086D01*
X134627519Y-110568086D01*
X134796231Y-110585247D01*
X135077101Y-110590424D01*
X135118609Y-110590471D01*
X135587420Y-110611341D01*
X135922053Y-110674047D01*
X136123140Y-110778729D01*
X136161380Y-110824191D01*
X136206291Y-110982948D01*
X136208915Y-111197400D01*
X136170967Y-111389168D01*
X136147969Y-111437138D01*
X136076192Y-111489661D01*
X135923461Y-111528567D01*
X135669321Y-111557340D01*
X135320021Y-111578249D01*
X134973472Y-111597907D01*
X134746354Y-111621236D01*
X134616989Y-111652256D01*
X134563696Y-111694984D01*
X134558757Y-111719360D01*
X134590091Y-111777028D01*
X134700266Y-111814567D01*
X134913547Y-111837821D01*
X135087924Y-111846818D01*
X135512791Y-111851700D01*
X135512791Y-111895749D01*
X134488202Y-111895749D01*
X134488202Y-111719360D01*
X134492722Y-111640587D01*
G36*
X134477432Y-108511012D02*
X134557119Y-108489175D01*
X134701234Y-108572570D01*
X134919023Y-108764512D01*
X134979872Y-108823734D01*
X135334868Y-109173663D01*
X135847716Y-108785108D01*
X136080335Y-108618629D01*
X136274328Y-108497812D01*
X136400977Y-108439714D01*
X136429799Y-108439342D01*
X136507743Y-108551486D01*
X136453635Y-108708167D01*
X136268649Y-108907419D01*
X136043578Y-109084443D01*
X135814183Y-109256179D01*
X135685509Y-109374518D01*
X135638916Y-109461327D01*
X135655760Y-109538473D01*
X135656041Y-109539001D01*
X135751974Y-109625643D01*
X135942341Y-109673812D01*
X136093199Y-109687218D01*
X136323893Y-109712064D01*
X136445022Y-109760100D01*
X136485950Y-109832212D01*
X136459916Y-109954898D01*
X136412324Y-109993174D01*
X136308027Y-110005748D01*
X136092772Y-110013354D01*
X135796640Y-110015474D01*
X135475980Y-110011884D01*
X135475980Y-109955471D01*
X135866243Y-109953238D01*
X136135981Y-109945019D01*
X136305733Y-109928531D01*
X136396036Y-109901492D01*
X136427429Y-109861621D01*
X136428480Y-109849638D01*
X136389647Y-109782147D01*
X136255871Y-109749816D01*
X136086637Y-109743804D01*
X135826591Y-109721118D01*
X135661154Y-109645174D01*
X135621114Y-109607139D01*
X135551158Y-109512150D01*
X135544317Y-109426359D01*
X135615236Y-109328206D01*
X135778562Y-109196127D01*
X136009522Y-109035277D01*
X136216044Y-108881532D01*
X136365682Y-108744389D01*
X136428152Y-108651875D01*
X136428480Y-108647564D01*
X136411004Y-108571057D01*
X136347401Y-108557825D01*
X136220901Y-108614737D01*
X136014739Y-108748665D01*
X135790836Y-108908829D01*
X135291306Y-109273299D01*
X134972477Y-108908829D01*
X134803712Y-108726010D01*
X134666100Y-108595208D01*
X134589080Y-108544371D01*
X134588564Y-108544360D01*
X134519135Y-108587934D01*
X134554012Y-108713335D01*
X134688654Y-108912582D01*
X134918524Y-109177693D01*
X134993666Y-109256776D01*
X135463853Y-109743804D01*
X134993666Y-109743804D01*
X134732747Y-109750573D01*
X134586252Y-109774811D01*
X134527967Y-109822421D01*
X134523480Y-109849638D01*
X134543574Y-109893000D01*
X134617547Y-109922971D01*
X134765939Y-109941832D01*
X135009287Y-109951866D01*
X135368129Y-109955354D01*
X135475980Y-109955471D01*
X135475980Y-110011884D01*
X135449713Y-110011589D01*
X135401693Y-110010599D01*
X135027928Y-110001173D01*
X134772770Y-109989398D01*
X134613722Y-109971311D01*
X134528290Y-109942948D01*
X134493977Y-109900346D01*
X134488202Y-109849638D01*
X134507785Y-109767453D01*
X134587867Y-109717712D01*
X134760452Y-109686604D01*
X134896887Y-109673249D01*
X135305572Y-109637971D01*
X134879248Y-109216846D01*
X134634179Y-108953357D01*
X134489959Y-108748815D01*
X134452924Y-108634763D01*
X134477432Y-108511012D01*
X134477432Y-108511012D01*
G37*
X134477432Y-108511012D02*
X134557119Y-108489175D01*
X134701234Y-108572570D01*
X134919023Y-108764512D01*
X134979872Y-108823734D01*
X135334868Y-109173663D01*
X135847716Y-108785108D01*
X136080335Y-108618629D01*
X136274328Y-108497812D01*
X136400977Y-108439714D01*
X136429799Y-108439342D01*
X136507743Y-108551486D01*
X136453635Y-108708167D01*
X136268649Y-108907419D01*
X136043578Y-109084443D01*
X135814183Y-109256179D01*
X135685509Y-109374518D01*
X135638916Y-109461327D01*
X135655760Y-109538473D01*
X135656041Y-109539001D01*
X135751974Y-109625643D01*
X135942341Y-109673812D01*
X136093199Y-109687218D01*
X136323893Y-109712064D01*
X136445022Y-109760100D01*
X136485950Y-109832212D01*
X136459916Y-109954898D01*
X136412324Y-109993174D01*
X136308027Y-110005748D01*
X136092772Y-110013354D01*
X135796640Y-110015474D01*
X135475980Y-110011884D01*
X135475980Y-109955471D01*
X135866243Y-109953238D01*
X136135981Y-109945019D01*
X136305733Y-109928531D01*
X136396036Y-109901492D01*
X136427429Y-109861621D01*
X136428480Y-109849638D01*
X136389647Y-109782147D01*
X136255871Y-109749816D01*
X136086637Y-109743804D01*
X135826591Y-109721118D01*
X135661154Y-109645174D01*
X135621114Y-109607139D01*
X135551158Y-109512150D01*
X135544317Y-109426359D01*
X135615236Y-109328206D01*
X135778562Y-109196127D01*
X136009522Y-109035277D01*
X136216044Y-108881532D01*
X136365682Y-108744389D01*
X136428152Y-108651875D01*
X136428480Y-108647564D01*
X136411004Y-108571057D01*
X136347401Y-108557825D01*
X136220901Y-108614737D01*
X136014739Y-108748665D01*
X135790836Y-108908829D01*
X135291306Y-109273299D01*
X134972477Y-108908829D01*
X134803712Y-108726010D01*
X134666100Y-108595208D01*
X134589080Y-108544371D01*
X134588564Y-108544360D01*
X134519135Y-108587934D01*
X134554012Y-108713335D01*
X134688654Y-108912582D01*
X134918524Y-109177693D01*
X134993666Y-109256776D01*
X135463853Y-109743804D01*
X134993666Y-109743804D01*
X134732747Y-109750573D01*
X134586252Y-109774811D01*
X134527967Y-109822421D01*
X134523480Y-109849638D01*
X134543574Y-109893000D01*
X134617547Y-109922971D01*
X134765939Y-109941832D01*
X135009287Y-109951866D01*
X135368129Y-109955354D01*
X135475980Y-109955471D01*
X135475980Y-110011884D01*
X135449713Y-110011589D01*
X135401693Y-110010599D01*
X135027928Y-110001173D01*
X134772770Y-109989398D01*
X134613722Y-109971311D01*
X134528290Y-109942948D01*
X134493977Y-109900346D01*
X134488202Y-109849638D01*
X134507785Y-109767453D01*
X134587867Y-109717712D01*
X134760452Y-109686604D01*
X134896887Y-109673249D01*
X135305572Y-109637971D01*
X134879248Y-109216846D01*
X134634179Y-108953357D01*
X134489959Y-108748815D01*
X134452924Y-108634763D01*
X134477432Y-108511012D01*
G36*
X134498809Y-106821702D02*
X134547607Y-106779112D01*
X134660059Y-106752695D01*
X134861628Y-106736616D01*
X135177779Y-106725036D01*
X135193757Y-106724566D01*
X135589829Y-106717198D01*
X135871724Y-106726469D01*
X136066017Y-106758921D01*
X136199281Y-106821097D01*
X136298089Y-106919541D01*
X136359849Y-107011670D01*
X136485066Y-107328015D01*
X136493629Y-107648101D01*
X136387948Y-107935546D01*
X136290456Y-108058238D01*
X136081877Y-108266817D01*
X135285039Y-108246838D01*
X135268951Y-108246357D01*
X135268951Y-108191582D01*
X135593007Y-108184679D01*
X135875275Y-108166054D01*
X136078947Y-108138828D01*
X136154876Y-108116414D01*
X136308594Y-107961397D01*
X136401726Y-107720282D01*
X136425521Y-107438217D01*
X136371226Y-107160350D01*
X136350144Y-107109071D01*
X136256900Y-106970220D01*
X136110223Y-106874645D01*
X135887284Y-106815673D01*
X135565252Y-106786635D01*
X135225715Y-106780471D01*
X134897585Y-106783994D01*
X134687192Y-106796899D01*
X134571285Y-106822689D01*
X134526614Y-106864871D01*
X134523480Y-106886304D01*
X134547085Y-106936135D01*
X134633506Y-106967929D01*
X134806148Y-106985275D01*
X135088419Y-106991766D01*
X135213336Y-106992138D01*
X135616094Y-107002465D01*
X135898243Y-107039565D01*
X136079186Y-107112615D01*
X136178325Y-107230795D01*
X136215060Y-107403281D01*
X136216813Y-107466833D01*
X136200458Y-107674146D01*
X136137460Y-107817795D01*
X136006918Y-107908911D01*
X135787933Y-107958625D01*
X135459605Y-107978067D01*
X135253378Y-107979915D01*
X134917930Y-107983235D01*
X134700575Y-107995407D01*
X134578399Y-108019755D01*
X134528493Y-108059601D01*
X134523480Y-108085749D01*
X134546117Y-108133949D01*
X134629179Y-108165356D01*
X134795390Y-108183196D01*
X135067474Y-108190696D01*
X135268951Y-108191582D01*
X135268951Y-108246357D01*
X134939835Y-108236501D01*
X134711702Y-108222897D01*
X134576611Y-108201169D01*
X134510531Y-108166458D01*
X134489431Y-108113907D01*
X134488202Y-108085749D01*
X134498391Y-108022316D01*
X134545591Y-107980113D01*
X134654749Y-107953676D01*
X134850812Y-107937539D01*
X135158728Y-107926240D01*
X135224960Y-107924381D01*
X135540579Y-107908920D01*
X135807806Y-107883268D01*
X135992326Y-107851433D01*
X136053988Y-107827547D01*
X136117061Y-107705755D01*
X136143089Y-107516354D01*
X136131701Y-107320460D01*
X136082528Y-107179191D01*
X136058063Y-107155052D01*
X135954034Y-107128126D01*
X135742899Y-107100562D01*
X135458593Y-107076141D01*
X135229035Y-107062693D01*
X134898040Y-107044877D01*
X134683285Y-107025335D01*
X134559960Y-106998162D01*
X134503256Y-106957449D01*
X134488363Y-106897291D01*
X134488202Y-106886304D01*
X134498809Y-106821702D01*
X134498809Y-106821702D01*
G37*
X134498809Y-106821702D02*
X134547607Y-106779112D01*
X134660059Y-106752695D01*
X134861628Y-106736616D01*
X135177779Y-106725036D01*
X135193757Y-106724566D01*
X135589829Y-106717198D01*
X135871724Y-106726469D01*
X136066017Y-106758921D01*
X136199281Y-106821097D01*
X136298089Y-106919541D01*
X136359849Y-107011670D01*
X136485066Y-107328015D01*
X136493629Y-107648101D01*
X136387948Y-107935546D01*
X136290456Y-108058238D01*
X136081877Y-108266817D01*
X135285039Y-108246838D01*
X135268951Y-108246357D01*
X135268951Y-108191582D01*
X135593007Y-108184679D01*
X135875275Y-108166054D01*
X136078947Y-108138828D01*
X136154876Y-108116414D01*
X136308594Y-107961397D01*
X136401726Y-107720282D01*
X136425521Y-107438217D01*
X136371226Y-107160350D01*
X136350144Y-107109071D01*
X136256900Y-106970220D01*
X136110223Y-106874645D01*
X135887284Y-106815673D01*
X135565252Y-106786635D01*
X135225715Y-106780471D01*
X134897585Y-106783994D01*
X134687192Y-106796899D01*
X134571285Y-106822689D01*
X134526614Y-106864871D01*
X134523480Y-106886304D01*
X134547085Y-106936135D01*
X134633506Y-106967929D01*
X134806148Y-106985275D01*
X135088419Y-106991766D01*
X135213336Y-106992138D01*
X135616094Y-107002465D01*
X135898243Y-107039565D01*
X136079186Y-107112615D01*
X136178325Y-107230795D01*
X136215060Y-107403281D01*
X136216813Y-107466833D01*
X136200458Y-107674146D01*
X136137460Y-107817795D01*
X136006918Y-107908911D01*
X135787933Y-107958625D01*
X135459605Y-107978067D01*
X135253378Y-107979915D01*
X134917930Y-107983235D01*
X134700575Y-107995407D01*
X134578399Y-108019755D01*
X134528493Y-108059601D01*
X134523480Y-108085749D01*
X134546117Y-108133949D01*
X134629179Y-108165356D01*
X134795390Y-108183196D01*
X135067474Y-108190696D01*
X135268951Y-108191582D01*
X135268951Y-108246357D01*
X134939835Y-108236501D01*
X134711702Y-108222897D01*
X134576611Y-108201169D01*
X134510531Y-108166458D01*
X134489431Y-108113907D01*
X134488202Y-108085749D01*
X134498391Y-108022316D01*
X134545591Y-107980113D01*
X134654749Y-107953676D01*
X134850812Y-107937539D01*
X135158728Y-107926240D01*
X135224960Y-107924381D01*
X135540579Y-107908920D01*
X135807806Y-107883268D01*
X135992326Y-107851433D01*
X136053988Y-107827547D01*
X136117061Y-107705755D01*
X136143089Y-107516354D01*
X136131701Y-107320460D01*
X136082528Y-107179191D01*
X136058063Y-107155052D01*
X135954034Y-107128126D01*
X135742899Y-107100562D01*
X135458593Y-107076141D01*
X135229035Y-107062693D01*
X134898040Y-107044877D01*
X134683285Y-107025335D01*
X134559960Y-106998162D01*
X134503256Y-106957449D01*
X134488363Y-106897291D01*
X134488202Y-106886304D01*
X134498809Y-106821702D01*
G36*
X134496590Y-105847344D02*
X134522820Y-105460661D01*
X134596177Y-105184299D01*
X134729474Y-104991702D01*
X134935520Y-104856317D01*
X134985312Y-104834300D01*
X135332202Y-104747077D01*
X135685499Y-104756510D01*
X136006940Y-104854437D01*
X136258261Y-105032695D01*
X136328024Y-105120721D01*
X136399340Y-105288968D01*
X136452876Y-105525706D01*
X136485934Y-105792042D01*
X136495816Y-106049085D01*
X136479824Y-106257942D01*
X136435260Y-106379721D01*
X136416304Y-106393313D01*
X136310426Y-106406468D01*
X136093755Y-106414551D01*
X135796534Y-106416996D01*
X135738369Y-106416368D01*
X135738369Y-106346838D01*
X136027691Y-106345502D01*
X136237837Y-106338364D01*
X136336178Y-106326430D01*
X136391698Y-106237564D01*
X136420065Y-106051533D01*
X136421274Y-105809650D01*
X136395321Y-105553226D01*
X136342199Y-105323572D01*
X136336303Y-105306246D01*
X136180646Y-105059113D01*
X135932940Y-104894939D01*
X135620159Y-104820877D01*
X135269273Y-104844083D01*
X134966942Y-104943012D01*
X134785116Y-105045459D01*
X134666606Y-105175420D01*
X134598444Y-105363450D01*
X134567662Y-105640108D01*
X134561437Y-105898526D01*
X134558757Y-106321860D01*
X135401316Y-106341855D01*
X135738369Y-106346838D01*
X135738369Y-106416368D01*
X135449008Y-106413240D01*
X135401693Y-106412266D01*
X134488202Y-106392415D01*
X134496590Y-105847344D01*
X134496590Y-105847344D01*
G37*
X134496590Y-105847344D02*
X134522820Y-105460661D01*
X134596177Y-105184299D01*
X134729474Y-104991702D01*
X134935520Y-104856317D01*
X134985312Y-104834300D01*
X135332202Y-104747077D01*
X135685499Y-104756510D01*
X136006940Y-104854437D01*
X136258261Y-105032695D01*
X136328024Y-105120721D01*
X136399340Y-105288968D01*
X136452876Y-105525706D01*
X136485934Y-105792042D01*
X136495816Y-106049085D01*
X136479824Y-106257942D01*
X136435260Y-106379721D01*
X136416304Y-106393313D01*
X136310426Y-106406468D01*
X136093755Y-106414551D01*
X135796534Y-106416996D01*
X135738369Y-106416368D01*
X135738369Y-106346838D01*
X136027691Y-106345502D01*
X136237837Y-106338364D01*
X136336178Y-106326430D01*
X136391698Y-106237564D01*
X136420065Y-106051533D01*
X136421274Y-105809650D01*
X136395321Y-105553226D01*
X136342199Y-105323572D01*
X136336303Y-105306246D01*
X136180646Y-105059113D01*
X135932940Y-104894939D01*
X135620159Y-104820877D01*
X135269273Y-104844083D01*
X134966942Y-104943012D01*
X134785116Y-105045459D01*
X134666606Y-105175420D01*
X134598444Y-105363450D01*
X134567662Y-105640108D01*
X134561437Y-105898526D01*
X134558757Y-106321860D01*
X135401316Y-106341855D01*
X135738369Y-106346838D01*
X135738369Y-106416368D01*
X135449008Y-106413240D01*
X135401693Y-106412266D01*
X134488202Y-106392415D01*
X134496590Y-105847344D01*
G36*
X134492592Y-103978366D02*
X134506996Y-103699608D01*
X134540557Y-103457041D01*
X134586028Y-103302935D01*
X134586315Y-103302396D01*
X134776892Y-103079375D01*
X135044560Y-102936613D01*
X135356641Y-102872407D01*
X135680455Y-102885053D01*
X135983324Y-102972848D01*
X136232568Y-103134089D01*
X136395509Y-103367072D01*
X136406858Y-103397288D01*
X136460323Y-103619264D01*
X136489290Y-103878323D01*
X136493749Y-104134079D01*
X136473692Y-104346147D01*
X136443338Y-104433290D01*
X136416624Y-103960504D01*
X136380282Y-103622471D01*
X136310547Y-103387249D01*
X136243173Y-103272587D01*
X136011860Y-103070725D01*
X135709539Y-102958706D01*
X135376173Y-102939209D01*
X135051722Y-103014910D01*
X134790576Y-103175265D01*
X134683830Y-103284760D01*
X134617187Y-103405456D01*
X134576885Y-103578157D01*
X134549165Y-103843671D01*
X134544384Y-103905332D01*
X134503112Y-104452138D01*
X136436773Y-104452138D01*
X136429108Y-104474143D01*
X136407109Y-104491842D01*
X136304882Y-104503656D01*
X136091481Y-104510638D01*
X135796775Y-104512331D01*
X135450633Y-104508277D01*
X135401693Y-104507266D01*
X134488202Y-104487415D01*
X134492592Y-103978366D01*
X134492592Y-103978366D01*
G37*
X134492592Y-103978366D02*
X134506996Y-103699608D01*
X134540557Y-103457041D01*
X134586028Y-103302935D01*
X134586315Y-103302396D01*
X134776892Y-103079375D01*
X135044560Y-102936613D01*
X135356641Y-102872407D01*
X135680455Y-102885053D01*
X135983324Y-102972848D01*
X136232568Y-103134089D01*
X136395509Y-103367072D01*
X136406858Y-103397288D01*
X136460323Y-103619264D01*
X136489290Y-103878323D01*
X136493749Y-104134079D01*
X136473692Y-104346147D01*
X136443338Y-104433290D01*
X136416624Y-103960504D01*
X136380282Y-103622471D01*
X136310547Y-103387249D01*
X136243173Y-103272587D01*
X136011860Y-103070725D01*
X135709539Y-102958706D01*
X135376173Y-102939209D01*
X135051722Y-103014910D01*
X134790576Y-103175265D01*
X134683830Y-103284760D01*
X134617187Y-103405456D01*
X134576885Y-103578157D01*
X134549165Y-103843671D01*
X134544384Y-103905332D01*
X134503112Y-104452138D01*
X136436773Y-104452138D01*
X136429108Y-104474143D01*
X136407109Y-104491842D01*
X136304882Y-104503656D01*
X136091481Y-104510638D01*
X135796775Y-104512331D01*
X135450633Y-104508277D01*
X135401693Y-104507266D01*
X134488202Y-104487415D01*
X134492592Y-103978366D01*
G36*
X134803052Y-101489981D02*
X134952226Y-101318687D01*
X135220353Y-101172097D01*
X135525623Y-101126106D01*
X135820838Y-101181134D01*
X136030121Y-101309046D01*
X136165077Y-101513982D01*
X136219669Y-101769141D01*
X136186988Y-102015577D01*
X136126374Y-102129918D01*
X135903963Y-102312795D01*
X135652805Y-102390129D01*
X135652805Y-102323875D01*
X135822607Y-102280373D01*
X135952230Y-102196178D01*
X136110023Y-101993246D01*
X136157569Y-101750329D01*
X136094432Y-101512335D01*
X135960353Y-101352814D01*
X135711128Y-101226877D01*
X135440966Y-101199557D01*
X135182940Y-101259192D01*
X134970125Y-101394118D01*
X134835594Y-101592670D01*
X134805702Y-101760003D01*
X134863047Y-102024329D01*
X135034557Y-102206088D01*
X135319445Y-102304554D01*
X135409909Y-102316226D01*
X135652805Y-102323875D01*
X135652805Y-102390129D01*
X135617649Y-102400955D01*
X135311179Y-102390918D01*
X135028301Y-102279200D01*
X134952226Y-102223366D01*
X134772387Y-101994828D01*
X134722662Y-101740695D01*
X134803052Y-101489981D01*
X134803052Y-101489981D01*
G37*
X134803052Y-101489981D02*
X134952226Y-101318687D01*
X135220353Y-101172097D01*
X135525623Y-101126106D01*
X135820838Y-101181134D01*
X136030121Y-101309046D01*
X136165077Y-101513982D01*
X136219669Y-101769141D01*
X136186988Y-102015577D01*
X136126374Y-102129918D01*
X135903963Y-102312795D01*
X135652805Y-102390129D01*
X135652805Y-102323875D01*
X135822607Y-102280373D01*
X135952230Y-102196178D01*
X136110023Y-101993246D01*
X136157569Y-101750329D01*
X136094432Y-101512335D01*
X135960353Y-101352814D01*
X135711128Y-101226877D01*
X135440966Y-101199557D01*
X135182940Y-101259192D01*
X134970125Y-101394118D01*
X134835594Y-101592670D01*
X134805702Y-101760003D01*
X134863047Y-102024329D01*
X135034557Y-102206088D01*
X135319445Y-102304554D01*
X135409909Y-102316226D01*
X135652805Y-102323875D01*
X135652805Y-102390129D01*
X135617649Y-102400955D01*
X135311179Y-102390918D01*
X135028301Y-102279200D01*
X134952226Y-102223366D01*
X134772387Y-101994828D01*
X134722662Y-101740695D01*
X134803052Y-101489981D01*
G36*
X134736186Y-105810332D02*
X134782667Y-105482431D01*
X134924352Y-105253011D01*
X135169101Y-105109725D01*
X135185686Y-105104105D01*
X135483026Y-105058399D01*
X135775388Y-105100607D01*
X136014823Y-105219692D01*
X136108396Y-105316527D01*
X136177731Y-105485755D01*
X136214850Y-105713177D01*
X136216813Y-105773114D01*
X136216813Y-106074915D01*
X134805702Y-106074915D01*
X134805702Y-106004360D01*
X136146257Y-106004360D01*
X136146257Y-105752777D01*
X136126351Y-105542105D01*
X136078079Y-105374112D01*
X136074502Y-105367118D01*
X135933787Y-105236990D01*
X135703801Y-105154429D01*
X135431570Y-105130465D01*
X135205812Y-105163368D01*
X134980053Y-105275455D01*
X134850629Y-105470542D01*
X134805961Y-105766976D01*
X134805702Y-105797286D01*
X134805702Y-106004360D01*
X134805702Y-106074915D01*
X134735146Y-106074915D01*
X134736186Y-105810332D01*
X134736186Y-105810332D01*
G37*
X134736186Y-105810332D02*
X134782667Y-105482431D01*
X134924352Y-105253011D01*
X135169101Y-105109725D01*
X135185686Y-105104105D01*
X135483026Y-105058399D01*
X135775388Y-105100607D01*
X136014823Y-105219692D01*
X136108396Y-105316527D01*
X136177731Y-105485755D01*
X136214850Y-105713177D01*
X136216813Y-105773114D01*
X136216813Y-106074915D01*
X134805702Y-106074915D01*
X134805702Y-106004360D01*
X136146257Y-106004360D01*
X136146257Y-105752777D01*
X136126351Y-105542105D01*
X136078079Y-105374112D01*
X136074502Y-105367118D01*
X135933787Y-105236990D01*
X135703801Y-105154429D01*
X135431570Y-105130465D01*
X135205812Y-105163368D01*
X134980053Y-105275455D01*
X134850629Y-105470542D01*
X134805961Y-105766976D01*
X134805702Y-105797286D01*
X134805702Y-106004360D01*
X134805702Y-106074915D01*
X134735146Y-106074915D01*
X134736186Y-105810332D01*
G36*
X134773925Y-103825708D02*
X134806881Y-103522258D01*
X134910506Y-103324726D01*
X135101929Y-103219046D01*
X135398276Y-103191152D01*
X135538541Y-103197772D01*
X135860827Y-103250180D01*
X136068134Y-103365066D01*
X136180151Y-103562756D01*
X136216570Y-103863575D01*
X136216813Y-103897978D01*
X136216813Y-104245407D01*
X136146257Y-104243446D01*
X136146257Y-104169915D01*
X136145294Y-103940610D01*
X136132040Y-103727870D01*
X136104036Y-103561155D01*
X135990018Y-103397751D01*
X135761223Y-103292445D01*
X135434630Y-103252817D01*
X135413039Y-103252693D01*
X135140905Y-103293806D01*
X134959626Y-103427245D01*
X134854231Y-103668165D01*
X134823459Y-103849552D01*
X134787350Y-104169915D01*
X136146257Y-104169915D01*
X136146257Y-104243446D01*
X135493618Y-104225300D01*
X134770424Y-104205193D01*
X134773925Y-103825708D01*
X134773925Y-103825708D01*
G37*
X134773925Y-103825708D02*
X134806881Y-103522258D01*
X134910506Y-103324726D01*
X135101929Y-103219046D01*
X135398276Y-103191152D01*
X135538541Y-103197772D01*
X135860827Y-103250180D01*
X136068134Y-103365066D01*
X136180151Y-103562756D01*
X136216570Y-103863575D01*
X136216813Y-103897978D01*
X136216813Y-104245407D01*
X136146257Y-104243446D01*
X136146257Y-104169915D01*
X136145294Y-103940610D01*
X136132040Y-103727870D01*
X136104036Y-103561155D01*
X135990018Y-103397751D01*
X135761223Y-103292445D01*
X135434630Y-103252817D01*
X135413039Y-103252693D01*
X135140905Y-103293806D01*
X134959626Y-103427245D01*
X134854231Y-103668165D01*
X134823459Y-103849552D01*
X134787350Y-104169915D01*
X136146257Y-104169915D01*
X136146257Y-104243446D01*
X135493618Y-104225300D01*
X134770424Y-104205193D01*
X134773925Y-103825708D01*
M02*
