G04 #@! TF.FileFunction,Copper,L1,Top,Signal*
%FSLAX46Y46*%
G04 Gerber Fmt 4.6, Leading zero omitted, Abs format (unit mm)*
G04 Created by KiCad (PCBNEW 4.0.1-stable) date 2018年02月17日 土曜日 16:31:36*
%MOMM*%
G01*
G04 APERTURE LIST*
%ADD10C,0.020000*%
%ADD11R,5.000000X5.000000*%
%ADD12R,5.000000X5.200000*%
%ADD13C,2.000000*%
%ADD14R,4.700000X4.700000*%
%ADD15R,2.000000X1.600000*%
%ADD16R,2.000000X3.200000*%
%ADD17R,1.500000X0.700000*%
%ADD18R,0.800000X1.000000*%
%ADD19R,1.700000X1.700000*%
%ADD20O,1.700000X1.700000*%
%ADD21R,0.650000X1.060000*%
%ADD22C,0.600000*%
%ADD23C,1.200000*%
%ADD24C,0.254000*%
G04 APERTURE END LIST*
D10*
D11*
X148762720Y-117642640D03*
D12*
X161762720Y-117642640D03*
X135362720Y-117642640D03*
D13*
X135976360Y-97292160D03*
X160985200Y-97231200D03*
D14*
X156281120Y-105406000D03*
X156281120Y-97286000D03*
D15*
X146708360Y-94462600D03*
X150708360Y-94462600D03*
D14*
X140827760Y-105436480D03*
X140827760Y-97316480D03*
D16*
X150338920Y-104683560D03*
X147338920Y-104683560D03*
D17*
X160921720Y-112033880D03*
X160921720Y-109033880D03*
X160921720Y-107533880D03*
D18*
X163781720Y-113433880D03*
X163781720Y-106133880D03*
X161571720Y-106133880D03*
X161571720Y-113433880D03*
D19*
X147360640Y-91348560D03*
D20*
X149900640Y-91348560D03*
D21*
X147690800Y-99766120D03*
X148640800Y-99766120D03*
X149590800Y-99766120D03*
X149590800Y-97566120D03*
X147690800Y-97566120D03*
D22*
X148640800Y-99766120D02*
X148640800Y-100896120D01*
X148640800Y-100896120D02*
X148424600Y-101112320D01*
D23*
X161246840Y-109277720D02*
X160846840Y-109277720D01*
X158484080Y-111640480D02*
X158484080Y-114782440D01*
X158484080Y-114782440D02*
X162184080Y-118482440D01*
X160846840Y-109277720D02*
X158484080Y-111640480D01*
X162184080Y-118482440D02*
X162184080Y-118582440D01*
D22*
X149600920Y-100906240D02*
X149600920Y-101821560D01*
X149600920Y-101821560D02*
X147338920Y-104083560D01*
X147338920Y-104083560D02*
X147338920Y-104683560D01*
X149590800Y-99766120D02*
X149590800Y-100896120D01*
X149590800Y-100896120D02*
X149600920Y-100906240D01*
X147374480Y-105008680D02*
X147374480Y-104408680D01*
X146706840Y-94924880D02*
X146706840Y-92002360D01*
X146706840Y-92002360D02*
X147360640Y-91348560D01*
X147690800Y-97566120D02*
X147690800Y-95908840D01*
X147690800Y-95908840D02*
X146706840Y-94924880D01*
X147690800Y-97566120D02*
X149590800Y-97566120D01*
X147690800Y-99766120D02*
X147690800Y-97566120D01*
X147690800Y-99766120D02*
X146765800Y-99766120D01*
X146765800Y-99766120D02*
X140704280Y-105827640D01*
X140704280Y-105827640D02*
X140680440Y-105827640D01*
D23*
X156301440Y-105919080D02*
X151284880Y-105919080D01*
X151284880Y-105919080D02*
X150374480Y-105008680D01*
X161217000Y-107543600D02*
X158130240Y-107543600D01*
D24*
G36*
X154548102Y-90404844D02*
X159674504Y-93830196D01*
X160854433Y-95596085D01*
X160661405Y-95595916D01*
X160060257Y-95844306D01*
X159599922Y-96303837D01*
X159350484Y-96904552D01*
X159349916Y-97554995D01*
X159598306Y-98156143D01*
X160057837Y-98616478D01*
X160658552Y-98865916D01*
X161308995Y-98866484D01*
X161910143Y-98618094D01*
X162370478Y-98158563D01*
X162445655Y-97977516D01*
X163099856Y-98956596D01*
X164304200Y-105011243D01*
X164181720Y-104986440D01*
X163381720Y-104986440D01*
X163146403Y-105030718D01*
X162930279Y-105169790D01*
X162785289Y-105381990D01*
X162734280Y-105633880D01*
X162734280Y-106633880D01*
X162778558Y-106869197D01*
X162917630Y-107085321D01*
X163129830Y-107230311D01*
X163381720Y-107281320D01*
X164181720Y-107281320D01*
X164316100Y-107256035D01*
X164316100Y-112313653D01*
X164181720Y-112286440D01*
X163381720Y-112286440D01*
X163146403Y-112330718D01*
X162930279Y-112469790D01*
X162785289Y-112681990D01*
X162734280Y-112933880D01*
X162734280Y-113933880D01*
X162778558Y-114169197D01*
X162917630Y-114385321D01*
X162932088Y-114395200D01*
X162425054Y-114395200D01*
X162568151Y-114185770D01*
X162619160Y-113933880D01*
X162619160Y-112933880D01*
X162574882Y-112698563D01*
X162435810Y-112482439D01*
X162315806Y-112400444D01*
X162319160Y-112383880D01*
X162319160Y-112308152D01*
X162464953Y-112368691D01*
X162896593Y-112369068D01*
X163295520Y-112204234D01*
X163601002Y-111899285D01*
X163766531Y-111500647D01*
X163766908Y-111069007D01*
X163602074Y-110670080D01*
X163297125Y-110364598D01*
X162898487Y-110199069D01*
X162466847Y-110198692D01*
X162067920Y-110363526D01*
X161762438Y-110668475D01*
X161609646Y-111036440D01*
X160834674Y-111036440D01*
X161386093Y-110485021D01*
X161719454Y-110418711D01*
X162120117Y-110150997D01*
X162387831Y-109750334D01*
X162463837Y-109368228D01*
X162464953Y-109368691D01*
X162896593Y-109369068D01*
X163295520Y-109204234D01*
X163601002Y-108899285D01*
X163766531Y-108500647D01*
X163766908Y-108069007D01*
X163602074Y-107670080D01*
X163297125Y-107364598D01*
X162898487Y-107199069D01*
X162466847Y-107198692D01*
X162389731Y-107230556D01*
X162370144Y-107132085D01*
X162423161Y-107097970D01*
X162568151Y-106885770D01*
X162619160Y-106633880D01*
X162619160Y-105633880D01*
X162574882Y-105398563D01*
X162435810Y-105182439D01*
X162223610Y-105037449D01*
X161971720Y-104986440D01*
X161171720Y-104986440D01*
X160936403Y-105030718D01*
X160720279Y-105169790D01*
X160575289Y-105381990D01*
X160524280Y-105633880D01*
X160524280Y-106308600D01*
X159278560Y-106308600D01*
X159278560Y-103056000D01*
X159234282Y-102820683D01*
X159095210Y-102604559D01*
X158883010Y-102459569D01*
X158631120Y-102408560D01*
X153931120Y-102408560D01*
X153695803Y-102452838D01*
X153479679Y-102591910D01*
X153334689Y-102804110D01*
X153283680Y-103056000D01*
X153283680Y-104684080D01*
X151986360Y-104684080D01*
X151986360Y-103083560D01*
X151942082Y-102848243D01*
X151803010Y-102632119D01*
X151590810Y-102487129D01*
X151338920Y-102436120D01*
X150293192Y-102436120D01*
X150464747Y-102179369D01*
X150535920Y-101821560D01*
X150535920Y-100906240D01*
X150525800Y-100855364D01*
X150525800Y-100481004D01*
X150563240Y-100296120D01*
X150563240Y-99236120D01*
X150518962Y-99000803D01*
X150379890Y-98784679D01*
X150204568Y-98664887D01*
X150367241Y-98560210D01*
X150512231Y-98348010D01*
X150563240Y-98096120D01*
X150563240Y-97571750D01*
X153296120Y-97571750D01*
X153296120Y-99762309D01*
X153392793Y-99995698D01*
X153571421Y-100174327D01*
X153804810Y-100271000D01*
X155995370Y-100271000D01*
X156154120Y-100112250D01*
X156154120Y-97413000D01*
X156408120Y-97413000D01*
X156408120Y-100112250D01*
X156566870Y-100271000D01*
X158757430Y-100271000D01*
X158990819Y-100174327D01*
X159169447Y-99995698D01*
X159266120Y-99762309D01*
X159266120Y-97571750D01*
X159107370Y-97413000D01*
X156408120Y-97413000D01*
X156154120Y-97413000D01*
X153454870Y-97413000D01*
X153296120Y-97571750D01*
X150563240Y-97571750D01*
X150563240Y-97036120D01*
X150518962Y-96800803D01*
X150379890Y-96584679D01*
X150167690Y-96439689D01*
X149915800Y-96388680D01*
X149265800Y-96388680D01*
X149030483Y-96432958D01*
X148814359Y-96572030D01*
X148773985Y-96631120D01*
X148625800Y-96631120D01*
X148625800Y-95908845D01*
X148625801Y-95908840D01*
X148554627Y-95551032D01*
X148554627Y-95551031D01*
X148355800Y-95253464D01*
X148355800Y-94748350D01*
X149073360Y-94748350D01*
X149073360Y-95388910D01*
X149170033Y-95622299D01*
X149348662Y-95800927D01*
X149582051Y-95897600D01*
X150422610Y-95897600D01*
X150581360Y-95738850D01*
X150581360Y-94589600D01*
X150835360Y-94589600D01*
X150835360Y-95738850D01*
X150994110Y-95897600D01*
X151834669Y-95897600D01*
X152068058Y-95800927D01*
X152246687Y-95622299D01*
X152343360Y-95388910D01*
X152343360Y-94809691D01*
X153296120Y-94809691D01*
X153296120Y-97000250D01*
X153454870Y-97159000D01*
X156154120Y-97159000D01*
X156154120Y-94459750D01*
X156408120Y-94459750D01*
X156408120Y-97159000D01*
X159107370Y-97159000D01*
X159266120Y-97000250D01*
X159266120Y-94809691D01*
X159169447Y-94576302D01*
X158990819Y-94397673D01*
X158757430Y-94301000D01*
X156566870Y-94301000D01*
X156408120Y-94459750D01*
X156154120Y-94459750D01*
X155995370Y-94301000D01*
X153804810Y-94301000D01*
X153571421Y-94397673D01*
X153392793Y-94576302D01*
X153296120Y-94809691D01*
X152343360Y-94809691D01*
X152343360Y-94748350D01*
X152184610Y-94589600D01*
X150835360Y-94589600D01*
X150581360Y-94589600D01*
X149232110Y-94589600D01*
X149073360Y-94748350D01*
X148355800Y-94748350D01*
X148355800Y-93662600D01*
X148332034Y-93536290D01*
X149073360Y-93536290D01*
X149073360Y-94176850D01*
X149232110Y-94335600D01*
X150581360Y-94335600D01*
X150581360Y-93186350D01*
X150835360Y-93186350D01*
X150835360Y-94335600D01*
X152184610Y-94335600D01*
X152343360Y-94176850D01*
X152343360Y-93536290D01*
X152246687Y-93302901D01*
X152068058Y-93124273D01*
X151834669Y-93027600D01*
X150994110Y-93027600D01*
X150835360Y-93186350D01*
X150581360Y-93186350D01*
X150422610Y-93027600D01*
X149582051Y-93027600D01*
X149348662Y-93124273D01*
X149170033Y-93302901D01*
X149073360Y-93536290D01*
X148332034Y-93536290D01*
X148311522Y-93427283D01*
X148172450Y-93211159D01*
X147960250Y-93066169D01*
X147708360Y-93015160D01*
X147641840Y-93015160D01*
X147641840Y-92846000D01*
X148210640Y-92846000D01*
X148445957Y-92801722D01*
X148662081Y-92662650D01*
X148807071Y-92450450D01*
X148830195Y-92336259D01*
X149019282Y-92543743D01*
X149543748Y-92790046D01*
X149773640Y-92669379D01*
X149773640Y-91475560D01*
X150027640Y-91475560D01*
X150027640Y-92669379D01*
X150257532Y-92790046D01*
X150781998Y-92543743D01*
X151172285Y-92115484D01*
X151342116Y-91705450D01*
X151220795Y-91475560D01*
X150027640Y-91475560D01*
X149773640Y-91475560D01*
X149753640Y-91475560D01*
X149753640Y-91221560D01*
X149773640Y-91221560D01*
X149773640Y-90027741D01*
X150027640Y-90027741D01*
X150027640Y-91221560D01*
X151220795Y-91221560D01*
X151342116Y-90991670D01*
X151172285Y-90581636D01*
X150781998Y-90153377D01*
X150257532Y-89907074D01*
X150027640Y-90027741D01*
X149773640Y-90027741D01*
X149543748Y-89907074D01*
X149019282Y-90153377D01*
X148831832Y-90359064D01*
X148813802Y-90263243D01*
X148674730Y-90047119D01*
X148462530Y-89902129D01*
X148210640Y-89851120D01*
X146510640Y-89851120D01*
X146275323Y-89895398D01*
X146059199Y-90034470D01*
X145914209Y-90246670D01*
X145863200Y-90498560D01*
X145863200Y-91614339D01*
X145843013Y-91644551D01*
X145771840Y-92002360D01*
X145771840Y-93015160D01*
X145708360Y-93015160D01*
X145473043Y-93059438D01*
X145256919Y-93198510D01*
X145111929Y-93410710D01*
X145060920Y-93662600D01*
X145060920Y-95262600D01*
X145105198Y-95497917D01*
X145244270Y-95714041D01*
X145456470Y-95859031D01*
X145708360Y-95910040D01*
X146369710Y-95910040D01*
X146755800Y-96296130D01*
X146755800Y-96851236D01*
X146718360Y-97036120D01*
X146718360Y-98096120D01*
X146755800Y-98295096D01*
X146755800Y-98833109D01*
X146407991Y-98902293D01*
X146104655Y-99104975D01*
X142770590Y-102439040D01*
X138477760Y-102439040D01*
X138242443Y-102483318D01*
X138026319Y-102622390D01*
X137881329Y-102834590D01*
X137830320Y-103086480D01*
X137830320Y-107786480D01*
X137874598Y-108021797D01*
X138013670Y-108237921D01*
X138225870Y-108382911D01*
X138477760Y-108433920D01*
X143177760Y-108433920D01*
X143413077Y-108389642D01*
X143629201Y-108250570D01*
X143774191Y-108038370D01*
X143825200Y-107786480D01*
X143825200Y-104029010D01*
X147023460Y-100830750D01*
X147113910Y-100892551D01*
X147365800Y-100943560D01*
X148015800Y-100943560D01*
X148155886Y-100917201D01*
X148189490Y-100931120D01*
X148355050Y-100931120D01*
X148513800Y-100772370D01*
X148513800Y-100692069D01*
X148612231Y-100548010D01*
X148639976Y-100411000D01*
X148655800Y-100495096D01*
X148655800Y-100896120D01*
X148665920Y-100946996D01*
X148665920Y-101434270D01*
X147664070Y-102436120D01*
X146338920Y-102436120D01*
X146103603Y-102480398D01*
X145887479Y-102619470D01*
X145742489Y-102831670D01*
X145691480Y-103083560D01*
X145691480Y-106283560D01*
X145735758Y-106518877D01*
X145874830Y-106735001D01*
X146087030Y-106879991D01*
X146338920Y-106931000D01*
X148338920Y-106931000D01*
X148574237Y-106886722D01*
X148790361Y-106747650D01*
X148838054Y-106677849D01*
X148874830Y-106735001D01*
X149087030Y-106879991D01*
X149338920Y-106931000D01*
X150619097Y-106931000D01*
X150812266Y-107060071D01*
X151284880Y-107154080D01*
X153283680Y-107154080D01*
X153283680Y-107756000D01*
X153327958Y-107991317D01*
X153467030Y-108207441D01*
X153679230Y-108352431D01*
X153931120Y-108403440D01*
X157247985Y-108403440D01*
X157256963Y-108416877D01*
X157657626Y-108684591D01*
X158130240Y-108778600D01*
X159524280Y-108778600D01*
X159524280Y-108853726D01*
X157610803Y-110767203D01*
X157343089Y-111167866D01*
X157249080Y-111640480D01*
X157249080Y-114782440D01*
X157343089Y-115255054D01*
X157610803Y-115655717D01*
X158615280Y-116660194D01*
X158615280Y-120242640D01*
X158659558Y-120477957D01*
X158798630Y-120694081D01*
X158980870Y-120818600D01*
X138140310Y-120818600D01*
X138314161Y-120706730D01*
X138459151Y-120494530D01*
X138510160Y-120242640D01*
X138510160Y-117928390D01*
X145627720Y-117928390D01*
X145627720Y-120268950D01*
X145724393Y-120502339D01*
X145903022Y-120680967D01*
X146136411Y-120777640D01*
X148476970Y-120777640D01*
X148635720Y-120618890D01*
X148635720Y-117769640D01*
X148889720Y-117769640D01*
X148889720Y-120618890D01*
X149048470Y-120777640D01*
X151389029Y-120777640D01*
X151622418Y-120680967D01*
X151801047Y-120502339D01*
X151897720Y-120268950D01*
X151897720Y-117928390D01*
X151738970Y-117769640D01*
X148889720Y-117769640D01*
X148635720Y-117769640D01*
X145786470Y-117769640D01*
X145627720Y-117928390D01*
X138510160Y-117928390D01*
X138510160Y-115042640D01*
X138505210Y-115016330D01*
X145627720Y-115016330D01*
X145627720Y-117356890D01*
X145786470Y-117515640D01*
X148635720Y-117515640D01*
X148635720Y-114666390D01*
X148889720Y-114666390D01*
X148889720Y-117515640D01*
X151738970Y-117515640D01*
X151897720Y-117356890D01*
X151897720Y-115016330D01*
X151801047Y-114782941D01*
X151622418Y-114604313D01*
X151389029Y-114507640D01*
X149048470Y-114507640D01*
X148889720Y-114666390D01*
X148635720Y-114666390D01*
X148476970Y-114507640D01*
X146136411Y-114507640D01*
X145903022Y-114604313D01*
X145724393Y-114782941D01*
X145627720Y-115016330D01*
X138505210Y-115016330D01*
X138465882Y-114807323D01*
X138326810Y-114591199D01*
X138114610Y-114446209D01*
X137862720Y-114395200D01*
X132862720Y-114395200D01*
X132686100Y-114428433D01*
X132686100Y-105071067D01*
X133902344Y-98956598D01*
X134515718Y-98038619D01*
X134589466Y-98217103D01*
X135048997Y-98677438D01*
X135649712Y-98926876D01*
X136300155Y-98927444D01*
X136901303Y-98679054D01*
X137361638Y-98219523D01*
X137611076Y-97618808D01*
X137611090Y-97602230D01*
X137842760Y-97602230D01*
X137842760Y-99792789D01*
X137939433Y-100026178D01*
X138118061Y-100204807D01*
X138351450Y-100301480D01*
X140542010Y-100301480D01*
X140700760Y-100142730D01*
X140700760Y-97443480D01*
X140954760Y-97443480D01*
X140954760Y-100142730D01*
X141113510Y-100301480D01*
X143304070Y-100301480D01*
X143537459Y-100204807D01*
X143716087Y-100026178D01*
X143812760Y-99792789D01*
X143812760Y-97602230D01*
X143654010Y-97443480D01*
X140954760Y-97443480D01*
X140700760Y-97443480D01*
X138001510Y-97443480D01*
X137842760Y-97602230D01*
X137611090Y-97602230D01*
X137611644Y-96968365D01*
X137363254Y-96367217D01*
X136903723Y-95906882D01*
X136303008Y-95657444D01*
X136106882Y-95657273D01*
X136652852Y-94840171D01*
X137842760Y-94840171D01*
X137842760Y-97030730D01*
X138001510Y-97189480D01*
X140700760Y-97189480D01*
X140700760Y-94490230D01*
X140954760Y-94490230D01*
X140954760Y-97189480D01*
X143654010Y-97189480D01*
X143812760Y-97030730D01*
X143812760Y-94840171D01*
X143716087Y-94606782D01*
X143537459Y-94428153D01*
X143304070Y-94331480D01*
X141113510Y-94331480D01*
X140954760Y-94490230D01*
X140700760Y-94490230D01*
X140542010Y-94331480D01*
X138351450Y-94331480D01*
X138118061Y-94428153D01*
X137939433Y-94606782D01*
X137842760Y-94840171D01*
X136652852Y-94840171D01*
X137327696Y-93830196D01*
X142454096Y-90404844D01*
X148501100Y-89202020D01*
X154548102Y-90404844D01*
X154548102Y-90404844D01*
G37*
X154548102Y-90404844D02*
X159674504Y-93830196D01*
X160854433Y-95596085D01*
X160661405Y-95595916D01*
X160060257Y-95844306D01*
X159599922Y-96303837D01*
X159350484Y-96904552D01*
X159349916Y-97554995D01*
X159598306Y-98156143D01*
X160057837Y-98616478D01*
X160658552Y-98865916D01*
X161308995Y-98866484D01*
X161910143Y-98618094D01*
X162370478Y-98158563D01*
X162445655Y-97977516D01*
X163099856Y-98956596D01*
X164304200Y-105011243D01*
X164181720Y-104986440D01*
X163381720Y-104986440D01*
X163146403Y-105030718D01*
X162930279Y-105169790D01*
X162785289Y-105381990D01*
X162734280Y-105633880D01*
X162734280Y-106633880D01*
X162778558Y-106869197D01*
X162917630Y-107085321D01*
X163129830Y-107230311D01*
X163381720Y-107281320D01*
X164181720Y-107281320D01*
X164316100Y-107256035D01*
X164316100Y-112313653D01*
X164181720Y-112286440D01*
X163381720Y-112286440D01*
X163146403Y-112330718D01*
X162930279Y-112469790D01*
X162785289Y-112681990D01*
X162734280Y-112933880D01*
X162734280Y-113933880D01*
X162778558Y-114169197D01*
X162917630Y-114385321D01*
X162932088Y-114395200D01*
X162425054Y-114395200D01*
X162568151Y-114185770D01*
X162619160Y-113933880D01*
X162619160Y-112933880D01*
X162574882Y-112698563D01*
X162435810Y-112482439D01*
X162315806Y-112400444D01*
X162319160Y-112383880D01*
X162319160Y-112308152D01*
X162464953Y-112368691D01*
X162896593Y-112369068D01*
X163295520Y-112204234D01*
X163601002Y-111899285D01*
X163766531Y-111500647D01*
X163766908Y-111069007D01*
X163602074Y-110670080D01*
X163297125Y-110364598D01*
X162898487Y-110199069D01*
X162466847Y-110198692D01*
X162067920Y-110363526D01*
X161762438Y-110668475D01*
X161609646Y-111036440D01*
X160834674Y-111036440D01*
X161386093Y-110485021D01*
X161719454Y-110418711D01*
X162120117Y-110150997D01*
X162387831Y-109750334D01*
X162463837Y-109368228D01*
X162464953Y-109368691D01*
X162896593Y-109369068D01*
X163295520Y-109204234D01*
X163601002Y-108899285D01*
X163766531Y-108500647D01*
X163766908Y-108069007D01*
X163602074Y-107670080D01*
X163297125Y-107364598D01*
X162898487Y-107199069D01*
X162466847Y-107198692D01*
X162389731Y-107230556D01*
X162370144Y-107132085D01*
X162423161Y-107097970D01*
X162568151Y-106885770D01*
X162619160Y-106633880D01*
X162619160Y-105633880D01*
X162574882Y-105398563D01*
X162435810Y-105182439D01*
X162223610Y-105037449D01*
X161971720Y-104986440D01*
X161171720Y-104986440D01*
X160936403Y-105030718D01*
X160720279Y-105169790D01*
X160575289Y-105381990D01*
X160524280Y-105633880D01*
X160524280Y-106308600D01*
X159278560Y-106308600D01*
X159278560Y-103056000D01*
X159234282Y-102820683D01*
X159095210Y-102604559D01*
X158883010Y-102459569D01*
X158631120Y-102408560D01*
X153931120Y-102408560D01*
X153695803Y-102452838D01*
X153479679Y-102591910D01*
X153334689Y-102804110D01*
X153283680Y-103056000D01*
X153283680Y-104684080D01*
X151986360Y-104684080D01*
X151986360Y-103083560D01*
X151942082Y-102848243D01*
X151803010Y-102632119D01*
X151590810Y-102487129D01*
X151338920Y-102436120D01*
X150293192Y-102436120D01*
X150464747Y-102179369D01*
X150535920Y-101821560D01*
X150535920Y-100906240D01*
X150525800Y-100855364D01*
X150525800Y-100481004D01*
X150563240Y-100296120D01*
X150563240Y-99236120D01*
X150518962Y-99000803D01*
X150379890Y-98784679D01*
X150204568Y-98664887D01*
X150367241Y-98560210D01*
X150512231Y-98348010D01*
X150563240Y-98096120D01*
X150563240Y-97571750D01*
X153296120Y-97571750D01*
X153296120Y-99762309D01*
X153392793Y-99995698D01*
X153571421Y-100174327D01*
X153804810Y-100271000D01*
X155995370Y-100271000D01*
X156154120Y-100112250D01*
X156154120Y-97413000D01*
X156408120Y-97413000D01*
X156408120Y-100112250D01*
X156566870Y-100271000D01*
X158757430Y-100271000D01*
X158990819Y-100174327D01*
X159169447Y-99995698D01*
X159266120Y-99762309D01*
X159266120Y-97571750D01*
X159107370Y-97413000D01*
X156408120Y-97413000D01*
X156154120Y-97413000D01*
X153454870Y-97413000D01*
X153296120Y-97571750D01*
X150563240Y-97571750D01*
X150563240Y-97036120D01*
X150518962Y-96800803D01*
X150379890Y-96584679D01*
X150167690Y-96439689D01*
X149915800Y-96388680D01*
X149265800Y-96388680D01*
X149030483Y-96432958D01*
X148814359Y-96572030D01*
X148773985Y-96631120D01*
X148625800Y-96631120D01*
X148625800Y-95908845D01*
X148625801Y-95908840D01*
X148554627Y-95551032D01*
X148554627Y-95551031D01*
X148355800Y-95253464D01*
X148355800Y-94748350D01*
X149073360Y-94748350D01*
X149073360Y-95388910D01*
X149170033Y-95622299D01*
X149348662Y-95800927D01*
X149582051Y-95897600D01*
X150422610Y-95897600D01*
X150581360Y-95738850D01*
X150581360Y-94589600D01*
X150835360Y-94589600D01*
X150835360Y-95738850D01*
X150994110Y-95897600D01*
X151834669Y-95897600D01*
X152068058Y-95800927D01*
X152246687Y-95622299D01*
X152343360Y-95388910D01*
X152343360Y-94809691D01*
X153296120Y-94809691D01*
X153296120Y-97000250D01*
X153454870Y-97159000D01*
X156154120Y-97159000D01*
X156154120Y-94459750D01*
X156408120Y-94459750D01*
X156408120Y-97159000D01*
X159107370Y-97159000D01*
X159266120Y-97000250D01*
X159266120Y-94809691D01*
X159169447Y-94576302D01*
X158990819Y-94397673D01*
X158757430Y-94301000D01*
X156566870Y-94301000D01*
X156408120Y-94459750D01*
X156154120Y-94459750D01*
X155995370Y-94301000D01*
X153804810Y-94301000D01*
X153571421Y-94397673D01*
X153392793Y-94576302D01*
X153296120Y-94809691D01*
X152343360Y-94809691D01*
X152343360Y-94748350D01*
X152184610Y-94589600D01*
X150835360Y-94589600D01*
X150581360Y-94589600D01*
X149232110Y-94589600D01*
X149073360Y-94748350D01*
X148355800Y-94748350D01*
X148355800Y-93662600D01*
X148332034Y-93536290D01*
X149073360Y-93536290D01*
X149073360Y-94176850D01*
X149232110Y-94335600D01*
X150581360Y-94335600D01*
X150581360Y-93186350D01*
X150835360Y-93186350D01*
X150835360Y-94335600D01*
X152184610Y-94335600D01*
X152343360Y-94176850D01*
X152343360Y-93536290D01*
X152246687Y-93302901D01*
X152068058Y-93124273D01*
X151834669Y-93027600D01*
X150994110Y-93027600D01*
X150835360Y-93186350D01*
X150581360Y-93186350D01*
X150422610Y-93027600D01*
X149582051Y-93027600D01*
X149348662Y-93124273D01*
X149170033Y-93302901D01*
X149073360Y-93536290D01*
X148332034Y-93536290D01*
X148311522Y-93427283D01*
X148172450Y-93211159D01*
X147960250Y-93066169D01*
X147708360Y-93015160D01*
X147641840Y-93015160D01*
X147641840Y-92846000D01*
X148210640Y-92846000D01*
X148445957Y-92801722D01*
X148662081Y-92662650D01*
X148807071Y-92450450D01*
X148830195Y-92336259D01*
X149019282Y-92543743D01*
X149543748Y-92790046D01*
X149773640Y-92669379D01*
X149773640Y-91475560D01*
X150027640Y-91475560D01*
X150027640Y-92669379D01*
X150257532Y-92790046D01*
X150781998Y-92543743D01*
X151172285Y-92115484D01*
X151342116Y-91705450D01*
X151220795Y-91475560D01*
X150027640Y-91475560D01*
X149773640Y-91475560D01*
X149753640Y-91475560D01*
X149753640Y-91221560D01*
X149773640Y-91221560D01*
X149773640Y-90027741D01*
X150027640Y-90027741D01*
X150027640Y-91221560D01*
X151220795Y-91221560D01*
X151342116Y-90991670D01*
X151172285Y-90581636D01*
X150781998Y-90153377D01*
X150257532Y-89907074D01*
X150027640Y-90027741D01*
X149773640Y-90027741D01*
X149543748Y-89907074D01*
X149019282Y-90153377D01*
X148831832Y-90359064D01*
X148813802Y-90263243D01*
X148674730Y-90047119D01*
X148462530Y-89902129D01*
X148210640Y-89851120D01*
X146510640Y-89851120D01*
X146275323Y-89895398D01*
X146059199Y-90034470D01*
X145914209Y-90246670D01*
X145863200Y-90498560D01*
X145863200Y-91614339D01*
X145843013Y-91644551D01*
X145771840Y-92002360D01*
X145771840Y-93015160D01*
X145708360Y-93015160D01*
X145473043Y-93059438D01*
X145256919Y-93198510D01*
X145111929Y-93410710D01*
X145060920Y-93662600D01*
X145060920Y-95262600D01*
X145105198Y-95497917D01*
X145244270Y-95714041D01*
X145456470Y-95859031D01*
X145708360Y-95910040D01*
X146369710Y-95910040D01*
X146755800Y-96296130D01*
X146755800Y-96851236D01*
X146718360Y-97036120D01*
X146718360Y-98096120D01*
X146755800Y-98295096D01*
X146755800Y-98833109D01*
X146407991Y-98902293D01*
X146104655Y-99104975D01*
X142770590Y-102439040D01*
X138477760Y-102439040D01*
X138242443Y-102483318D01*
X138026319Y-102622390D01*
X137881329Y-102834590D01*
X137830320Y-103086480D01*
X137830320Y-107786480D01*
X137874598Y-108021797D01*
X138013670Y-108237921D01*
X138225870Y-108382911D01*
X138477760Y-108433920D01*
X143177760Y-108433920D01*
X143413077Y-108389642D01*
X143629201Y-108250570D01*
X143774191Y-108038370D01*
X143825200Y-107786480D01*
X143825200Y-104029010D01*
X147023460Y-100830750D01*
X147113910Y-100892551D01*
X147365800Y-100943560D01*
X148015800Y-100943560D01*
X148155886Y-100917201D01*
X148189490Y-100931120D01*
X148355050Y-100931120D01*
X148513800Y-100772370D01*
X148513800Y-100692069D01*
X148612231Y-100548010D01*
X148639976Y-100411000D01*
X148655800Y-100495096D01*
X148655800Y-100896120D01*
X148665920Y-100946996D01*
X148665920Y-101434270D01*
X147664070Y-102436120D01*
X146338920Y-102436120D01*
X146103603Y-102480398D01*
X145887479Y-102619470D01*
X145742489Y-102831670D01*
X145691480Y-103083560D01*
X145691480Y-106283560D01*
X145735758Y-106518877D01*
X145874830Y-106735001D01*
X146087030Y-106879991D01*
X146338920Y-106931000D01*
X148338920Y-106931000D01*
X148574237Y-106886722D01*
X148790361Y-106747650D01*
X148838054Y-106677849D01*
X148874830Y-106735001D01*
X149087030Y-106879991D01*
X149338920Y-106931000D01*
X150619097Y-106931000D01*
X150812266Y-107060071D01*
X151284880Y-107154080D01*
X153283680Y-107154080D01*
X153283680Y-107756000D01*
X153327958Y-107991317D01*
X153467030Y-108207441D01*
X153679230Y-108352431D01*
X153931120Y-108403440D01*
X157247985Y-108403440D01*
X157256963Y-108416877D01*
X157657626Y-108684591D01*
X158130240Y-108778600D01*
X159524280Y-108778600D01*
X159524280Y-108853726D01*
X157610803Y-110767203D01*
X157343089Y-111167866D01*
X157249080Y-111640480D01*
X157249080Y-114782440D01*
X157343089Y-115255054D01*
X157610803Y-115655717D01*
X158615280Y-116660194D01*
X158615280Y-120242640D01*
X158659558Y-120477957D01*
X158798630Y-120694081D01*
X158980870Y-120818600D01*
X138140310Y-120818600D01*
X138314161Y-120706730D01*
X138459151Y-120494530D01*
X138510160Y-120242640D01*
X138510160Y-117928390D01*
X145627720Y-117928390D01*
X145627720Y-120268950D01*
X145724393Y-120502339D01*
X145903022Y-120680967D01*
X146136411Y-120777640D01*
X148476970Y-120777640D01*
X148635720Y-120618890D01*
X148635720Y-117769640D01*
X148889720Y-117769640D01*
X148889720Y-120618890D01*
X149048470Y-120777640D01*
X151389029Y-120777640D01*
X151622418Y-120680967D01*
X151801047Y-120502339D01*
X151897720Y-120268950D01*
X151897720Y-117928390D01*
X151738970Y-117769640D01*
X148889720Y-117769640D01*
X148635720Y-117769640D01*
X145786470Y-117769640D01*
X145627720Y-117928390D01*
X138510160Y-117928390D01*
X138510160Y-115042640D01*
X138505210Y-115016330D01*
X145627720Y-115016330D01*
X145627720Y-117356890D01*
X145786470Y-117515640D01*
X148635720Y-117515640D01*
X148635720Y-114666390D01*
X148889720Y-114666390D01*
X148889720Y-117515640D01*
X151738970Y-117515640D01*
X151897720Y-117356890D01*
X151897720Y-115016330D01*
X151801047Y-114782941D01*
X151622418Y-114604313D01*
X151389029Y-114507640D01*
X149048470Y-114507640D01*
X148889720Y-114666390D01*
X148635720Y-114666390D01*
X148476970Y-114507640D01*
X146136411Y-114507640D01*
X145903022Y-114604313D01*
X145724393Y-114782941D01*
X145627720Y-115016330D01*
X138505210Y-115016330D01*
X138465882Y-114807323D01*
X138326810Y-114591199D01*
X138114610Y-114446209D01*
X137862720Y-114395200D01*
X132862720Y-114395200D01*
X132686100Y-114428433D01*
X132686100Y-105071067D01*
X133902344Y-98956598D01*
X134515718Y-98038619D01*
X134589466Y-98217103D01*
X135048997Y-98677438D01*
X135649712Y-98926876D01*
X136300155Y-98927444D01*
X136901303Y-98679054D01*
X137361638Y-98219523D01*
X137611076Y-97618808D01*
X137611090Y-97602230D01*
X137842760Y-97602230D01*
X137842760Y-99792789D01*
X137939433Y-100026178D01*
X138118061Y-100204807D01*
X138351450Y-100301480D01*
X140542010Y-100301480D01*
X140700760Y-100142730D01*
X140700760Y-97443480D01*
X140954760Y-97443480D01*
X140954760Y-100142730D01*
X141113510Y-100301480D01*
X143304070Y-100301480D01*
X143537459Y-100204807D01*
X143716087Y-100026178D01*
X143812760Y-99792789D01*
X143812760Y-97602230D01*
X143654010Y-97443480D01*
X140954760Y-97443480D01*
X140700760Y-97443480D01*
X138001510Y-97443480D01*
X137842760Y-97602230D01*
X137611090Y-97602230D01*
X137611644Y-96968365D01*
X137363254Y-96367217D01*
X136903723Y-95906882D01*
X136303008Y-95657444D01*
X136106882Y-95657273D01*
X136652852Y-94840171D01*
X137842760Y-94840171D01*
X137842760Y-97030730D01*
X138001510Y-97189480D01*
X140700760Y-97189480D01*
X140700760Y-94490230D01*
X140954760Y-94490230D01*
X140954760Y-97189480D01*
X143654010Y-97189480D01*
X143812760Y-97030730D01*
X143812760Y-94840171D01*
X143716087Y-94606782D01*
X143537459Y-94428153D01*
X143304070Y-94331480D01*
X141113510Y-94331480D01*
X140954760Y-94490230D01*
X140700760Y-94490230D01*
X140542010Y-94331480D01*
X138351450Y-94331480D01*
X138118061Y-94428153D01*
X137939433Y-94606782D01*
X137842760Y-94840171D01*
X136652852Y-94840171D01*
X137327696Y-93830196D01*
X142454096Y-90404844D01*
X148501100Y-89202020D01*
X154548102Y-90404844D01*
M02*
