<?xml version="1.0" standalone="no"?>
<!DOCTYPE svg PUBLIC "-//W3C//DTD SVG 1.1//EN"
"http://www.w3.org/Graphics/SVG/1.1/DTD/svg11.dtd">
<svg width="2606" height="2599" viewBox="0 0 2606 2599" version="1.1"
xmlns="http://www.w3.org/2000/svg"
xmlns:xlink="http://www.w3.org/1999/xlink">
<g fill-rule="evenodd"><path d="M 161,2593 L 130,2589 L 101,2581 L 74,2566 L 51,2547 L 32,2524 L 17,2496 L 8,2468 L 5,2437 L 5,1296 L 34,1026 L 118,768 L 253,533 L 434,332 L 654,172 L 901,62 L 1167,5 L 1438,5 L 1703,62 L 1951,172 L 2170,332 L 2352,533 L 2487,768 L 2571,1025 L 2600,1296 L 2600,2437 L 2596,2468 L 2588,2497 L 2573,2524 L 2554,2547 L 2530,2567 L 2503,2581 L 2475,2589 L 2444,2593 L 161,2593 z " style="fill-opacity:1.000000;fill:rgb(167,241,217);stroke:rgb(0,0,0);stroke-width:2"/></g>
</svg>
