<?xml version="1.0" standalone="no"?>
<!DOCTYPE svg PUBLIC "-//W3C//DTD SVG 1.1//EN"
"http://www.w3.org/Graphics/SVG/1.1/DTD/svg11.dtd">
<svg width="2614" height="2607" viewBox="0 0 2614 2607" version="1.1"
xmlns="http://www.w3.org/2000/svg"
xmlns:xlink="http://www.w3.org/1999/xlink">
<g fill-rule="evenodd"><path d="M 165,2601 L 134,2597 L 133,2597 L 104,2588 L 103,2588 L 76,2574 L 76,2573 L 53,2554 L 52,2554 L 33,2530 L 32,2530 L 18,2502 L 17,2501 L 9,2473 L 9,2472 L 5,2442 L 5,2441 L 5,1300 L 5,1299 L 34,1029 L 34,1029 L 34,1029 L 118,770 L 118,770 L 254,535 L 254,534 L 435,333 L 436,333 L 655,173 L 656,173 L 904,62 L 904,62 L 904,62 L 1170,6 L 1171,5 L 1171,5 L 1442,5 L 1442,6 L 1708,62 L 1709,62 L 1956,172 L 1957,172 L 1957,173 L 2177,332 L 2177,333 L 2177,333 L 2359,534 L 2359,535 L 2495,770 L 2495,770 L 2495,770 L 2579,1028 L 2579,1029 L 2608,1299 L 2608,1300 L 2608,2441 L 2608,2441 L 2604,2472 L 2604,2473 L 2595,2502 L 2595,2503 L 2581,2530 L 2580,2530 L 2561,2553 L 2561,2554 L 2537,2574 L 2536,2574 L 2509,2588 L 2508,2589 L 2480,2597 L 2479,2597 L 2448,2601 L 2448,2601 L 165,2601 L 165,2601 z " style="fill-opacity:1.000000;fill:rgb(167,241,217);stroke:rgb(0,0,0);stroke-width:2"/></g>
</svg>
