<?xml version="1.0" standalone="no"?>
<!DOCTYPE svg PUBLIC "-//W3C//DTD SVG 1.1//EN"
"http://www.w3.org/Graphics/SVG/1.1/DTD/svg11.dtd">
<svg width="2606" height="2599" viewBox="0 0 2606 2599" version="1.1"
xmlns="http://www.w3.org/2000/svg"
xmlns:xlink="http://www.w3.org/1999/xlink">
<g fill-rule="evenodd"><path d="M 1167,0 L 1438,0 L 1705,56 L 1954,167 L 2174,327 L 2357,530 L 2493,765 L 2577,1024 L 2606,1295 L 2606,2437 L 2602,2469 L 2593,2499 L 2578,2527 L 2558,2551 L 2533,2571 L 2506,2586 L 2476,2595 L 2444,2598 L 161,2598 L 129,2595 L 99,2586 L 71,2571 L 47,2551 L 27,2527 L 12,2498 L 3,2469 L 0,2437 L 0,1295 L 28,1025 L 112,765 L 248,530 L 430,327 L 651,167 L 899,56 L 1167,0M 161,2591 L 2444,2591 L 2474,2588 L 2503,2579 L 2529,2565 L 2553,2546 L 2572,2522 L 2586,2496 L 2595,2467 L 2598,2437 L 2598,1296 L 2569,1026 L 2486,769 L 2350,534 L 2169,333 L 1950,174 L 1703,64 L 1438,7 L 1167,7 L 902,64 L 655,174 L 436,333 L 255,534 L 119,769 L 36,1026 L 7,1296 L 7,2437 L 10,2467 L 19,2496 L 33,2522 L 52,2546 L 76,2565 L 102,2579 L 131,2588 L 161,2591 z " style="fill-opacity:1.000000;fill:rgb(167,241,217);stroke:rgb(0,0,0);stroke-width:2"/></g>
</svg>
