<?xml version="1.0" standalone="no"?>
<!DOCTYPE svg PUBLIC "-//W3C//DTD SVG 1.1//EN"
"http://www.w3.org/Graphics/SVG/1.1/DTD/svg11.dtd">
<svg width="2510" height="2509" viewBox="0 0 2510 2509" version="1.1"
xmlns="http://www.w3.org/2000/svg"
xmlns:xlink="http://www.w3.org/1999/xlink">
<g fill-rule="evenodd"><path d="M 23,2453 L 23,2044 L 417,2044 L 417,2453 L 23,2453 z " style="fill-opacity:1.000000;fill:rgb(167,241,217);stroke:rgb(0,0,0);stroke-width:2"/></g>
<g fill-rule="evenodd"><path d="M 347,646 L 346,663 L 340,678 L 332,693 L 321,705 L 308,714 L 293,721 L 277,725 L 260,725 L 244,721 L 229,714 L 216,705 L 205,693 L 197,678 L 192,663 L 190,646 L 192,630 L 197,614 L 205,600 L 216,588 L 229,578 L 244,571 L 260,568 L 277,568 L 293,571 L 308,578 L 321,588 L 332,600 L 340,614 L 346,630 L 347,646 z " style="fill-opacity:1.000000;fill:rgb(42,130,200);stroke:rgb(0,0,0);stroke-width:2"/></g>
<g fill-rule="evenodd"><path d="M 2316,642 L 2314,658 L 2309,674 L 2301,688 L 2290,700 L 2277,710 L 2262,716 L 2246,720 L 2229,720 L 2213,716 L 2198,710 L 2185,700 L 2174,688 L 2165,674 L 2160,658 L 2159,642 L 2160,625 L 2165,609 L 2174,595 L 2185,583 L 2198,573 L 2213,567 L 2229,563 L 2246,563 L 2262,567 L 2277,573 L 2290,583 L 2301,595 L 2309,609 L 2314,625 L 2316,642 z " style="fill-opacity:1.000000;fill:rgb(216,254,67);stroke:rgb(0,0,0);stroke-width:2"/></g>
<g fill-rule="evenodd"><path d="M 2173,1834 L 2173,1779 L 2291,1779 L 2291,1834 L 2173,1834 z " style="fill-opacity:1.000000;fill:rgb(77,152,85);stroke:rgb(0,0,0);stroke-width:2"/></g>
<g fill-rule="evenodd"><path d="M 2426,1956 L 2426,1878 L 2489,1878 L 2489,1956 L 2426,1956 z " style="fill-opacity:1.000000;fill:rgb(140,226,179);stroke:rgb(0,0,0);stroke-width:2"/></g>
<g fill-rule="evenodd"><path d="M 2426,1382 L 2426,1303 L 2489,1303 L 2489,1382 L 2426,1382 z " style="fill-opacity:1.000000;fill:rgb(71,23,17);stroke:rgb(0,0,0);stroke-width:2"/></g>
<g fill-rule="evenodd"><path d="M 2252,1382 L 2252,1303 L 2315,1303 L 2315,1382 L 2252,1382 z " style="fill-opacity:1.000000;fill:rgb(152,84,47);stroke:rgb(0,0,0);stroke-width:2"/></g>
<g fill-rule="evenodd"><path d="M 2252,1956 L 2252,1878 L 2315,1878 L 2315,1956 L 2252,1956 z " style="fill-opacity:1.000000;fill:rgb(17,45,5);stroke:rgb(0,0,0);stroke-width:2"/></g>
<g fill-rule="evenodd"><path d="M 1216,644 L 1315,644 L 1315,626 L 1366,626 L 1366,710 L 1315,710 L 1315,691 L 1216,691 L 1216,710 L 1214,710 L 1214,799 L 1216,799 L 1216,883 L 1165,883 L 1165,865 L 1128,865 L 835,1157 L 835,1472 L 465,1472 L 465,1102 L 823,1102 L 1101,824 L 1105,821 L 1109,819 L 1113,818 L 1118,817 L 1165,817 L 1165,799 L 1167,799 L 1167,710 L 1165,710 L 1165,626 L 1167,626 L 1167,547 L 1106,487 L 1035,487 L 1035,361 L 1090,361 L 1090,230 L 1090,225 L 1091,221 L 1094,217 L 1098,212 L 1098,112 L 1232,112 L 1232,245 L 1137,245 L 1137,361 L 1192,361 L 1192,487 L 1173,487 L 1207,521 L 1210,524 L 1213,528 L 1214,533 L 1214,537 L 1214,626 L 1216,626 L 1216,644 z " style="fill-opacity:1.000000;fill:rgb(88,245,107);stroke:rgb(0,0,0);stroke-width:2"/></g>
<g fill-rule="evenodd"><path d="M 1242,1136 L 1242,1354 L 1084,1354 L 1084,1102 L 1208,1102 L 1317,993 L 1317,936 L 1317,930 L 1317,883 L 1315,883 L 1315,799 L 1366,799 L 1366,883 L 1364,883 L 1364,925 L 1364,927 L 1365,931 L 1365,1003 L 1364,1007 L 1363,1012 L 1361,1016 L 1358,1020 L 1242,1136 z " style="fill-opacity:1.000000;fill:rgb(214,136,7);stroke:rgb(0,0,0);stroke-width:2"/></g>
<g fill-rule="evenodd"><path d="M 2079,2508 L 439,2508 L 435,2508 L 433,2507 L 431,2504 L 430,2502 L 429,2498 L 430,2494 L 431,2493 L 433,2490 L 445,2482 L 455,2469 L 458,2452 L 458,2045 L 455,2029 L 446,2015 L 433,2006 L 416,2003 L 24,2003 L 9,2005 L 7,2005 L 4,2004 L 2,2002 L 0,1999 L 0,1995 L 0,1257 L 95,775 L 97,772 L 145,700 L 148,697 L 152,695 L 155,695 L 157,696 L 161,698 L 163,701 L 168,713 L 201,747 L 245,765 L 292,765 L 336,747 L 369,714 L 387,670 L 387,623 L 369,579 L 336,546 L 292,528 L 279,528 L 277,527 L 273,526 L 270,523 L 269,520 L 269,516 L 270,512 L 368,367 L 775,95 L 1253,0 L 1256,0 L 1732,94 L 1734,95 L 2141,367 L 2235,507 L 2237,511 L 2237,513 L 2237,515 L 2235,518 L 2234,520 L 2231,522 L 2227,523 L 2214,523 L 2170,541 L 2137,574 L 2119,618 L 2119,665 L 2137,709 L 2170,742 L 2214,760 L 2261,760 L 2304,742 L 2338,709 L 2343,696 L 2345,693 L 2347,692 L 2350,690 L 2354,690 L 2358,692 L 2361,695 L 2412,772 L 2414,775 L 2509,1254 L 2508,1256 L 2507,1260 L 2504,1262 L 2500,1264 L 2497,1264 L 2488,1262 L 2427,1262 L 2411,1265 L 2398,1274 L 2388,1287 L 2385,1304 L 2385,1381 L 2388,1396 L 2397,1410 L 2410,1419 L 2427,1423 L 2488,1423 L 2500,1421 L 2502,1421 L 2505,1422 L 2508,1425 L 2509,1429 L 2510,1829 L 2509,1833 L 2508,1834 L 2505,1837 L 2503,1838 L 2499,1839 L 2488,1837 L 2427,1837 L 2411,1840 L 2398,1848 L 2388,1862 L 2385,1879 L 2385,1955 L 2388,1971 L 2397,1985 L 2399,1987 L 2400,1989 L 2401,1993 L 2400,1997 L 2398,2000 L 2396,2001 L 2394,2002 L 2391,2003 L 2351,2003 L 2347,2002 L 2344,2000 L 2341,1996 L 2341,1995 L 2341,1991 L 2342,1987 L 2352,1972 L 2356,1955 L 2356,1879 L 2353,1863 L 2344,1849 L 2335,1843 L 2333,1839 L 2332,1836 L 2332,1828 L 2333,1825 L 2335,1821 L 2337,1820 L 2340,1819 L 2342,1818 L 2346,1819 L 2356,1823 L 2386,1823 L 2414,1812 L 2435,1791 L 2446,1763 L 2446,1733 L 2435,1705 L 2414,1684 L 2386,1672 L 2356,1672 L 2328,1684 L 2307,1705 L 2296,1732 L 2294,1735 L 2290,1738 L 2286,1738 L 2223,1738 L 2220,1737 L 2217,1734 L 2216,1730 L 2216,1726 L 2216,1724 L 2218,1721 L 2263,1677 L 2267,1675 L 2291,1670 L 2319,1651 L 2338,1623 L 2344,1595 L 2345,1591 L 2348,1589 L 2350,1588 L 2354,1587 L 2386,1587 L 2414,1576 L 2435,1554 L 2446,1527 L 2446,1497 L 2435,1469 L 2414,1448 L 2386,1436 L 2356,1436 L 2352,1438 L 2348,1439 L 2346,1438 L 2342,1437 L 2341,1436 L 2339,1433 L 2337,1423 L 2337,1419 L 2337,1417 L 2339,1414 L 2343,1411 L 2353,1398 L 2356,1381 L 2356,1304 L 2353,1288 L 2344,1275 L 2331,1265 L 2314,1262 L 2253,1262 L 2237,1265 L 2224,1274 L 2214,1287 L 2211,1304 L 2211,1358 L 2209,1362 L 2208,1363 L 2205,1365 L 2201,1366 L 2103,1366 L 2099,1365 L 2096,1363 L 2094,1360 L 2093,1356 L 2093,1101 L 2090,1085 L 2081,1072 L 2068,1063 L 2051,1059 L 1683,1059 L 1667,1062 L 1654,1071 L 1644,1084 L 1641,1101 L 1641,1228 L 1640,1232 L 1639,1234 L 1637,1237 L 1635,1237 L 1631,1238 L 1529,1238 L 1525,1237 L 1522,1235 L 1520,1232 L 1519,1230 L 1519,1103 L 1516,1087 L 1507,1074 L 1494,1065 L 1477,1061 L 1396,1061 L 1392,1060 L 1389,1058 L 1387,1057 L 1386,1053 L 1386,1051 L 1386,1047 L 1400,1027 L 1405,1002 L 1405,932 L 1404,927 L 1404,897 L 1407,882 L 1407,800 L 1404,785 L 1395,771 L 1381,761 L 1379,758 L 1379,754 L 1379,750 L 1382,747 L 1394,739 L 1403,725 L 1407,709 L 1407,627 L 1404,611 L 1395,598 L 1382,589 L 1365,585 L 1316,585 L 1300,588 L 1286,597 L 1283,601 L 1281,603 L 1278,604 L 1262,604 L 1259,603 L 1256,600 L 1255,598 L 1254,594 L 1254,538 L 1249,513 L 1235,491 L 1233,488 L 1233,362 L 1230,346 L 1221,332 L 1208,323 L 1191,320 L 1187,320 L 1183,319 L 1180,317 L 1179,315 L 1178,313 L 1177,310 L 1177,294 L 1179,291 L 1181,288 L 1183,287 L 1187,286 L 1231,286 L 1246,283 L 1260,275 L 1269,261 L 1271,254 L 1272,251 L 1275,248 L 1279,246 L 1283,246 L 1285,247 L 1286,248 L 1301,264 L 1336,281 L 1345,276 L 1345,242 L 1338,240 L 1326,233 L 1316,225 L 1308,214 L 1302,202 L 1299,189 L 1298,175 L 1300,162 L 1305,149 L 1312,137 L 1321,128 L 1332,120 L 1345,115 L 1345,80 L 1336,76 L 1301,93 L 1286,109 L 1285,110 L 1283,110 L 1281,111 L 1279,110 L 1277,110 L 1275,109 L 1273,108 L 1272,106 L 1271,104 L 1271,102 L 1270,97 L 1261,83 L 1247,74 L 1231,71 L 1099,71 L 1083,73 L 1069,82 L 1060,96 L 1057,112 L 1057,199 L 1056,203 L 1055,206 L 1050,231 L 1049,312 L 1048,315 L 1047,317 L 1043,319 L 1040,320 L 1036,320 L 1020,323 L 1006,331 L 997,345 L 994,362 L 994,486 L 997,501 L 1005,515 L 1019,524 L 1036,528 L 1087,528 L 1091,528 L 1094,530 L 1124,561 L 1126,564 L 1127,568 L 1127,612 L 1124,627 L 1124,709 L 1127,725 L 1127,768 L 1126,771 L 1124,775 L 1121,777 L 1094,782 L 1072,797 L 810,1059 L 807,1061 L 803,1061 L 466,1061 L 451,1064 L 437,1073 L 428,1087 L 424,1103 L 424,1472 L 427,1487 L 436,1501 L 450,1510 L 466,1513 L 834,1513 L 850,1510 L 864,1502 L 873,1488 L 876,1471 L 876,1177 L 877,1173 L 878,1171 L 1133,917 L 1136,915 L 1140,915 L 1144,917 L 1149,920 L 1166,924 L 1215,924 L 1227,922 L 1229,922 L 1232,923 L 1239,923 L 1242,920 L 1242,883 L 1240,883 L 1240,799 L 1291,799 L 1291,883 L 1289,883 L 1289,930 L 1289,935 L 1287,939 L 1285,943 L 1282,947 L 1277,951 L 1277,972 L 1277,976 L 1276,978 L 1194,1060 L 1192,1060 L 1189,1061 L 1085,1061 L 1070,1064 L 1056,1073 L 1047,1086 L 1043,1103 L 1043,1353 L 1046,1369 L 1055,1383 L 1068,1392 L 1085,1395 L 1241,1395 L 1256,1392 L 1270,1383 L 1273,1380 L 1276,1377 L 1279,1375 L 1281,1375 L 1283,1375 L 1287,1377 L 1288,1378 L 1291,1383 L 1305,1392 L 1321,1395 L 1423,1395 L 1427,1397 L 1440,1406 L 1475,1413 L 1633,1413 L 1635,1413 L 1638,1416 L 1640,1419 L 1641,1421 L 1641,1469 L 1644,1485 L 1653,1498 L 1666,1508 L 1683,1511 L 1943,1511 L 1945,1511 L 1949,1513 L 1951,1515 L 1979,1534 L 2014,1541 L 2122,1541 L 2126,1541 L 2128,1542 L 2129,1543 L 2132,1547 L 2132,1551 L 2132,1558 L 2132,1560 L 2129,1564 L 1979,1713 L 1960,1743 L 1953,1777 L 1953,2022 L 1960,2056 L 1979,2086 L 2058,2164 L 2059,2165 L 2061,2169 L 2061,2452 L 2064,2468 L 2072,2481 L 2085,2490 L 2088,2493 L 2089,2495 L 2089,2496 L 2089,2500 L 2088,2504 L 2085,2507 L 2083,2508 L 2079,2508M 1078,2268 L 1045,2268 L 1038,2275 L 1038,2453 L 1044,2468 L 1056,2479 L 1070,2485 L 1248,2485 L 1255,2479 L 1255,2445 L 1078,2445 L 1078,2268M 1078,2228 L 1078,2052 L 1255,2052 L 1255,2018 L 1248,2012 L 1070,2012 L 1056,2018 L 1044,2029 L 1038,2044 L 1038,2222 L 1045,2228 L 1078,2228M 465,668 L 432,668 L 425,675 L 425,841 L 432,856 L 443,867 L 457,873 L 624,873 L 630,867 L 630,833 L 465,833 L 465,668M 465,628 L 465,463 L 630,463 L 630,430 L 624,423 L 457,423 L 443,429 L 432,441 L 425,455 L 425,622 L 432,628 L 465,628M 670,463 L 835,463 L 835,628 L 869,628 L 875,622 L 875,455 L 869,441 L 858,429 L 843,423 L 677,423 L 670,430 L 670,463M 670,833 L 670,867 L 677,873 L 843,873 L 858,867 L 869,856 L 875,841 L 875,675 L 869,668 L 835,668 L 835,833 L 670,833M 1295,2052 L 1472,2052 L 1472,2228 L 1505,2228 L 1512,2222 L 1512,2044 L 1506,2029 L 1495,2018 L 1480,2012 L 1302,2012 L 1295,2018 L 1295,2052M 1295,2445 L 1295,2479 L 1302,2485 L 1480,2485 L 1495,2479 L 1506,2468 L 1512,2453 L 1512,2275 L 1505,2268 L 1472,2268 L 1472,2445 L 1295,2445M 1887,461 L 2052,461 L 2052,626 L 2085,626 L 2092,619 L 2092,453 L 2086,438 L 2075,427 L 2060,421 L 1894,421 L 1887,427 L 1887,461M 1887,831 L 1887,864 L 1894,871 L 2060,871 L 2075,865 L 2086,853 L 2092,839 L 2092,672 L 2085,666 L 2052,666 L 2052,831 L 1887,831M 1682,626 L 1682,461 L 1847,461 L 1847,427 L 1840,421 L 1674,421 L 1659,427 L 1648,438 L 1642,453 L 1642,619 L 1649,626 L 1682,626M 1682,666 L 1649,666 L 1642,672 L 1642,839 L 1648,853 L 1659,865 L 1674,871 L 1840,871 L 1847,864 L 1847,831 L 1682,831 L 1682,666M 1408,487 L 1350,487 L 1350,444 L 1316,444 L 1310,450 L 1310,494 L 1316,509 L 1327,520 L 1342,527 L 1402,527 L 1408,520 L 1408,487M 1408,361 L 1408,327 L 1402,321 L 1342,321 L 1327,327 L 1316,338 L 1310,353 L 1310,397 L 1316,404 L 1350,404 L 1350,361 L 1408,361M 1448,487 L 1448,520 L 1455,527 L 1515,527 L 1530,520 L 1541,509 L 1547,494 L 1547,450 L 1540,444 L 1507,444 L 1507,487 L 1448,487M 1507,404 L 1540,404 L 1547,397 L 1547,353 L 1541,338 L 1530,327 L 1515,321 L 1455,321 L 1448,327 L 1448,361 L 1507,361 L 1507,404M 1428,198 L 1425,208 L 1418,219 L 1408,229 L 1397,237 L 1385,242 L 1385,276 L 1393,281 L 1428,264 L 1456,233 L 1467,207 L 1463,198 L 1428,198M 1428,158 L 1463,158 L 1467,150 L 1456,123 L 1428,93 L 1393,76 L 1385,80 L 1385,115 L 1391,117 L 1403,123 L 1413,132 L 1421,143 L 1427,155 L 1428,158 z " style="fill-opacity:1.000000;fill:rgb(153,146,72);stroke:rgb(0,0,0);stroke-width:2"/></g>
<g fill-rule="evenodd"><path d="M 1478,1263 L 1493,1278 L 1682,1278 L 1682,1100 L 2052,1100 L 2052,1406 L 2256,1406 L 2265,1407 L 2275,1410 L 2283,1415 L 2291,1422 L 2296,1430 L 2300,1439 L 2303,1448 L 2303,1458 L 2300,1468 L 2296,1477 L 2291,1485 L 2283,1492 L 2275,1496 L 2265,1500 L 2256,1501 L 2013,1501 L 2003,1500 L 1993,1496 L 1985,1492 L 1977,1485 L 1972,1477 L 1969,1470 L 1682,1470 L 1682,1373 L 1474,1373 L 1464,1372 L 1456,1369 L 1447,1365 L 1440,1359 L 1436,1354 L 1320,1354 L 1320,1102 L 1478,1102 L 1478,1263 z " style="fill-opacity:1.000000;fill:rgb(51,98,65);stroke:rgb(0,0,0);stroke-width:2"/></g>
<g fill-rule="evenodd"><path d="M 2128,2044 L 2495,2044 L 2495,2453 L 2102,2453 L 2102,2151 L 2007,2057 L 2001,2049 L 1997,2041 L 1994,2032 L 1993,2023 L 1993,1776 L 1994,1767 L 1997,1758 L 2001,1750 L 2007,1742 L 2173,1576 L 2173,1543 L 2221,1543 L 2226,1543 L 2258,1543 L 2263,1543 L 2291,1543 L 2291,1557 L 2293,1558 L 2299,1566 L 2303,1575 L 2305,1585 L 2305,1595 L 2303,1604 L 2299,1613 L 2293,1621 L 2286,1628 L 2277,1633 L 2268,1636 L 2258,1637 L 2246,1637 L 2088,1795 L 2088,2004 L 2128,2044 z " style="fill-opacity:1.000000;fill:rgb(243,13,35);stroke:rgb(0,0,0);stroke-width:2"/></g>
</svg>
