<?xml version="1.0" standalone="no"?>
<!DOCTYPE svg PUBLIC "-//W3C//DTD SVG 1.1//EN"
"http://www.w3.org/Graphics/SVG/1.1/DTD/svg11.dtd">
<svg width="2614" height="2607" viewBox="0 0 2614 2607" version="1.1"
xmlns="http://www.w3.org/2000/svg"
xmlns:xlink="http://www.w3.org/1999/xlink">
<g fill-rule="evenodd"><path d="M 0,2606 L 0,0 L 2614,0 L 2614,2606 L 0,2606 z " style="fill-opacity:0.300000;fill:rgb(167,241,217);"/></g>
<g fill-rule="evenodd"><path d="M 165,2601 L 134,2597 L 133,2597 L 104,2588 L 103,2588 L 76,2574 L 76,2573 L 53,2554 L 52,2554 L 33,2530 L 32,2530 L 18,2502 L 17,2501 L 9,2473 L 9,2472 L 5,2442 L 5,2441 L 5,1300 L 5,1299 L 34,1029 L 34,1029 L 34,1029 L 118,770 L 118,770 L 254,535 L 254,534 L 435,333 L 436,333 L 655,173 L 656,173 L 904,62 L 904,62 L 904,62 L 1170,6 L 1171,5 L 1171,5 L 1442,5 L 1442,6 L 1708,62 L 1709,62 L 1956,172 L 1957,172 L 1957,173 L 2177,332 L 2177,333 L 2177,333 L 2359,534 L 2359,535 L 2495,770 L 2495,770 L 2495,770 L 2579,1028 L 2579,1029 L 2608,1299 L 2608,1300 L 2608,2441 L 2608,2441 L 2604,2472 L 2604,2473 L 2595,2502 L 2595,2503 L 2581,2530 L 2580,2530 L 2561,2553 L 2561,2554 L 2537,2574 L 2536,2574 L 2509,2588 L 2508,2589 L 2480,2597 L 2479,2597 L 2448,2601 L 2448,2601 L 165,2601 L 165,2601 z " style="fill-opacity:0.600000;fill:rgb(167,241,217);stroke:rgb(0,0,0);stroke-width:2"/></g>
<g fill-rule="evenodd"><path d="M 165,2597 L 134,2593 L 105,2585 L 78,2570 L 55,2551 L 36,2528 L 21,2500 L 12,2472 L 9,2441 L 9,1300 L 38,1030 L 122,771 L 257,537 L 438,336 L 658,176 L 905,66 L 1171,9 L 1442,9 L 1707,66 L 1955,176 L 2174,335 L 2356,537 L 2491,771 L 2575,1029 L 2604,1300 L 2604,2441 L 2601,2472 L 2592,2501 L 2577,2528 L 2558,2551 L 2534,2571 L 2507,2585 L 2479,2594 L 2448,2597 L 165,2597 z " style="fill-opacity:1.000000;fill:rgb(167,241,217);stroke:rgb(0,0,0);stroke-width:2"/></g>
</svg>
