<?xml version="1.0" standalone="no"?>
<!DOCTYPE svg PUBLIC "-//W3C//DTD SVG 1.1//EN"
"http://www.w3.org/Graphics/SVG/1.1/DTD/svg11.dtd">
<svg width="2526" height="2525" viewBox="0 0 2526 2525" version="1.1"
xmlns="http://www.w3.org/2000/svg"
xmlns:xlink="http://www.w3.org/1999/xlink">
<g fill-rule="evenodd"><path d="M 0,2042 L 4,2041 L 13,2037 L 15,2036 L 21,2034 L 31,2032 L 34,2031 L 422,2031 L 425,2032 L 433,2033 L 439,2038 L 444,2045 L 445,2052 L 445,2055 L 445,2458 L 445,2461 L 444,2469 L 439,2476 L 430,2481 L 426,2483 L 425,2483 L 422,2484 L 415,2488 L 413,2489 L 404,2495 L 400,2499 L 382,2517 L 378,2521 L 376,2524 L 0,2524 L 0,2042 z " style="fill-opacity:0.300000;fill:rgb(167,241,217);"/></g>
<g fill-rule="evenodd"><path d="M 0,557 L 0,376 L 91,442 L 104,452 L 137,476 L 178,504 L 208,524 L 210,525 L 214,527 L 234,539 L 241,542 L 245,544 L 246,545 L 259,550 L 263,551 L 263,551 L 268,553 L 273,554 L 277,555 L 283,556 L 285,556 L 285,556 L 287,556 L 289,556 L 296,557 L 305,560 L 309,561 L 324,567 L 328,569 L 332,572 L 341,579 L 344,582 L 355,594 L 358,598 L 359,599 L 366,612 L 367,616 L 373,631 L 374,635 L 374,636 L 375,652 L 375,656 L 374,673 L 374,674 L 373,677 L 367,692 L 366,696 L 359,710 L 358,711 L 355,714 L 344,726 L 341,729 L 332,737 L 328,739 L 324,741 L 309,748 L 305,749 L 296,752 L 289,753 L 285,753 L 268,753 L 264,753 L 257,752 L 248,749 L 244,748 L 229,741 L 225,739 L 221,737 L 212,729 L 209,726 L 197,714 L 195,711 L 194,709 L 190,701 L 188,698 L 187,697 L 186,695 L 185,693 L 181,687 L 179,684 L 174,679 L 173,678 L 172,676 L 169,674 L 163,668 L 159,664 L 153,659 L 139,648 L 135,645 L 129,641 L 112,629 L 54,591 L 21,570 L 7,561 L 0,557 z " style="fill-opacity:0.300000;fill:rgb(42,130,200);"/></g>
<g fill-rule="evenodd"><path d="M 2526,369 L 2526,550 L 2515,556 L 2501,565 L 2468,586 L 2409,624 L 2392,636 L 2386,640 L 2382,643 L 2369,654 L 2362,659 L 2358,663 L 2352,669 L 2348,674 L 2348,674 L 2345,677 L 2341,683 L 2339,684 L 2337,688 L 2336,690 L 2335,692 L 2334,693 L 2332,697 L 2328,705 L 2327,706 L 2324,709 L 2313,721 L 2310,724 L 2301,732 L 2297,734 L 2293,736 L 2278,743 L 2274,744 L 2265,747 L 2258,748 L 2254,748 L 2237,748 L 2233,748 L 2226,747 L 2217,744 L 2213,743 L 2198,736 L 2194,734 L 2190,732 L 2181,724 L 2178,721 L 2166,709 L 2164,706 L 2163,705 L 2156,692 L 2154,688 L 2149,672 L 2148,669 L 2148,668 L 2147,652 L 2147,647 L 2148,631 L 2148,630 L 2149,627 L 2154,611 L 2156,607 L 2163,594 L 2164,593 L 2166,589 L 2178,578 L 2181,575 L 2190,567 L 2194,565 L 2198,563 L 2213,556 L 2217,555 L 2226,552 L 2233,551 L 2235,551 L 2237,551 L 2239,551 L 2243,550 L 2251,549 L 2254,548 L 2255,548 L 2259,547 L 2263,545 L 2266,544 L 2276,540 L 2277,539 L 2281,537 L 2288,534 L 2299,528 L 2302,526 L 2312,520 L 2323,513 L 2326,511 L 2344,499 L 2385,471 L 2418,447 L 2431,437 L 2526,369 z " style="fill-opacity:0.300000;fill:rgb(216,254,67);"/></g>
<g fill-rule="evenodd"><path d="M 2178,1925 L 2161,1904 L 2148,1883 L 2141,1863 L 2139,1842 L 2139,1821 L 2153,1787 L 2158,1778 L 2164,1770 L 2172,1764 L 2181,1759 L 2193,1754 L 2195,1754 L 2206,1761 L 2210,1762 L 2219,1765 L 2223,1766 L 2232,1767 L 2294,1767 L 2299,1767 L 2299,1767 L 2303,1766 L 2312,1766 L 2317,1766 L 2337,1767 L 2345,1768 L 2354,1769 L 2346,1780 L 2344,1782 L 2340,1787 L 2335,1794 L 2332,1798 L 2327,1807 L 2326,1809 L 2323,1816 L 2322,1820 L 2321,1829 L 2320,1832 L 2320,1836 L 2320,1842 L 2320,1843 L 2320,1848 L 2319,1852 L 2318,1860 L 2309,1863 L 2299,1864 L 2260,1864 L 2249,1865 L 2238,1869 L 2228,1876 L 2217,1886 L 2181,1921 L 2178,1925 z " style="fill-opacity:0.300000;fill:rgb(77,152,85);"/></g>
<g fill-rule="evenodd"><path d="M 2526,1874 L 2526,2006 L 2503,2008 L 2497,2008 L 2452,2008 L 2439,1995 L 2435,1992 L 2434,1991 L 2428,1986 L 2426,1985 L 2422,1981 L 2421,1980 L 2415,1972 L 2414,1964 L 2414,1962 L 2414,1889 L 2414,1886 L 2415,1878 L 2420,1871 L 2427,1867 L 2434,1866 L 2437,1865 L 2494,1865 L 2497,1866 L 2504,1867 L 2512,1869 L 2516,1870 L 2526,1874 z " style="fill-opacity:0.300000;fill:rgb(140,226,179);"/></g>
<g fill-rule="evenodd"><path d="M 2526,1298 L 2526,1402 L 2525,1402 L 2520,1404 L 2512,1407 L 2510,1407 L 2504,1409 L 2497,1410 L 2494,1410 L 2437,1410 L 2434,1410 L 2426,1408 L 2420,1404 L 2415,1397 L 2414,1390 L 2414,1387 L 2414,1314 L 2414,1311 L 2415,1303 L 2420,1297 L 2427,1292 L 2434,1291 L 2437,1291 L 2494,1291 L 2497,1291 L 2501,1291 L 2505,1292 L 2509,1293 L 2519,1296 L 2524,1298 L 2526,1298 z " style="fill-opacity:0.300000;fill:rgb(71,23,17);"/></g>
<g fill-rule="evenodd"><path d="M 2260,1402 L 2248,1399 L 2236,1390 L 2235,1389 L 2235,1387 L 2236,1385 L 2238,1378 L 2239,1374 L 2239,1366 L 2240,1314 L 2240,1311 L 2241,1303 L 2246,1297 L 2253,1292 L 2260,1291 L 2263,1291 L 2320,1291 L 2323,1291 L 2331,1292 L 2338,1297 L 2342,1304 L 2343,1311 L 2344,1314 L 2344,1387 L 2343,1390 L 2342,1398 L 2337,1405 L 2336,1405 L 2330,1410 L 2326,1412 L 2323,1414 L 2321,1416 L 2319,1415 L 2314,1413 L 2304,1409 L 2300,1408 L 2290,1405 L 2287,1404 L 2277,1403 L 2275,1402 L 2265,1402 L 2264,1402 L 2260,1402 z " style="fill-opacity:0.300000;fill:rgb(152,84,47);"/></g>
<g fill-rule="evenodd"><path d="M 2178,1970 L 2178,1964 L 2178,1925 L 2181,1921 L 2217,1886 L 2228,1876 L 2238,1869 L 2249,1865 L 2260,1864 L 2299,1864 L 2309,1863 L 2318,1860 L 2320,1861 L 2323,1863 L 2324,1863 L 2331,1867 L 2337,1872 L 2342,1879 L 2343,1886 L 2344,1889 L 2344,1961 L 2343,1964 L 2342,1972 L 2333,1983 L 2330,1986 L 2326,1989 L 2323,1991 L 2315,1998 L 2311,2002 L 2306,2008 L 2260,2008 L 2240,2006 L 2219,1998 L 2198,1986 L 2178,1970 z " style="fill-opacity:0.300000;fill:rgb(17,45,5);"/></g>
<g fill-rule="evenodd"><path d="M 466,1499 L 459,1495 L 454,1488 L 453,1480 L 453,1478 L 453,1113 L 453,1110 L 455,1103 L 459,1096 L 466,1092 L 473,1090 L 476,1090 L 811,1090 L 815,1090 L 819,1089 L 822,1089 L 827,1086 L 830,1083 L 833,1081 L 1093,820 L 1095,818 L 1097,817 L 1100,814 L 1104,812 L 1108,810 L 1109,809 L 1111,808 L 1116,807 L 1119,807 L 1124,806 L 1126,806 L 1133,805 L 1141,803 L 1145,802 L 1149,801 L 1151,798 L 1152,796 L 1153,792 L 1155,783 L 1155,780 L 1155,776 L 1155,733 L 1155,730 L 1155,726 L 1153,718 L 1153,715 L 1153,637 L 1153,634 L 1155,625 L 1155,623 L 1155,620 L 1155,576 L 1155,572 L 1155,568 L 1154,564 L 1151,561 L 1149,558 L 1146,555 L 1116,524 L 1113,522 L 1110,519 L 1106,516 L 1103,516 L 1099,515 L 1095,515 L 1046,515 L 1043,515 L 1035,513 L 1028,509 L 1024,502 L 1022,494 L 1022,492 L 1022,372 L 1022,368 L 1024,361 L 1029,354 L 1035,350 L 1043,348 L 1045,348 L 1048,348 L 1052,348 L 1056,347 L 1064,346 L 1068,345 L 1072,343 L 1073,340 L 1074,338 L 1076,331 L 1077,327 L 1078,320 L 1078,241 L 1078,238 L 1078,236 L 1079,231 L 1080,228 L 1081,223 L 1081,221 L 1082,219 L 1084,215 L 1084,215 L 1085,212 L 1085,211 L 1085,207 L 1085,122 L 1086,119 L 1087,112 L 1092,105 L 1099,100 L 1106,99 L 1109,99 L 1237,99 L 1240,99 L 1247,101 L 1254,105 L 1259,112 L 1259,114 L 1259,116 L 1260,118 L 1260,119 L 1261,122 L 1261,124 L 1263,129 L 1263,131 L 1265,135 L 1266,138 L 1269,143 L 1271,145 L 1275,152 L 1276,153 L 1275,157 L 1274,164 L 1273,178 L 1273,185 L 1273,198 L 1274,205 L 1275,219 L 1276,220 L 1274,222 L 1271,226 L 1265,237 L 1264,241 L 1261,250 L 1260,253 L 1260,254 L 1259,258 L 1258,261 L 1254,268 L 1247,272 L 1240,273 L 1237,274 L 1195,274 L 1191,274 L 1187,274 L 1181,275 L 1179,276 L 1172,278 L 1170,279 L 1169,281 L 1167,290 L 1166,294 L 1165,302 L 1165,317 L 1165,321 L 1165,325 L 1167,332 L 1167,334 L 1168,338 L 1169,340 L 1170,343 L 1174,345 L 1178,346 L 1187,347 L 1191,348 L 1195,348 L 1197,348 L 1200,348 L 1208,350 L 1215,354 L 1219,361 L 1220,368 L 1221,371 L 1221,494 L 1221,496 L 1220,503 L 1221,504 L 1223,507 L 1226,511 L 1229,515 L 1231,516 L 1233,520 L 1235,523 L 1238,527 L 1239,529 L 1239,531 L 1240,535 L 1241,539 L 1242,543 L 1242,545 L 1242,548 L 1242,602 L 1243,606 L 1243,610 L 1244,616 L 1244,618 L 1247,625 L 1247,625 L 1248,627 L 1249,628 L 1258,631 L 1262,631 L 1270,632 L 1286,632 L 1294,631 L 1298,631 L 1301,630 L 1303,627 L 1304,625 L 1307,621 L 1308,620 L 1316,615 L 1323,614 L 1326,614 L 1371,614 L 1374,614 L 1382,615 L 1388,620 L 1393,627 L 1394,634 L 1394,637 L 1394,714 L 1394,718 L 1392,725 L 1388,732 L 1378,738 L 1374,740 L 1370,742 L 1366,744 L 1354,751 L 1351,754 L 1342,762 L 1323,762 L 1311,762 L 1299,759 L 1282,753 L 1276,753 L 1248,782 L 1240,791 L 1236,800 L 1236,807 L 1236,891 L 1236,898 L 1230,910 L 1224,911 L 1222,911 L 1176,911 L 1173,911 L 1165,909 L 1163,908 L 1160,906 L 1156,904 L 1149,898 L 1148,898 L 1146,898 L 1144,899 L 1136,903 L 1133,905 L 1126,910 L 872,1165 L 868,1169 L 867,1171 L 865,1174 L 864,1177 L 864,1181 L 864,1185 L 864,1477 L 864,1480 L 862,1488 L 857,1495 L 851,1499 L 843,1501 L 841,1501 L 476,1501 L 473,1501 L 466,1499 z " style="fill-opacity:0.300000;fill:rgb(88,245,107);"/></g>
<g fill-rule="evenodd"><path d="M 1084,1381 L 1078,1376 L 1073,1369 L 1072,1362 L 1072,1359 L 1072,1113 L 1072,1110 L 1074,1102 L 1078,1096 L 1085,1091 L 1092,1090 L 1095,1090 L 1197,1090 L 1201,1090 L 1205,1089 L 1207,1089 L 1210,1087 L 1212,1086 L 1216,1082 L 1298,1000 L 1302,996 L 1303,994 L 1304,992 L 1305,988 L 1305,984 L 1305,980 L 1305,968 L 1306,967 L 1307,963 L 1308,959 L 1309,955 L 1310,952 L 1311,947 L 1311,945 L 1311,944 L 1311,940 L 1311,939 L 1311,938 L 1311,898 L 1311,891 L 1311,807 L 1311,762 L 1323,762 L 1342,762 L 1349,769 L 1353,772 L 1365,781 L 1369,783 L 1374,785 L 1377,787 L 1388,793 L 1393,800 L 1394,807 L 1394,810 L 1394,888 L 1394,891 L 1392,899 L 1392,902 L 1392,905 L 1392,931 L 1392,933 L 1392,935 L 1392,937 L 1392,938 L 1393,939 L 1393,941 L 1393,1008 L 1392,1011 L 1392,1013 L 1391,1017 L 1391,1021 L 1390,1026 L 1389,1028 L 1388,1029 L 1386,1033 L 1384,1036 L 1381,1040 L 1380,1042 L 1378,1044 L 1373,1051 L 1371,1055 L 1368,1062 L 1367,1064 L 1365,1073 L 1364,1077 L 1328,1091 L 1317,1099 L 1310,1110 L 1289,1160 L 1289,1344 L 1286,1347 L 1284,1349 L 1277,1358 L 1274,1362 L 1274,1362 L 1269,1370 L 1267,1373 L 1264,1376 L 1264,1377 L 1257,1381 L 1250,1382 L 1247,1383 L 1095,1383 L 1092,1382 L 1084,1381 z " style="fill-opacity:0.300000;fill:rgb(214,136,7);"/></g>
<g fill-rule="evenodd"><path d="M 0,557 L 7,561 L 21,570 L 54,591 L 112,629 L 129,641 L 135,645 L 139,648 L 153,659 L 159,664 L 163,668 L 169,674 L 172,676 L 173,678 L 174,679 L 179,684 L 181,687 L 185,693 L 186,695 L 187,697 L 188,698 L 190,701 L 194,709 L 195,711 L 197,714 L 209,726 L 212,729 L 221,737 L 225,739 L 229,741 L 244,748 L 248,749 L 257,752 L 264,753 L 268,753 L 285,753 L 289,753 L 296,752 L 305,749 L 309,748 L 324,741 L 328,739 L 332,737 L 341,729 L 344,726 L 355,714 L 358,711 L 359,710 L 366,696 L 367,692 L 373,677 L 374,674 L 374,673 L 375,656 L 375,652 L 374,636 L 374,635 L 373,631 L 367,616 L 366,612 L 359,599 L 358,598 L 355,594 L 344,582 L 341,579 L 332,572 L 328,569 L 324,567 L 309,561 L 305,560 L 296,557 L 289,556 L 287,556 L 285,556 L 285,556 L 283,556 L 277,555 L 273,554 L 268,553 L 263,551 L 263,551 L 259,550 L 246,545 L 245,544 L 241,542 L 234,539 L 214,527 L 210,525 L 208,524 L 178,504 L 137,476 L 104,452 L 91,442 L 0,376 L 0,0 L 2526,0 L 2526,369 L 2431,437 L 2418,447 L 2385,471 L 2344,499 L 2326,511 L 2323,513 L 2312,520 L 2302,526 L 2299,528 L 2288,534 L 2281,537 L 2277,539 L 2276,540 L 2266,544 L 2263,545 L 2259,547 L 2255,548 L 2254,548 L 2251,549 L 2243,550 L 2239,551 L 2237,551 L 2235,551 L 2233,551 L 2226,552 L 2217,555 L 2213,556 L 2198,563 L 2194,565 L 2190,567 L 2181,575 L 2178,578 L 2166,589 L 2164,593 L 2163,594 L 2156,607 L 2154,611 L 2149,627 L 2148,630 L 2148,631 L 2147,647 L 2147,652 L 2148,668 L 2148,669 L 2149,672 L 2154,688 L 2156,692 L 2163,705 L 2164,706 L 2166,709 L 2178,721 L 2181,724 L 2190,732 L 2194,734 L 2198,736 L 2213,743 L 2217,744 L 2226,747 L 2233,748 L 2237,748 L 2254,748 L 2258,748 L 2265,747 L 2274,744 L 2278,743 L 2293,736 L 2297,734 L 2301,732 L 2310,724 L 2313,721 L 2324,709 L 2327,706 L 2328,705 L 2332,697 L 2334,693 L 2335,692 L 2336,690 L 2337,688 L 2339,684 L 2341,683 L 2345,677 L 2348,674 L 2348,674 L 2352,669 L 2358,663 L 2362,659 L 2369,654 L 2382,643 L 2386,640 L 2392,636 L 2409,624 L 2468,586 L 2501,565 L 2515,556 L 2526,550 L 2526,1298 L 2524,1298 L 2519,1296 L 2509,1293 L 2505,1292 L 2501,1291 L 2497,1291 L 2494,1291 L 2437,1291 L 2434,1291 L 2427,1292 L 2420,1297 L 2415,1303 L 2414,1311 L 2414,1314 L 2414,1387 L 2414,1390 L 2415,1397 L 2420,1404 L 2426,1408 L 2434,1410 L 2437,1410 L 2494,1410 L 2497,1410 L 2504,1409 L 2510,1407 L 2512,1407 L 2520,1404 L 2525,1402 L 2526,1402 L 2526,1874 L 2516,1870 L 2512,1869 L 2504,1867 L 2497,1866 L 2494,1865 L 2437,1865 L 2434,1866 L 2427,1867 L 2420,1871 L 2415,1878 L 2414,1886 L 2414,1889 L 2414,1962 L 2414,1964 L 2415,1972 L 2421,1980 L 2422,1981 L 2426,1985 L 2428,1986 L 2434,1991 L 2435,1992 L 2439,1995 L 2452,2008 L 2450,2009 L 2446,2013 L 2433,2022 L 2429,2024 L 2421,2027 L 2419,2028 L 2415,2029 L 2413,2030 L 2407,2031 L 2403,2031 L 2399,2031 L 2359,2031 L 2355,2031 L 2351,2031 L 2342,2029 L 2338,2028 L 2328,2023 L 2324,2021 L 2314,2015 L 2312,2014 L 2306,2008 L 2311,2002 L 2315,1998 L 2323,1991 L 2326,1989 L 2330,1986 L 2333,1983 L 2342,1972 L 2343,1964 L 2344,1961 L 2344,1889 L 2343,1886 L 2342,1879 L 2337,1872 L 2331,1867 L 2324,1863 L 2323,1863 L 2320,1861 L 2318,1860 L 2319,1852 L 2320,1848 L 2320,1843 L 2320,1842 L 2320,1836 L 2320,1832 L 2321,1829 L 2322,1820 L 2323,1816 L 2326,1809 L 2327,1807 L 2332,1798 L 2335,1794 L 2340,1787 L 2344,1782 L 2346,1780 L 2354,1769 L 2345,1768 L 2337,1767 L 2317,1766 L 2312,1766 L 2303,1766 L 2299,1767 L 2299,1767 L 2294,1767 L 2232,1767 L 2223,1766 L 2219,1765 L 2210,1762 L 2206,1761 L 2195,1754 L 2193,1754 L 2194,1751 L 2198,1738 L 2199,1734 L 2203,1728 L 2204,1726 L 2207,1721 L 2210,1718 L 2212,1715 L 2257,1670 L 2263,1666 L 2264,1666 L 2266,1665 L 2267,1665 L 2268,1665 L 2271,1664 L 2278,1663 L 2282,1662 L 2291,1660 L 2292,1660 L 2295,1658 L 2303,1653 L 2307,1650 L 2313,1645 L 2314,1644 L 2317,1641 L 2322,1633 L 2324,1629 L 2328,1623 L 2329,1620 L 2330,1616 L 2332,1607 L 2332,1603 L 2333,1599 L 2333,1595 L 2334,1593 L 2334,1591 L 2334,1588 L 2336,1582 L 2337,1578 L 2337,1578 L 2339,1571 L 2340,1567 L 2341,1564 L 2344,1558 L 2348,1548 L 2349,1547 L 2352,1543 L 2362,1529 L 2366,1523 L 2371,1520 L 2370,1520 L 2364,1512 L 2354,1496 L 2351,1492 L 2350,1490 L 2346,1484 L 2342,1476 L 2339,1472 L 2339,1472 L 2336,1466 L 2335,1464 L 2334,1462 L 2332,1456 L 2331,1455 L 2330,1452 L 2330,1452 L 2328,1445 L 2327,1443 L 2326,1439 L 2325,1435 L 2324,1431 L 2324,1429 L 2323,1427 L 2323,1425 L 2321,1420 L 2321,1418 L 2321,1416 L 2323,1414 L 2326,1412 L 2330,1410 L 2336,1405 L 2337,1405 L 2342,1398 L 2343,1390 L 2344,1387 L 2344,1314 L 2343,1311 L 2342,1304 L 2338,1297 L 2331,1292 L 2323,1291 L 2320,1291 L 2263,1291 L 2260,1291 L 2253,1292 L 2246,1297 L 2241,1303 L 2240,1311 L 2240,1314 L 2239,1366 L 2239,1374 L 2238,1378 L 2236,1385 L 2235,1387 L 2235,1389 L 2229,1391 L 2225,1392 L 2217,1394 L 2213,1394 L 2209,1394 L 2111,1394 L 2107,1394 L 2103,1394 L 2095,1392 L 2091,1391 L 2085,1389 L 2084,1385 L 2083,1381 L 2081,1372 L 2081,1368 L 2081,1364 L 2081,1111 L 2080,1108 L 2079,1101 L 2075,1094 L 2068,1089 L 2060,1088 L 2057,1088 L 1693,1088 L 1690,1088 L 1683,1089 L 1676,1094 L 1671,1100 L 1670,1108 L 1670,1111 L 1670,1236 L 1669,1240 L 1669,1244 L 1668,1251 L 1667,1252 L 1665,1259 L 1665,1261 L 1662,1262 L 1655,1264 L 1653,1265 L 1647,1266 L 1643,1266 L 1639,1266 L 1537,1266 L 1533,1266 L 1529,1266 L 1521,1264 L 1517,1263 L 1512,1261 L 1511,1260 L 1510,1257 L 1509,1253 L 1507,1246 L 1507,1244 L 1507,1238 L 1506,1113 L 1506,1110 L 1505,1103 L 1500,1096 L 1494,1092 L 1486,1090 L 1483,1090 L 1404,1090 L 1400,1090 L 1396,1089 L 1387,1087 L 1383,1086 L 1376,1083 L 1374,1082 L 1365,1077 L 1364,1077 L 1365,1073 L 1367,1064 L 1368,1062 L 1371,1055 L 1373,1051 L 1378,1044 L 1380,1042 L 1381,1040 L 1384,1036 L 1386,1033 L 1388,1029 L 1389,1028 L 1390,1026 L 1391,1021 L 1391,1017 L 1392,1013 L 1392,1011 L 1393,1008 L 1393,941 L 1393,939 L 1392,938 L 1392,937 L 1392,935 L 1392,933 L 1392,931 L 1392,905 L 1392,902 L 1392,899 L 1394,891 L 1394,888 L 1394,810 L 1394,807 L 1393,800 L 1388,793 L 1377,787 L 1374,785 L 1369,783 L 1365,781 L 1353,772 L 1349,769 L 1342,762 L 1351,754 L 1354,751 L 1366,744 L 1370,742 L 1374,740 L 1378,738 L 1388,732 L 1392,725 L 1394,718 L 1394,714 L 1394,637 L 1394,634 L 1393,627 L 1388,620 L 1382,615 L 1374,614 L 1371,614 L 1326,614 L 1323,614 L 1316,615 L 1308,620 L 1307,621 L 1304,625 L 1303,627 L 1301,630 L 1298,631 L 1294,631 L 1286,632 L 1270,632 L 1262,631 L 1258,631 L 1249,628 L 1248,627 L 1247,625 L 1247,625 L 1244,618 L 1244,616 L 1243,610 L 1243,606 L 1242,602 L 1242,548 L 1242,545 L 1242,543 L 1241,539 L 1240,535 L 1239,531 L 1239,529 L 1238,527 L 1235,523 L 1233,520 L 1231,516 L 1229,515 L 1226,511 L 1223,507 L 1221,504 L 1220,503 L 1221,496 L 1221,494 L 1221,371 L 1220,368 L 1219,361 L 1215,354 L 1208,350 L 1200,348 L 1197,348 L 1195,348 L 1191,348 L 1187,347 L 1178,346 L 1174,345 L 1170,343 L 1169,340 L 1168,338 L 1167,334 L 1167,332 L 1165,325 L 1165,321 L 1165,317 L 1165,302 L 1166,294 L 1167,290 L 1169,281 L 1170,279 L 1172,278 L 1179,276 L 1181,275 L 1187,274 L 1191,274 L 1195,274 L 1237,274 L 1240,273 L 1247,272 L 1254,268 L 1258,261 L 1259,258 L 1260,254 L 1260,253 L 1261,250 L 1264,241 L 1265,237 L 1271,226 L 1274,222 L 1276,220 L 1275,219 L 1274,205 L 1273,198 L 1273,185 L 1273,178 L 1274,164 L 1275,157 L 1276,153 L 1275,152 L 1271,145 L 1269,143 L 1266,138 L 1265,135 L 1263,131 L 1263,129 L 1261,124 L 1261,122 L 1260,119 L 1260,118 L 1259,116 L 1259,114 L 1259,112 L 1254,105 L 1247,101 L 1240,99 L 1237,99 L 1109,99 L 1106,99 L 1099,100 L 1092,105 L 1087,112 L 1086,119 L 1085,122 L 1085,207 L 1085,211 L 1085,212 L 1084,215 L 1084,215 L 1082,219 L 1081,221 L 1081,223 L 1080,228 L 1079,231 L 1078,236 L 1078,238 L 1078,241 L 1078,320 L 1077,327 L 1076,331 L 1074,338 L 1073,340 L 1072,343 L 1068,345 L 1064,346 L 1056,347 L 1052,348 L 1048,348 L 1045,348 L 1043,348 L 1035,350 L 1029,354 L 1024,361 L 1022,368 L 1022,372 L 1022,492 L 1022,494 L 1024,502 L 1028,509 L 1035,513 L 1043,515 L 1046,515 L 1095,515 L 1099,515 L 1103,516 L 1106,516 L 1110,519 L 1113,522 L 1116,524 L 1146,555 L 1149,558 L 1151,561 L 1154,564 L 1155,568 L 1155,572 L 1155,576 L 1155,620 L 1155,623 L 1155,625 L 1153,634 L 1153,637 L 1153,715 L 1153,718 L 1155,726 L 1155,730 L 1155,733 L 1155,776 L 1155,780 L 1155,783 L 1153,792 L 1152,796 L 1151,798 L 1149,801 L 1145,802 L 1141,803 L 1133,805 L 1126,806 L 1124,806 L 1119,807 L 1116,807 L 1111,808 L 1109,809 L 1108,810 L 1104,812 L 1100,814 L 1097,817 L 1095,818 L 1093,820 L 833,1081 L 830,1083 L 827,1086 L 822,1089 L 819,1089 L 815,1090 L 811,1090 L 476,1090 L 473,1090 L 466,1092 L 459,1096 L 455,1103 L 453,1110 L 453,1113 L 453,1478 L 453,1480 L 454,1488 L 459,1495 L 466,1499 L 473,1501 L 476,1501 L 841,1501 L 843,1501 L 851,1499 L 857,1495 L 862,1488 L 864,1480 L 864,1477 L 864,1185 L 864,1181 L 864,1177 L 865,1174 L 867,1171 L 868,1169 L 872,1165 L 1126,910 L 1133,905 L 1136,903 L 1144,899 L 1146,898 L 1148,898 L 1149,898 L 1156,904 L 1160,906 L 1163,908 L 1165,909 L 1173,911 L 1176,911 L 1222,911 L 1224,911 L 1230,910 L 1236,898 L 1236,891 L 1236,807 L 1236,800 L 1240,791 L 1248,782 L 1276,753 L 1282,753 L 1299,759 L 1311,762 L 1311,807 L 1311,891 L 1311,898 L 1311,938 L 1311,939 L 1311,940 L 1311,944 L 1311,945 L 1311,947 L 1310,952 L 1309,955 L 1308,959 L 1307,963 L 1306,967 L 1305,968 L 1305,980 L 1305,984 L 1305,988 L 1304,992 L 1303,994 L 1302,996 L 1298,1000 L 1216,1082 L 1212,1086 L 1210,1087 L 1207,1089 L 1205,1089 L 1201,1090 L 1197,1090 L 1095,1090 L 1092,1090 L 1085,1091 L 1078,1096 L 1074,1102 L 1072,1110 L 1072,1113 L 1072,1359 L 1072,1362 L 1073,1369 L 1078,1376 L 1084,1381 L 1092,1382 L 1095,1383 L 1247,1383 L 1250,1382 L 1257,1381 L 1264,1377 L 1264,1376 L 1267,1373 L 1269,1370 L 1274,1362 L 1274,1362 L 1277,1358 L 1284,1349 L 1286,1347 L 1289,1344 L 1293,1348 L 1295,1350 L 1302,1359 L 1304,1362 L 1304,1363 L 1308,1369 L 1310,1371 L 1313,1375 L 1314,1376 L 1321,1381 L 1328,1382 L 1332,1383 L 1431,1383 L 1435,1383 L 1439,1385 L 1442,1387 L 1443,1388 L 1445,1389 L 1446,1390 L 1454,1394 L 1456,1395 L 1458,1396 L 1467,1398 L 1471,1399 L 1480,1400 L 1482,1400 L 1485,1401 L 1641,1401 L 1647,1401 L 1649,1402 L 1655,1403 L 1659,1404 L 1665,1406 L 1666,1410 L 1667,1414 L 1669,1421 L 1669,1423 L 1669,1429 L 1670,1475 L 1670,1478 L 1671,1485 L 1676,1492 L 1682,1497 L 1690,1498 L 1693,1499 L 1951,1499 L 1953,1499 L 1955,1499 L 1961,1499 L 1964,1500 L 1965,1501 L 1969,1505 L 1970,1506 L 1971,1507 L 1972,1508 L 1980,1514 L 1983,1516 L 1992,1521 L 1995,1523 L 1995,1523 L 2005,1526 L 2009,1527 L 2019,1528 L 2021,1528 L 2024,1529 L 2130,1529 L 2134,1529 L 2138,1529 L 2144,1530 L 2146,1531 L 2151,1532 L 2153,1533 L 2159,1536 L 2159,1537 L 2159,1541 L 2160,1551 L 2160,1551 L 2161,1555 L 2161,1559 L 2161,1567 L 2160,1573 L 2160,1575 L 2160,1575 L 2157,1580 L 2154,1583 L 2152,1586 L 2003,1734 L 2001,1737 L 2000,1738 L 1994,1746 L 1992,1749 L 1988,1757 L 1987,1758 L 1986,1760 L 1984,1769 L 1983,1773 L 1982,1782 L 1982,1784 L 1981,1787 L 1981,2028 L 1982,2031 L 1982,2033 L 1983,2042 L 1984,2046 L 1986,2055 L 1987,2057 L 1988,2059 L 1992,2067 L 1994,2070 L 2000,2077 L 2001,2079 L 2003,2081 L 2080,2158 L 2081,2159 L 2083,2161 L 2086,2166 L 2088,2168 L 2088,2169 L 2089,2177 L 2089,2458 L 2090,2461 L 2091,2468 L 2095,2475 L 2105,2481 L 2109,2483 L 2110,2483 L 2113,2485 L 2120,2488 L 2122,2490 L 2128,2494 L 2130,2495 L 2141,2505 L 2145,2509 L 2157,2522 L 2158,2524 L 376,2524 L 378,2521 L 382,2517 L 400,2499 L 404,2495 L 413,2489 L 415,2488 L 422,2484 L 425,2483 L 426,2483 L 430,2481 L 439,2476 L 444,2469 L 445,2461 L 445,2458 L 445,2055 L 445,2052 L 444,2045 L 439,2038 L 433,2033 L 425,2032 L 422,2031 L 34,2031 L 31,2032 L 21,2034 L 15,2036 L 13,2037 L 4,2041 L 0,2042 L 0,557 z " style="fill-opacity:0.300000;fill:rgb(153,146,72);"/></g>
<g fill-rule="evenodd"><path d="M 1321,1381 L 1314,1376 L 1313,1375 L 1310,1371 L 1308,1369 L 1304,1363 L 1304,1362 L 1302,1359 L 1295,1350 L 1293,1348 L 1289,1344 L 1289,1160 L 1310,1110 L 1317,1099 L 1328,1091 L 1364,1077 L 1365,1077 L 1374,1082 L 1376,1083 L 1383,1086 L 1387,1087 L 1396,1089 L 1400,1090 L 1404,1090 L 1483,1090 L 1486,1090 L 1494,1092 L 1500,1096 L 1505,1103 L 1506,1110 L 1506,1113 L 1507,1238 L 1507,1244 L 1507,1246 L 1509,1253 L 1510,1257 L 1511,1260 L 1512,1261 L 1517,1263 L 1521,1264 L 1529,1266 L 1533,1266 L 1537,1266 L 1639,1266 L 1643,1266 L 1647,1266 L 1653,1265 L 1655,1264 L 1662,1262 L 1665,1261 L 1665,1259 L 1667,1252 L 1668,1251 L 1669,1244 L 1669,1240 L 1670,1236 L 1670,1111 L 1670,1108 L 1671,1100 L 1676,1094 L 1683,1089 L 1690,1088 L 1693,1088 L 2057,1088 L 2060,1088 L 2068,1089 L 2075,1094 L 2079,1101 L 2080,1108 L 2081,1111 L 2081,1364 L 2081,1368 L 2081,1372 L 2083,1381 L 2084,1385 L 2085,1389 L 2091,1391 L 2095,1392 L 2103,1394 L 2107,1394 L 2111,1394 L 2209,1394 L 2213,1394 L 2217,1394 L 2225,1392 L 2229,1391 L 2235,1389 L 2236,1390 L 2248,1399 L 2260,1402 L 2264,1402 L 2265,1402 L 2275,1402 L 2277,1403 L 2287,1404 L 2290,1405 L 2300,1408 L 2304,1409 L 2314,1413 L 2319,1415 L 2321,1416 L 2321,1418 L 2321,1420 L 2323,1425 L 2323,1427 L 2324,1429 L 2324,1431 L 2325,1435 L 2326,1439 L 2327,1443 L 2328,1445 L 2330,1452 L 2330,1452 L 2331,1455 L 2332,1456 L 2334,1462 L 2335,1464 L 2336,1466 L 2339,1472 L 2339,1472 L 2342,1476 L 2346,1484 L 2350,1490 L 2351,1492 L 2354,1496 L 2364,1512 L 2370,1520 L 2371,1520 L 2366,1523 L 2356,1522 L 2338,1522 L 2325,1522 L 2312,1523 L 2305,1524 L 2299,1525 L 2295,1526 L 2290,1527 L 2280,1529 L 2276,1529 L 2272,1529 L 2268,1529 L 2266,1530 L 2266,1530 L 2264,1530 L 2234,1530 L 2233,1530 L 2228,1530 L 2181,1530 L 2170,1531 L 2159,1536 L 2153,1533 L 2151,1532 L 2146,1531 L 2144,1530 L 2138,1529 L 2134,1529 L 2130,1529 L 2024,1529 L 2021,1528 L 2019,1528 L 2009,1527 L 2005,1526 L 1995,1523 L 1995,1523 L 1992,1521 L 1983,1516 L 1980,1514 L 1972,1508 L 1971,1507 L 1970,1506 L 1969,1505 L 1965,1501 L 1964,1500 L 1961,1499 L 1955,1499 L 1953,1499 L 1951,1499 L 1693,1499 L 1690,1498 L 1682,1497 L 1676,1492 L 1671,1485 L 1670,1478 L 1670,1475 L 1669,1429 L 1669,1423 L 1669,1421 L 1667,1414 L 1666,1410 L 1665,1406 L 1659,1404 L 1655,1403 L 1649,1402 L 1647,1401 L 1641,1401 L 1485,1401 L 1482,1400 L 1480,1400 L 1471,1399 L 1467,1398 L 1458,1396 L 1456,1395 L 1454,1394 L 1446,1390 L 1445,1389 L 1443,1388 L 1442,1387 L 1439,1385 L 1435,1383 L 1431,1383 L 1332,1383 L 1328,1382 L 1321,1381 z " style="fill-opacity:0.300000;fill:rgb(51,98,65);"/></g>
<g fill-rule="evenodd"><path d="M 2526,2006 L 2526,2524 L 2158,2524 L 2157,2522 L 2145,2509 L 2141,2505 L 2130,2495 L 2128,2494 L 2122,2490 L 2120,2488 L 2113,2485 L 2110,2483 L 2109,2483 L 2105,2481 L 2095,2475 L 2091,2468 L 2090,2461 L 2089,2458 L 2089,2177 L 2088,2169 L 2088,2168 L 2086,2166 L 2083,2161 L 2081,2159 L 2080,2158 L 2003,2081 L 2001,2079 L 2000,2077 L 1994,2070 L 1992,2067 L 1988,2059 L 1987,2057 L 1986,2055 L 1984,2046 L 1983,2042 L 1982,2033 L 1982,2031 L 1981,2028 L 1981,1787 L 1982,1784 L 1982,1782 L 1983,1773 L 1984,1769 L 1986,1760 L 1987,1758 L 1988,1757 L 1992,1749 L 1994,1746 L 2000,1738 L 2001,1737 L 2003,1734 L 2152,1586 L 2154,1583 L 2157,1580 L 2160,1575 L 2160,1575 L 2160,1573 L 2161,1567 L 2161,1559 L 2161,1555 L 2160,1551 L 2160,1551 L 2159,1541 L 2159,1537 L 2159,1536 L 2170,1531 L 2181,1530 L 2228,1530 L 2233,1530 L 2234,1530 L 2264,1530 L 2266,1530 L 2266,1530 L 2268,1529 L 2272,1529 L 2276,1529 L 2280,1529 L 2290,1527 L 2295,1526 L 2299,1525 L 2305,1524 L 2312,1523 L 2325,1522 L 2338,1522 L 2356,1522 L 2366,1523 L 2362,1529 L 2352,1543 L 2349,1547 L 2348,1548 L 2344,1558 L 2341,1564 L 2340,1567 L 2339,1571 L 2337,1578 L 2337,1578 L 2336,1582 L 2334,1588 L 2334,1591 L 2334,1593 L 2333,1595 L 2333,1599 L 2332,1603 L 2332,1607 L 2330,1616 L 2329,1620 L 2328,1623 L 2324,1629 L 2322,1633 L 2317,1641 L 2314,1644 L 2313,1645 L 2307,1650 L 2303,1653 L 2295,1658 L 2292,1660 L 2291,1660 L 2282,1662 L 2278,1663 L 2271,1664 L 2268,1665 L 2267,1665 L 2266,1665 L 2264,1666 L 2263,1666 L 2257,1670 L 2212,1715 L 2210,1718 L 2207,1721 L 2204,1726 L 2203,1728 L 2199,1734 L 2198,1738 L 2194,1751 L 2193,1754 L 2181,1759 L 2172,1764 L 2164,1770 L 2158,1778 L 2153,1787 L 2139,1821 L 2139,1842 L 2141,1863 L 2148,1883 L 2161,1904 L 2178,1925 L 2178,1964 L 2178,1970 L 2198,1986 L 2219,1998 L 2240,2006 L 2260,2008 L 2306,2008 L 2312,2014 L 2314,2015 L 2324,2021 L 2328,2023 L 2338,2028 L 2342,2029 L 2351,2031 L 2355,2031 L 2359,2031 L 2399,2031 L 2403,2031 L 2407,2031 L 2413,2030 L 2415,2029 L 2419,2028 L 2421,2027 L 2429,2024 L 2433,2022 L 2446,2013 L 2450,2009 L 2452,2008 L 2497,2008 L 2503,2008 L 2526,2006 z " style="fill-opacity:0.300000;fill:rgb(243,13,35);"/></g>
<g fill-rule="evenodd"><path d="M 23,2461 L 23,2052 L 24,2050 L 24,2049 L 25,2047 L 26,2046 L 27,2045 L 28,2044 L 30,2044 L 31,2044 L 425,2044 L 426,2044 L 428,2044 L 429,2045 L 430,2046 L 431,2047 L 432,2049 L 433,2050 L 433,2052 L 433,2461 L 433,2463 L 432,2464 L 431,2466 L 430,2467 L 429,2468 L 428,2468 L 426,2469 L 425,2469 L 31,2469 L 30,2469 L 28,2468 L 27,2468 L 26,2467 L 25,2466 L 24,2464 L 24,2463 L 23,2461 z " style="fill-opacity:0.600000;fill:rgb(167,241,217);stroke:rgb(0,0,0);stroke-width:2"/></g>
<g fill-rule="evenodd"><path d="M 363,655 L 361,671 L 361,672 L 361,673 L 356,689 L 356,689 L 355,690 L 347,704 L 346,705 L 346,706 L 335,718 L 334,719 L 320,729 L 320,729 L 319,730 L 304,736 L 303,737 L 302,737 L 286,740 L 285,740 L 268,740 L 267,740 L 267,740 L 250,737 L 250,737 L 249,736 L 234,730 L 232,729 L 219,719 L 218,718 L 207,706 L 206,705 L 206,704 L 198,690 L 197,689 L 197,689 L 192,673 L 192,671 L 190,655 L 190,653 L 192,637 L 192,635 L 197,620 L 197,619 L 198,618 L 206,604 L 206,603 L 207,603 L 218,590 L 219,589 L 232,580 L 233,579 L 234,579 L 249,572 L 250,572 L 250,572 L 267,568 L 267,568 L 268,568 L 285,568 L 286,568 L 302,572 L 303,572 L 304,572 L 319,579 L 320,580 L 334,589 L 335,590 L 346,603 L 346,603 L 347,604 L 355,618 L 356,619 L 356,620 L 361,635 L 361,637 L 363,653 L 363,654 L 363,655 z " style="fill-opacity:0.600000;fill:rgb(42,130,200);stroke:rgb(0,0,0);stroke-width:2"/></g>
<g fill-rule="evenodd"><path d="M 2332,650 L 2330,667 L 2330,667 L 2330,668 L 2325,684 L 2325,685 L 2324,685 L 2316,700 L 2315,700 L 2315,701 L 2304,713 L 2303,714 L 2289,724 L 2289,724 L 2288,725 L 2273,732 L 2272,732 L 2271,732 L 2255,735 L 2254,736 L 2237,736 L 2236,736 L 2236,735 L 2219,732 L 2219,732 L 2218,732 L 2203,725 L 2201,724 L 2188,714 L 2187,713 L 2176,701 L 2175,700 L 2175,700 L 2167,685 L 2166,685 L 2166,684 L 2161,668 L 2161,667 L 2159,650 L 2159,649 L 2161,632 L 2161,631 L 2166,615 L 2166,614 L 2167,613 L 2175,599 L 2175,599 L 2176,598 L 2187,586 L 2188,585 L 2201,575 L 2202,574 L 2203,574 L 2218,567 L 2219,567 L 2219,567 L 2236,563 L 2236,563 L 2237,563 L 2254,563 L 2255,563 L 2271,567 L 2272,567 L 2273,567 L 2288,574 L 2289,575 L 2303,585 L 2304,586 L 2315,598 L 2315,599 L 2316,599 L 2324,613 L 2325,614 L 2325,615 L 2330,631 L 2330,632 L 2332,649 L 2332,649 L 2332,650 z " style="fill-opacity:0.600000;fill:rgb(216,254,67);stroke:rgb(0,0,0);stroke-width:2"/></g>
<g fill-rule="evenodd"><path d="M 2173,1842 L 2173,1787 L 2174,1786 L 2174,1784 L 2175,1783 L 2176,1782 L 2177,1781 L 2178,1780 L 2180,1780 L 2181,1779 L 2299,1779 L 2301,1780 L 2302,1780 L 2304,1781 L 2305,1782 L 2306,1783 L 2307,1784 L 2307,1786 L 2307,1787 L 2307,1842 L 2307,1844 L 2307,1845 L 2306,1847 L 2305,1848 L 2304,1849 L 2302,1850 L 2301,1850 L 2299,1850 L 2181,1850 L 2180,1850 L 2178,1850 L 2177,1849 L 2176,1848 L 2175,1847 L 2174,1845 L 2174,1844 L 2173,1842 z " style="fill-opacity:0.600000;fill:rgb(77,152,85);stroke:rgb(0,0,0);stroke-width:2"/></g>
<g fill-rule="evenodd"><path d="M 2426,1964 L 2426,1886 L 2426,1884 L 2427,1883 L 2428,1881 L 2428,1880 L 2430,1879 L 2431,1878 L 2433,1878 L 2434,1878 L 2497,1878 L 2499,1878 L 2500,1878 L 2501,1879 L 2503,1880 L 2504,1881 L 2504,1883 L 2505,1884 L 2505,1886 L 2505,1964 L 2505,1966 L 2504,1967 L 2504,1969 L 2503,1970 L 2501,1971 L 2500,1972 L 2499,1972 L 2497,1972 L 2434,1972 L 2433,1972 L 2431,1972 L 2430,1971 L 2428,1970 L 2428,1969 L 2427,1967 L 2426,1966 L 2426,1964 z " style="fill-opacity:0.600000;fill:rgb(140,226,179);stroke:rgb(0,0,0);stroke-width:2"/></g>
<g fill-rule="evenodd"><path d="M 2426,1390 L 2426,1311 L 2426,1309 L 2427,1308 L 2428,1307 L 2428,1305 L 2430,1304 L 2431,1304 L 2433,1303 L 2434,1303 L 2497,1303 L 2499,1303 L 2500,1304 L 2501,1304 L 2503,1305 L 2504,1307 L 2504,1308 L 2505,1309 L 2505,1311 L 2505,1390 L 2505,1391 L 2504,1393 L 2504,1394 L 2503,1395 L 2501,1396 L 2500,1397 L 2499,1397 L 2497,1398 L 2434,1398 L 2433,1397 L 2431,1397 L 2430,1396 L 2428,1395 L 2428,1394 L 2427,1393 L 2426,1391 L 2426,1390 z " style="fill-opacity:0.600000;fill:rgb(71,23,17);stroke:rgb(0,0,0);stroke-width:2"/></g>
<g fill-rule="evenodd"><path d="M 2252,1390 L 2252,1311 L 2252,1309 L 2253,1308 L 2254,1307 L 2255,1305 L 2256,1304 L 2257,1304 L 2259,1303 L 2260,1303 L 2323,1303 L 2325,1303 L 2326,1304 L 2327,1304 L 2329,1305 L 2330,1307 L 2330,1308 L 2331,1309 L 2331,1311 L 2331,1390 L 2331,1391 L 2330,1393 L 2330,1394 L 2329,1395 L 2327,1396 L 2326,1397 L 2325,1397 L 2323,1398 L 2260,1398 L 2259,1397 L 2257,1397 L 2256,1396 L 2255,1395 L 2254,1394 L 2253,1393 L 2252,1391 L 2252,1390 z " style="fill-opacity:0.600000;fill:rgb(152,84,47);stroke:rgb(0,0,0);stroke-width:2"/></g>
<g fill-rule="evenodd"><path d="M 2252,1964 L 2252,1886 L 2252,1884 L 2253,1883 L 2254,1881 L 2255,1880 L 2256,1879 L 2257,1878 L 2259,1878 L 2260,1878 L 2323,1878 L 2325,1878 L 2326,1878 L 2327,1879 L 2329,1880 L 2330,1881 L 2330,1883 L 2331,1884 L 2331,1886 L 2331,1964 L 2331,1966 L 2330,1967 L 2330,1969 L 2329,1970 L 2327,1971 L 2326,1972 L 2325,1972 L 2323,1972 L 2260,1972 L 2259,1972 L 2257,1972 L 2256,1971 L 2255,1970 L 2254,1969 L 2253,1967 L 2252,1966 L 2252,1964 z " style="fill-opacity:0.600000;fill:rgb(17,45,5);stroke:rgb(0,0,0);stroke-width:2"/></g>
<g fill-rule="evenodd"><path d="M 851,1168 L 851,1480 L 851,1482 L 851,1483 L 850,1485 L 849,1486 L 848,1487 L 846,1488 L 845,1488 L 843,1488 L 473,1488 L 472,1488 L 470,1488 L 469,1487 L 468,1486 L 467,1485 L 466,1483 L 466,1482 L 465,1480 L 465,1110 L 466,1109 L 466,1107 L 467,1106 L 468,1105 L 469,1104 L 470,1103 L 472,1103 L 473,1103 L 828,1103 L 1104,827 L 1104,826 L 1108,823 L 1109,822 L 1113,820 L 1115,820 L 1119,818 L 1121,818 L 1125,818 L 1126,818 L 1165,818 L 1165,807 L 1165,806 L 1166,804 L 1167,803 L 1167,802 L 1167,723 L 1167,722 L 1166,721 L 1165,719 L 1165,718 L 1165,634 L 1165,633 L 1166,631 L 1167,630 L 1167,629 L 1167,558 L 1111,502 L 1043,502 L 1041,502 L 1040,502 L 1038,501 L 1037,500 L 1036,499 L 1035,497 L 1035,496 L 1035,494 L 1035,368 L 1035,367 L 1035,365 L 1036,364 L 1037,363 L 1038,362 L 1040,361 L 1041,361 L 1043,361 L 1090,361 L 1090,238 L 1090,237 L 1090,232 L 1091,231 L 1092,226 L 1092,225 L 1095,221 L 1095,220 L 1096,219 L 1098,217 L 1098,119 L 1098,118 L 1099,116 L 1099,115 L 1100,114 L 1101,113 L 1103,112 L 1104,112 L 1106,112 L 1240,112 L 1241,112 L 1243,112 L 1244,113 L 1245,114 L 1246,115 L 1247,116 L 1247,118 L 1248,119 L 1248,253 L 1247,255 L 1247,256 L 1246,258 L 1245,259 L 1244,260 L 1243,260 L 1241,261 L 1240,261 L 1153,261 L 1153,361 L 1200,361 L 1202,361 L 1203,361 L 1204,362 L 1206,363 L 1207,364 L 1207,365 L 1208,367 L 1208,368 L 1208,494 L 1208,496 L 1207,497 L 1207,499 L 1206,500 L 1204,501 L 1203,502 L 1202,502 L 1200,502 L 1221,523 L 1221,524 L 1224,527 L 1225,529 L 1227,533 L 1228,534 L 1229,538 L 1230,540 L 1230,545 L 1230,545 L 1230,629 L 1231,630 L 1232,631 L 1232,633 L 1232,634 L 1232,644 L 1315,644 L 1315,634 L 1315,633 L 1315,631 L 1316,630 L 1317,629 L 1318,628 L 1320,627 L 1321,626 L 1323,626 L 1374,626 L 1375,626 L 1377,627 L 1378,628 L 1379,629 L 1380,630 L 1381,631 L 1382,633 L 1382,634 L 1382,718 L 1382,719 L 1381,721 L 1380,722 L 1379,723 L 1378,724 L 1377,725 L 1375,725 L 1374,725 L 1323,725 L 1321,725 L 1320,725 L 1318,724 L 1317,723 L 1316,722 L 1315,721 L 1315,719 L 1315,718 L 1315,707 L 1232,707 L 1232,718 L 1232,719 L 1232,721 L 1231,722 L 1230,723 L 1230,802 L 1231,803 L 1232,804 L 1232,806 L 1232,807 L 1232,891 L 1232,892 L 1232,894 L 1231,895 L 1230,896 L 1229,897 L 1227,898 L 1226,898 L 1224,899 L 1173,899 L 1172,898 L 1170,898 L 1169,897 L 1168,896 L 1167,895 L 1166,894 L 1165,892 L 1165,891 L 1165,881 L 1139,881 L 851,1168 z " style="fill-opacity:0.600000;fill:rgb(88,245,107);stroke:rgb(0,0,0);stroke-width:2"/></g>
<g fill-rule="evenodd"><path d="M 1213,1102 L 1318,998 L 1318,944 L 1317,939 L 1317,938 L 1317,896 L 1316,895 L 1315,894 L 1315,892 L 1315,891 L 1315,807 L 1315,806 L 1315,804 L 1316,803 L 1317,802 L 1318,801 L 1320,800 L 1321,800 L 1323,799 L 1374,799 L 1375,800 L 1377,800 L 1378,801 L 1379,802 L 1380,803 L 1381,804 L 1382,806 L 1382,807 L 1382,891 L 1382,892 L 1381,894 L 1380,895 L 1380,896 L 1380,932 L 1380,933 L 1380,934 L 1381,938 L 1381,939 L 1381,1011 L 1381,1012 L 1380,1016 L 1380,1018 L 1378,1022 L 1378,1024 L 1376,1028 L 1375,1029 L 1372,1033 L 1371,1033 L 1258,1147 L 1258,1362 L 1257,1364 L 1257,1365 L 1256,1367 L 1255,1368 L 1254,1369 L 1253,1369 L 1251,1370 L 1250,1370 L 1092,1370 L 1091,1370 L 1089,1369 L 1088,1369 L 1087,1368 L 1086,1367 L 1085,1365 L 1085,1364 L 1084,1362 L 1084,1110 L 1085,1109 L 1085,1107 L 1086,1106 L 1087,1105 L 1088,1104 L 1089,1103 L 1091,1102 L 1092,1102 L 1213,1102 z " style="fill-opacity:0.600000;fill:rgb(214,136,7);stroke:rgb(0,0,0);stroke-width:2"/></g>
<g fill-rule="evenodd"><path d="M 2088,2524 L 447,2524 L 445,2524 L 441,2523 L 440,2523 L 439,2523 L 437,2522 L 436,2521 L 436,2520 L 433,2518 L 432,2517 L 431,2516 L 431,2514 L 430,2513 L 430,2512 L 429,2508 L 429,2506 L 429,2505 L 430,2501 L 430,2500 L 431,2499 L 432,2497 L 432,2496 L 433,2495 L 436,2492 L 437,2491 L 448,2485 L 455,2474 L 458,2459 L 458,2053 L 455,2040 L 448,2029 L 438,2022 L 423,2019 L 33,2019 L 19,2021 L 18,2021 L 16,2021 L 14,2021 L 13,2021 L 12,2020 L 9,2019 L 8,2018 L 7,2018 L 5,2016 L 4,2016 L 4,2015 L 2,2012 L 1,2010 L 0,2009 L 0,2005 L 0,2003 L 0,1265 L 0,1263 L 96,782 L 96,780 L 98,777 L 98,775 L 147,703 L 148,702 L 150,699 L 151,698 L 153,697 L 156,696 L 158,695 L 159,695 L 163,695 L 165,695 L 166,696 L 168,696 L 169,697 L 170,697 L 173,699 L 174,700 L 175,702 L 177,705 L 178,706 L 182,717 L 214,748 L 254,765 L 298,765 L 339,748 L 370,717 L 387,676 L 387,632 L 370,592 L 339,560 L 299,543 L 287,543 L 286,543 L 284,543 L 283,543 L 282,543 L 278,541 L 277,540 L 276,539 L 273,537 L 272,535 L 271,534 L 270,530 L 269,529 L 269,527 L 269,524 L 269,522 L 270,521 L 271,517 L 272,516 L 369,370 L 370,369 L 371,368 L 778,96 L 780,95 L 781,95 L 1259,0 L 1261,0 L 1264,0 L 1266,0 L 1742,94 L 1743,95 L 1745,95 L 1746,96 L 1747,96 L 2154,368 L 2155,369 L 2156,370 L 2250,511 L 2251,512 L 2252,516 L 2253,517 L 2253,518 L 2253,520 L 2253,521 L 2253,523 L 2253,525 L 2252,526 L 2251,529 L 2250,530 L 2249,531 L 2248,533 L 2247,534 L 2247,534 L 2243,537 L 2242,537 L 2240,538 L 2237,538 L 2235,539 L 2223,539 L 2183,555 L 2151,587 L 2135,627 L 2135,671 L 2151,712 L 2183,743 L 2223,760 L 2267,760 L 2308,743 L 2339,712 L 2344,701 L 2345,700 L 2347,697 L 2347,696 L 2348,695 L 2350,694 L 2351,693 L 2352,693 L 2355,691 L 2357,691 L 2358,691 L 2362,691 L 2364,691 L 2365,691 L 2369,693 L 2370,693 L 2371,694 L 2374,697 L 2375,698 L 2427,775 L 2427,777 L 2429,780 L 2429,782 L 2524,1260 L 2525,1262 L 2525,1263 L 2524,1265 L 2524,1266 L 2524,1267 L 2522,1271 L 2522,1272 L 2521,1273 L 2518,1276 L 2517,1277 L 2515,1278 L 2512,1279 L 2510,1280 L 2509,1280 L 2505,1280 L 2503,1279 L 2495,1278 L 2436,1278 L 2422,1280 L 2411,1288 L 2404,1298 L 2401,1313 L 2401,1388 L 2403,1402 L 2411,1413 L 2421,1420 L 2436,1423 L 2495,1423 L 2506,1421 L 2507,1421 L 2509,1421 L 2510,1421 L 2512,1421 L 2513,1422 L 2516,1423 L 2518,1424 L 2519,1425 L 2522,1428 L 2523,1429 L 2523,1430 L 2525,1434 L 2525,1435 L 2525,1437 L 2525,1837 L 2525,1838 L 2525,1842 L 2524,1843 L 2524,1844 L 2523,1846 L 2522,1847 L 2521,1848 L 2519,1851 L 2518,1852 L 2517,1852 L 2515,1853 L 2514,1854 L 2513,1854 L 2509,1855 L 2508,1855 L 2506,1855 L 2495,1853 L 2436,1853 L 2422,1855 L 2411,1862 L 2404,1873 L 2401,1888 L 2401,1963 L 2403,1976 L 2411,1988 L 2413,1990 L 2413,1991 L 2414,1992 L 2415,1993 L 2415,1994 L 2416,1996 L 2416,1999 L 2417,2001 L 2416,2002 L 2416,2006 L 2415,2008 L 2414,2009 L 2412,2012 L 2412,2013 L 2411,2014 L 2409,2015 L 2408,2016 L 2406,2017 L 2405,2017 L 2404,2018 L 2400,2019 L 2399,2019 L 2359,2019 L 2357,2019 L 2353,2018 L 2352,2017 L 2351,2017 L 2347,2014 L 2346,2013 L 2345,2012 L 2343,2009 L 2342,2008 L 2342,2007 L 2341,2005 L 2341,2004 L 2341,2003 L 2341,1999 L 2341,1997 L 2342,1996 L 2343,1992 L 2344,1991 L 2353,1977 L 2356,1963 L 2356,1887 L 2354,1874 L 2346,1863 L 2338,1857 L 2337,1856 L 2336,1855 L 2334,1852 L 2334,1850 L 2333,1849 L 2332,1845 L 2332,1844 L 2332,1843 L 2333,1836 L 2333,1835 L 2333,1831 L 2334,1830 L 2335,1828 L 2337,1825 L 2338,1824 L 2338,1823 L 2340,1822 L 2341,1821 L 2342,1821 L 2345,1819 L 2347,1819 L 2348,1819 L 2350,1819 L 2351,1819 L 2352,1819 L 2356,1820 L 2357,1820 L 2365,1823 L 2392,1823 L 2417,1813 L 2436,1794 L 2446,1769 L 2447,1742 L 2436,1718 L 2417,1699 L 2392,1688 L 2366,1688 L 2341,1699 L 2322,1718 L 2311,1743 L 2310,1745 L 2308,1748 L 2307,1749 L 2306,1750 L 2303,1752 L 2301,1753 L 2300,1753 L 2296,1754 L 2295,1754 L 2232,1754 L 2230,1754 L 2229,1753 L 2225,1752 L 2224,1751 L 2222,1750 L 2220,1747 L 2219,1746 L 2218,1745 L 2216,1741 L 2216,1740 L 2216,1738 L 2216,1734 L 2216,1733 L 2216,1732 L 2217,1730 L 2217,1729 L 2218,1728 L 2220,1725 L 2221,1724 L 2266,1679 L 2267,1678 L 2268,1677 L 2272,1676 L 2273,1675 L 2296,1671 L 2322,1654 L 2339,1628 L 2344,1602 L 2345,1600 L 2346,1596 L 2347,1595 L 2348,1594 L 2351,1591 L 2352,1590 L 2353,1590 L 2354,1589 L 2355,1588 L 2356,1588 L 2360,1587 L 2362,1587 L 2392,1587 L 2417,1577 L 2436,1558 L 2446,1533 L 2447,1506 L 2436,1481 L 2417,1462 L 2392,1452 L 2366,1452 L 2363,1453 L 2361,1454 L 2357,1454 L 2356,1455 L 2355,1455 L 2353,1454 L 2352,1454 L 2351,1454 L 2347,1452 L 2346,1452 L 2345,1451 L 2344,1450 L 2343,1449 L 2342,1448 L 2340,1445 L 2339,1444 L 2339,1442 L 2337,1433 L 2337,1432 L 2337,1431 L 2337,1427 L 2337,1426 L 2337,1425 L 2338,1423 L 2338,1422 L 2339,1421 L 2341,1417 L 2342,1416 L 2343,1415 L 2346,1413 L 2353,1402 L 2356,1388 L 2356,1313 L 2354,1299 L 2347,1288 L 2336,1281 L 2321,1278 L 2262,1278 L 2248,1280 L 2237,1288 L 2230,1298 L 2227,1313 L 2227,1366 L 2227,1368 L 2226,1369 L 2225,1373 L 2224,1374 L 2223,1375 L 2222,1376 L 2221,1377 L 2221,1378 L 2217,1380 L 2216,1381 L 2214,1381 L 2211,1382 L 2209,1382 L 2111,1382 L 2109,1382 L 2106,1381 L 2104,1381 L 2103,1380 L 2100,1378 L 2098,1377 L 2097,1376 L 2095,1372 L 2095,1371 L 2094,1369 L 2093,1366 L 2093,1364 L 2093,1110 L 2091,1096 L 2084,1085 L 2073,1078 L 2058,1075 L 1692,1075 L 1678,1077 L 1667,1085 L 1660,1095 L 1657,1110 L 1657,1236 L 1657,1238 L 1656,1242 L 1656,1243 L 1655,1244 L 1654,1245 L 1654,1246 L 1653,1247 L 1650,1250 L 1649,1251 L 1648,1251 L 1647,1252 L 1646,1253 L 1644,1253 L 1641,1254 L 1639,1254 L 1537,1254 L 1535,1254 L 1532,1253 L 1530,1253 L 1529,1252 L 1525,1250 L 1524,1249 L 1523,1248 L 1521,1244 L 1521,1243 L 1520,1242 L 1520,1240 L 1519,1239 L 1519,1238 L 1519,1112 L 1516,1098 L 1509,1087 L 1499,1080 L 1484,1077 L 1404,1077 L 1402,1077 L 1398,1076 L 1397,1076 L 1395,1075 L 1392,1073 L 1391,1072 L 1390,1071 L 1389,1070 L 1389,1069 L 1388,1068 L 1387,1064 L 1386,1063 L 1386,1062 L 1386,1060 L 1386,1059 L 1386,1058 L 1387,1054 L 1387,1052 L 1388,1051 L 1400,1032 L 1405,1009 L 1405,940 L 1404,936 L 1404,935 L 1404,905 L 1404,904 L 1407,889 L 1407,809 L 1404,796 L 1397,784 L 1385,776 L 1384,775 L 1383,774 L 1381,770 L 1380,769 L 1380,767 L 1379,764 L 1379,762 L 1379,761 L 1380,757 L 1380,755 L 1381,754 L 1383,751 L 1384,750 L 1385,749 L 1397,741 L 1404,730 L 1407,716 L 1407,636 L 1404,622 L 1397,611 L 1387,604 L 1372,601 L 1324,601 L 1311,604 L 1300,611 L 1297,614 L 1297,615 L 1296,615 L 1294,617 L 1293,617 L 1292,618 L 1289,619 L 1287,620 L 1286,620 L 1270,620 L 1269,620 L 1267,619 L 1264,618 L 1262,617 L 1261,616 L 1258,613 L 1258,612 L 1257,611 L 1256,610 L 1256,609 L 1255,608 L 1255,604 L 1254,602 L 1254,547 L 1250,524 L 1236,504 L 1235,502 L 1234,499 L 1234,497 L 1233,496 L 1233,370 L 1231,357 L 1224,346 L 1213,338 L 1198,335 L 1195,335 L 1193,335 L 1189,334 L 1188,334 L 1187,333 L 1183,331 L 1182,330 L 1182,330 L 1180,328 L 1180,327 L 1179,325 L 1178,324 L 1178,323 L 1177,319 L 1177,317 L 1177,302 L 1177,301 L 1178,299 L 1179,296 L 1180,294 L 1181,293 L 1184,290 L 1185,290 L 1186,289 L 1187,288 L 1188,288 L 1189,287 L 1193,286 L 1195,286 L 1238,286 L 1251,284 L 1262,277 L 1270,266 L 1271,261 L 1271,259 L 1273,255 L 1274,254 L 1275,253 L 1278,250 L 1279,249 L 1280,248 L 1284,247 L 1285,246 L 1287,246 L 1291,246 L 1292,247 L 1293,247 L 1295,248 L 1297,248 L 1298,249 L 1299,250 L 1300,251 L 1314,266 L 1344,280 L 1345,279 L 1345,256 L 1344,255 L 1342,255 L 1331,248 L 1329,247 L 1319,238 L 1318,237 L 1310,227 L 1309,225 L 1303,213 L 1302,212 L 1299,198 L 1299,197 L 1298,183 L 1298,182 L 1300,168 L 1301,167 L 1305,154 L 1306,153 L 1313,141 L 1314,140 L 1323,130 L 1325,129 L 1336,121 L 1337,121 L 1345,117 L 1345,93 L 1344,93 L 1314,107 L 1300,122 L 1299,123 L 1298,123 L 1297,124 L 1295,125 L 1293,126 L 1292,126 L 1290,126 L 1288,126 L 1286,126 L 1285,126 L 1283,125 L 1281,125 L 1279,124 L 1278,123 L 1277,122 L 1275,121 L 1274,119 L 1273,118 L 1272,116 L 1272,114 L 1271,112 L 1271,112 L 1270,108 L 1263,97 L 1252,89 L 1238,86 L 1107,86 L 1094,89 L 1083,96 L 1076,107 L 1073,121 L 1073,207 L 1073,209 L 1072,213 L 1071,214 L 1071,215 L 1070,216 L 1065,240 L 1065,319 L 1065,321 L 1065,322 L 1063,326 L 1063,327 L 1062,328 L 1061,330 L 1060,330 L 1059,331 L 1056,333 L 1054,334 L 1053,334 L 1049,335 L 1048,335 L 1044,335 L 1031,338 L 1020,345 L 1012,356 L 1010,370 L 1010,493 L 1012,506 L 1019,517 L 1030,525 L 1044,528 L 1095,528 L 1096,528 L 1100,528 L 1102,529 L 1103,530 L 1106,532 L 1107,533 L 1138,563 L 1139,564 L 1141,568 L 1142,569 L 1142,570 L 1143,574 L 1143,576 L 1143,620 L 1143,621 L 1140,636 L 1140,716 L 1143,732 L 1143,733 L 1143,776 L 1143,777 L 1142,781 L 1142,782 L 1141,784 L 1139,787 L 1138,788 L 1137,789 L 1133,791 L 1132,792 L 1131,793 L 1105,798 L 1085,811 L 824,1072 L 823,1073 L 820,1075 L 818,1076 L 817,1076 L 813,1077 L 811,1077 L 475,1077 L 462,1080 L 451,1087 L 443,1098 L 440,1112 L 440,1479 L 443,1492 L 450,1503 L 461,1511 L 475,1514 L 842,1514 L 855,1511 L 866,1504 L 874,1493 L 876,1479 L 876,1185 L 877,1183 L 877,1179 L 878,1178 L 878,1177 L 879,1175 L 880,1174 L 880,1174 L 1135,919 L 1136,918 L 1138,917 L 1141,916 L 1143,915 L 1144,915 L 1148,915 L 1150,915 L 1151,916 L 1155,917 L 1156,918 L 1160,921 L 1175,924 L 1223,924 L 1234,922 L 1235,922 L 1236,922 L 1238,922 L 1239,922 L 1240,922 L 1241,923 L 1242,923 L 1242,896 L 1241,895 L 1241,894 L 1240,892 L 1240,891 L 1240,807 L 1240,806 L 1241,804 L 1241,803 L 1242,802 L 1244,801 L 1245,800 L 1246,800 L 1248,799 L 1299,799 L 1301,800 L 1302,800 L 1303,801 L 1305,802 L 1306,803 L 1306,804 L 1307,806 L 1307,807 L 1307,891 L 1307,892 L 1306,894 L 1306,895 L 1305,896 L 1305,938 L 1305,939 L 1305,943 L 1304,945 L 1303,949 L 1302,951 L 1300,955 L 1299,956 L 1296,960 L 1296,960 L 1293,963 L 1293,980 L 1293,982 L 1292,986 L 1292,987 L 1292,988 L 1291,990 L 1290,991 L 1289,991 L 1208,1073 L 1207,1074 L 1206,1074 L 1204,1075 L 1203,1076 L 1202,1076 L 1198,1077 L 1197,1077 L 1094,1077 L 1080,1080 L 1069,1087 L 1062,1097 L 1059,1112 L 1059,1360 L 1062,1374 L 1069,1385 L 1080,1392 L 1094,1395 L 1248,1395 L 1262,1393 L 1273,1386 L 1274,1383 L 1275,1382 L 1278,1379 L 1279,1378 L 1281,1378 L 1284,1376 L 1285,1376 L 1287,1376 L 1288,1375 L 1290,1375 L 1292,1376 L 1293,1376 L 1294,1376 L 1298,1378 L 1299,1378 L 1300,1379 L 1301,1380 L 1302,1381 L 1303,1382 L 1305,1385 L 1316,1392 L 1330,1395 L 1431,1395 L 1433,1396 L 1434,1396 L 1438,1398 L 1439,1398 L 1451,1406 L 1483,1413 L 1641,1413 L 1642,1413 L 1643,1413 L 1645,1414 L 1646,1414 L 1647,1415 L 1650,1417 L 1652,1418 L 1653,1419 L 1655,1422 L 1655,1423 L 1656,1425 L 1656,1426 L 1657,1428 L 1657,1429 L 1657,1476 L 1659,1490 L 1667,1501 L 1677,1508 L 1692,1511 L 1951,1511 L 1952,1511 L 1954,1511 L 1955,1512 L 1956,1512 L 1960,1513 L 1961,1514 L 1962,1515 L 1964,1517 L 1990,1534 L 2022,1541 L 2130,1541 L 2132,1541 L 2136,1542 L 2137,1542 L 2138,1542 L 2140,1543 L 2141,1544 L 2142,1545 L 2143,1546 L 2144,1547 L 2146,1550 L 2147,1552 L 2147,1553 L 2148,1557 L 2148,1558 L 2148,1559 L 2148,1567 L 2148,1568 L 2148,1569 L 2147,1571 L 2147,1572 L 2146,1573 L 2144,1576 L 2143,1577 L 1994,1727 L 1975,1754 L 1969,1786 L 1969,2030 L 1975,2062 L 1994,2089 L 2071,2166 L 2072,2167 L 2073,2169 L 2074,2170 L 2074,2171 L 2076,2174 L 2076,2176 L 2076,2177 L 2077,2459 L 2079,2473 L 2086,2484 L 2098,2492 L 2099,2493 L 2102,2496 L 2102,2496 L 2103,2497 L 2104,2499 L 2104,2501 L 2105,2502 L 2105,2504 L 2105,2505 L 2105,2509 L 2105,2510 L 2105,2512 L 2103,2515 L 2102,2516 L 2101,2518 L 2099,2520 L 2098,2521 L 2097,2522 L 2095,2523 L 2094,2523 L 2093,2523 L 2089,2524 L 2088,2524M 1255,2461 L 1086,2461 L 1085,2461 L 1083,2461 L 1082,2460 L 1081,2459 L 1080,2458 L 1079,2456 L 1079,2455 L 1078,2453 L 1078,2284 L 1056,2284 L 1054,2286 L 1054,2460 L 1059,2471 L 1068,2481 L 1080,2485 L 1253,2485 L 1255,2483 L 1255,2461M 1255,2052 L 1255,2030 L 1253,2028 L 1080,2028 L 1068,2032 L 1059,2041 L 1054,2053 L 1054,2227 L 1056,2229 L 1078,2229 L 1078,2060 L 1079,2058 L 1079,2057 L 1080,2055 L 1081,2054 L 1082,2053 L 1083,2052 L 1085,2052 L 1086,2052 L 1255,2052M 628,873 L 631,871 L 631,849 L 473,849 L 472,849 L 470,848 L 469,848 L 468,847 L 467,846 L 466,844 L 466,843 L 465,841 L 465,684 L 443,684 L 441,686 L 441,848 L 446,859 L 455,868 L 467,873 L 628,873M 628,439 L 467,439 L 455,444 L 446,453 L 441,465 L 441,626 L 443,628 L 465,628 L 465,471 L 466,470 L 466,468 L 467,467 L 468,466 L 469,465 L 470,464 L 472,463 L 473,463 L 631,463 L 631,441 L 628,439M 851,628 L 873,628 L 876,626 L 876,465 L 871,453 L 862,444 L 850,439 L 688,439 L 686,441 L 686,463 L 843,463 L 845,463 L 846,464 L 848,465 L 849,466 L 850,467 L 851,468 L 851,470 L 851,471 L 851,628M 688,873 L 850,873 L 862,868 L 871,859 L 876,848 L 876,686 L 873,684 L 851,684 L 851,841 L 851,843 L 851,844 L 850,846 L 849,847 L 848,848 L 846,848 L 845,849 L 843,849 L 686,849 L 686,871 L 688,873M 1488,2229 L 1510,2229 L 1512,2227 L 1512,2053 L 1507,2041 L 1498,2032 L 1486,2028 L 1313,2028 L 1311,2030 L 1311,2052 L 1480,2052 L 1481,2052 L 1483,2052 L 1484,2053 L 1485,2054 L 1486,2055 L 1487,2057 L 1488,2058 L 1488,2060 L 1488,2229M 1313,2485 L 1486,2485 L 1498,2481 L 1507,2471 L 1512,2460 L 1512,2286 L 1510,2284 L 1488,2284 L 1488,2453 L 1488,2455 L 1487,2456 L 1486,2458 L 1485,2459 L 1484,2460 L 1483,2461 L 1481,2461 L 1480,2461 L 1311,2461 L 1311,2483 L 1313,2485M 1682,626 L 1682,469 L 1682,467 L 1683,466 L 1683,464 L 1684,463 L 1686,462 L 1687,461 L 1688,461 L 1690,461 L 1847,461 L 1847,439 L 1845,437 L 1684,437 L 1672,442 L 1663,451 L 1658,462 L 1658,624 L 1660,626 L 1682,626M 1684,871 L 1845,871 L 1847,869 L 1847,847 L 1690,847 L 1688,847 L 1687,846 L 1686,845 L 1684,844 L 1683,843 L 1683,842 L 1682,840 L 1682,839 L 1682,682 L 1660,682 L 1658,684 L 1658,845 L 1663,857 L 1672,866 L 1684,871M 1325,501 L 1330,513 L 1339,522 L 1351,527 L 1406,527 L 1408,525 L 1408,502 L 1358,502 L 1356,502 L 1355,502 L 1353,501 L 1352,500 L 1351,499 L 1350,497 L 1350,496 L 1350,494 L 1350,459 L 1327,459 L 1325,461 L 1325,501M 1339,341 L 1330,350 L 1325,362 L 1325,402 L 1327,404 L 1350,404 L 1350,368 L 1350,367 L 1350,365 L 1351,364 L 1352,363 L 1353,362 L 1355,361 L 1356,361 L 1358,361 L 1408,361 L 1408,338 L 1406,336 L 1351,336 L 1339,341M 1547,501 L 1547,461 L 1545,459 L 1523,459 L 1523,494 L 1523,496 L 1522,497 L 1522,499 L 1521,500 L 1519,501 L 1518,502 L 1517,502 L 1515,502 L 1464,502 L 1464,525 L 1466,527 L 1521,527 L 1533,522 L 1542,513 L 1547,501M 1466,336 L 1464,338 L 1464,361 L 1515,361 L 1517,361 L 1518,361 L 1519,362 L 1521,363 L 1522,364 L 1522,365 L 1523,367 L 1523,368 L 1523,404 L 1545,404 L 1547,402 L 1547,362 L 1542,350 L 1533,341 L 1521,336 L 1466,336M 1401,280 L 1431,266 L 1457,237 L 1466,215 L 1466,214 L 1442,214 L 1440,219 L 1439,220 L 1432,231 L 1431,233 L 1422,243 L 1421,244 L 1410,251 L 1408,252 L 1401,255 L 1401,279 L 1401,280M 1401,93 L 1401,93 L 1401,117 L 1401,117 L 1403,118 L 1415,124 L 1416,125 L 1426,134 L 1427,135 L 1436,146 L 1437,147 L 1442,158 L 1466,158 L 1466,157 L 1457,136 L 1431,107 L 1401,93M 2068,626 L 2090,626 L 2092,624 L 2092,462 L 2087,451 L 2078,442 L 2066,437 L 1905,437 L 1903,439 L 1903,461 L 2060,461 L 2062,461 L 2063,461 L 2064,462 L 2066,463 L 2067,464 L 2067,466 L 2068,467 L 2068,469 L 2068,626M 1905,871 L 2066,871 L 2078,866 L 2087,857 L 2092,845 L 2092,684 L 2090,682 L 2068,682 L 2068,839 L 2068,840 L 2067,842 L 2067,843 L 2066,844 L 2064,845 L 2063,846 L 2062,847 L 2060,847 L 1903,847 L 1903,869 L 1905,871 z " style="fill-opacity:0.600000;fill:rgb(153,146,72);stroke:rgb(0,0,0);stroke-width:2"/></g>
<g fill-rule="evenodd"><path d="M 1972,1486 L 1690,1486 L 1688,1486 L 1687,1485 L 1686,1485 L 1684,1484 L 1683,1482 L 1683,1481 L 1682,1480 L 1682,1478 L 1682,1389 L 1482,1389 L 1481,1389 L 1472,1388 L 1470,1387 L 1461,1385 L 1460,1384 L 1452,1380 L 1450,1379 L 1443,1373 L 1443,1372 L 1440,1370 L 1328,1370 L 1327,1370 L 1325,1369 L 1324,1369 L 1323,1368 L 1322,1367 L 1321,1365 L 1321,1364 L 1321,1362 L 1321,1110 L 1321,1109 L 1321,1107 L 1322,1106 L 1323,1105 L 1324,1104 L 1325,1103 L 1327,1102 L 1328,1102 L 1486,1102 L 1487,1102 L 1489,1103 L 1490,1104 L 1491,1105 L 1492,1106 L 1493,1107 L 1494,1109 L 1494,1110 L 1494,1268 L 1504,1278 L 1682,1278 L 1682,1108 L 1682,1107 L 1683,1105 L 1683,1104 L 1684,1102 L 1686,1101 L 1687,1101 L 1688,1100 L 1690,1100 L 2060,1100 L 2062,1100 L 2063,1101 L 2064,1101 L 2066,1102 L 2067,1104 L 2067,1105 L 2068,1107 L 2068,1108 L 2068,1406 L 2264,1406 L 2264,1406 L 2274,1407 L 2276,1408 L 2285,1411 L 2286,1411 L 2287,1411 L 2295,1416 L 2296,1417 L 2297,1417 L 2304,1424 L 2305,1424 L 2305,1425 L 2311,1433 L 2312,1435 L 2316,1444 L 2316,1444 L 2316,1445 L 2318,1455 L 2318,1456 L 2318,1456 L 2318,1466 L 2318,1468 L 2316,1478 L 2316,1479 L 2312,1488 L 2311,1489 L 2311,1490 L 2305,1498 L 2304,1499 L 2297,1505 L 2296,1506 L 2295,1506 L 2287,1511 L 2286,1512 L 2285,1512 L 2276,1515 L 2274,1515 L 2264,1516 L 2264,1516 L 2021,1516 L 2020,1516 L 2010,1515 L 2008,1515 L 1999,1512 L 1998,1512 L 1997,1511 L 1989,1506 L 1988,1506 L 1988,1505 L 1980,1499 L 1979,1498 L 1973,1490 L 1973,1489 L 1973,1488 L 1972,1486 z " style="fill-opacity:0.600000;fill:rgb(51,98,65);stroke:rgb(0,0,0);stroke-width:2"/></g>
<g fill-rule="evenodd"><path d="M 2139,2044 L 2503,2044 L 2505,2044 L 2506,2044 L 2508,2045 L 2509,2046 L 2510,2047 L 2511,2049 L 2511,2050 L 2511,2052 L 2511,2461 L 2511,2463 L 2511,2464 L 2510,2466 L 2509,2467 L 2508,2468 L 2506,2468 L 2505,2469 L 2503,2469 L 2110,2469 L 2108,2469 L 2107,2468 L 2105,2468 L 2104,2467 L 2103,2466 L 2102,2464 L 2102,2463 L 2102,2461 L 2102,2163 L 2009,2070 L 2009,2070 L 2003,2063 L 2002,2061 L 1998,2053 L 1997,2052 L 1995,2043 L 1994,2041 L 1993,2032 L 1993,2031 L 1993,1784 L 1993,1783 L 1994,1774 L 1995,1772 L 1997,1764 L 1998,1762 L 2002,1754 L 2003,1753 L 2009,1746 L 2009,1745 L 2173,1581 L 2173,1551 L 2174,1550 L 2174,1548 L 2175,1547 L 2176,1546 L 2177,1545 L 2178,1544 L 2180,1543 L 2181,1543 L 2229,1543 L 2234,1543 L 2234,1543 L 2266,1543 L 2267,1543 L 2271,1543 L 2299,1543 L 2301,1543 L 2302,1544 L 2304,1545 L 2305,1546 L 2306,1547 L 2307,1548 L 2307,1550 L 2307,1551 L 2307,1561 L 2307,1562 L 2313,1570 L 2314,1571 L 2318,1580 L 2318,1581 L 2319,1582 L 2321,1591 L 2321,1592 L 2321,1593 L 2321,1603 L 2321,1604 L 2319,1614 L 2318,1616 L 2314,1625 L 2314,1625 L 2313,1626 L 2307,1634 L 2306,1635 L 2299,1642 L 2298,1642 L 2298,1643 L 2289,1648 L 2288,1648 L 2288,1649 L 2278,1652 L 2277,1652 L 2267,1653 L 2266,1653 L 2257,1653 L 2104,1807 L 2104,2008 L 2139,2044 z " style="fill-opacity:0.600000;fill:rgb(243,13,35);stroke:rgb(0,0,0);stroke-width:2"/></g>
<g fill-rule="evenodd"><path d="M 31,2461 L 31,2052 L 425,2052 L 425,2461 L 31,2461 z " style="fill-opacity:1.000000;fill:rgb(167,241,217);stroke:rgb(0,0,0);stroke-width:2"/></g>
<g fill-rule="evenodd"><path d="M 355,654 L 353,671 L 348,686 L 340,701 L 329,713 L 316,722 L 301,729 L 285,733 L 268,733 L 252,729 L 237,722 L 224,713 L 213,701 L 204,686 L 199,671 L 198,654 L 199,638 L 204,622 L 213,608 L 224,596 L 237,586 L 252,579 L 268,576 L 285,576 L 301,579 L 316,586 L 329,596 L 340,608 L 348,622 L 353,638 L 355,654 z " style="fill-opacity:1.000000;fill:rgb(42,130,200);stroke:rgb(0,0,0);stroke-width:2"/></g>
<g fill-rule="evenodd"><path d="M 2324,649 L 2322,666 L 2317,681 L 2309,696 L 2298,708 L 2285,718 L 2270,724 L 2254,728 L 2237,728 L 2221,724 L 2206,718 L 2193,708 L 2182,696 L 2173,681 L 2168,666 L 2167,649 L 2168,633 L 2173,617 L 2182,603 L 2193,591 L 2206,581 L 2221,575 L 2237,571 L 2254,571 L 2270,575 L 2285,581 L 2298,591 L 2309,603 L 2317,617 L 2322,633 L 2324,649 z " style="fill-opacity:1.000000;fill:rgb(216,254,67);stroke:rgb(0,0,0);stroke-width:2"/></g>
<g fill-rule="evenodd"><path d="M 2181,1842 L 2181,1787 L 2299,1787 L 2299,1842 L 2181,1842 z " style="fill-opacity:1.000000;fill:rgb(77,152,85);stroke:rgb(0,0,0);stroke-width:2"/></g>
<g fill-rule="evenodd"><path d="M 2434,1964 L 2434,1886 L 2497,1886 L 2497,1964 L 2434,1964 z " style="fill-opacity:1.000000;fill:rgb(140,226,179);stroke:rgb(0,0,0);stroke-width:2"/></g>
<g fill-rule="evenodd"><path d="M 2434,1390 L 2434,1311 L 2497,1311 L 2497,1390 L 2434,1390 z " style="fill-opacity:1.000000;fill:rgb(71,23,17);stroke:rgb(0,0,0);stroke-width:2"/></g>
<g fill-rule="evenodd"><path d="M 2260,1390 L 2260,1311 L 2323,1311 L 2323,1390 L 2260,1390 z " style="fill-opacity:1.000000;fill:rgb(152,84,47);stroke:rgb(0,0,0);stroke-width:2"/></g>
<g fill-rule="evenodd"><path d="M 2260,1964 L 2260,1886 L 2323,1886 L 2323,1964 L 2260,1964 z " style="fill-opacity:1.000000;fill:rgb(17,45,5);stroke:rgb(0,0,0);stroke-width:2"/></g>
<g fill-rule="evenodd"><path d="M 1224,652 L 1323,652 L 1323,634 L 1374,634 L 1374,718 L 1323,718 L 1323,699 L 1224,699 L 1224,718 L 1222,718 L 1222,807 L 1224,807 L 1224,891 L 1173,891 L 1173,873 L 1136,873 L 843,1165 L 843,1480 L 473,1480 L 473,1110 L 831,1110 L 1109,832 L 1113,829 L 1117,827 L 1121,826 L 1126,825 L 1173,825 L 1173,807 L 1175,807 L 1175,718 L 1173,718 L 1173,634 L 1175,634 L 1175,555 L 1114,494 L 1043,494 L 1043,368 L 1098,368 L 1098,238 L 1098,233 L 1099,229 L 1102,225 L 1106,220 L 1106,119 L 1240,119 L 1240,253 L 1145,253 L 1145,368 L 1200,368 L 1200,494 L 1181,494 L 1215,529 L 1218,532 L 1221,536 L 1222,541 L 1222,545 L 1222,634 L 1224,634 L 1224,652 z " style="fill-opacity:1.000000;fill:rgb(88,245,107);stroke:rgb(0,0,0);stroke-width:2"/></g>
<g fill-rule="evenodd"><path d="M 1250,1144 L 1250,1362 L 1092,1362 L 1092,1110 L 1216,1110 L 1325,1001 L 1325,944 L 1325,938 L 1325,891 L 1323,891 L 1323,807 L 1374,807 L 1374,891 L 1372,891 L 1372,933 L 1372,935 L 1373,939 L 1373,1011 L 1372,1015 L 1371,1020 L 1369,1024 L 1366,1028 L 1250,1144 z " style="fill-opacity:1.000000;fill:rgb(214,136,7);stroke:rgb(0,0,0);stroke-width:2"/></g>
<g fill-rule="evenodd"><path d="M 1285,959 L 1285,980 L 1285,984 L 1284,986 L 1202,1068 L 1200,1068 L 1197,1069 L 1093,1069 L 1078,1072 L 1064,1081 L 1055,1094 L 1051,1111 L 1051,1361 L 1054,1377 L 1063,1391 L 1076,1400 L 1093,1403 L 1249,1403 L 1264,1400 L 1278,1391 L 1281,1388 L 1284,1385 L 1287,1383 L 1289,1383 L 1291,1383 L 1295,1385 L 1296,1386 L 1299,1391 L 1313,1400 L 1329,1403 L 1431,1403 L 1435,1405 L 1448,1414 L 1483,1421 L 1641,1421 L 1643,1421 L 1646,1424 L 1648,1427 L 1649,1429 L 1649,1477 L 1652,1493 L 1661,1507 L 1674,1516 L 1691,1519 L 1951,1519 L 1953,1519 L 1957,1521 L 1959,1523 L 1987,1542 L 2022,1549 L 2130,1549 L 2134,1549 L 2136,1550 L 2137,1552 L 2140,1555 L 2140,1559 L 2140,1566 L 2140,1568 L 2137,1572 L 1987,1722 L 1968,1751 L 1961,1785 L 1961,2030 L 1968,2065 L 1987,2094 L 2066,2172 L 2067,2174 L 2069,2177 L 2069,2460 L 2072,2476 L 2081,2490 L 2093,2498 L 2096,2501 L 2097,2503 L 2097,2505 L 2097,2509 L 2096,2512 L 2093,2515 L 2091,2516 L 2088,2517 L 447,2517 L 443,2516 L 441,2515 L 438,2512 L 438,2510 L 437,2506 L 438,2503 L 439,2501 L 441,2498 L 453,2490 L 462,2477 L 466,2460 L 466,2053 L 463,2037 L 454,2023 L 441,2014 L 424,2011 L 32,2011 L 17,2013 L 15,2013 L 12,2012 L 10,2010 L 8,2007 L 7,2003 L 8,1265 L 103,783 L 105,780 L 153,707 L 156,705 L 159,703 L 163,703 L 165,704 L 168,706 L 171,709 L 176,721 L 209,755 L 253,773 L 300,773 L 344,755 L 377,722 L 395,678 L 395,631 L 377,587 L 344,554 L 300,536 L 287,536 L 285,535 L 281,534 L 278,531 L 277,527 L 277,524 L 278,520 L 376,375 L 783,103 L 1261,7 L 1264,7 L 1741,102 L 1743,103 L 2149,375 L 2243,515 L 2245,519 L 2245,521 L 2245,523 L 2243,526 L 2242,528 L 2239,530 L 2235,531 L 2222,531 L 2178,549 L 2145,582 L 2127,626 L 2127,673 L 2145,717 L 2178,750 L 2222,768 L 2269,768 L 2313,750 L 2346,717 L 2351,704 L 2353,701 L 2355,700 L 2358,698 L 2362,698 L 2366,700 L 2369,703 L 2420,780 L 2422,783 L 2517,1262 L 2516,1264 L 2515,1268 L 2512,1270 L 2509,1272 L 2505,1272 L 2496,1270 L 2435,1270 L 2419,1273 L 2406,1282 L 2397,1295 L 2393,1312 L 2393,1389 L 2396,1404 L 2405,1418 L 2418,1427 L 2435,1431 L 2496,1431 L 2508,1429 L 2510,1429 L 2513,1430 L 2516,1433 L 2517,1437 L 2518,1837 L 2517,1841 L 2516,1842 L 2513,1845 L 2511,1846 L 2508,1847 L 2496,1845 L 2435,1845 L 2419,1848 L 2406,1857 L 2397,1870 L 2393,1887 L 2393,1964 L 2396,1979 L 2405,1993 L 2407,1995 L 2408,1997 L 2409,2001 L 2408,2005 L 2406,2008 L 2404,2009 L 2402,2010 L 2399,2011 L 2359,2011 L 2355,2010 L 2352,2008 L 2349,2005 L 2349,2003 L 2349,1999 L 2350,1995 L 2361,1980 L 2364,1963 L 2364,1887 L 2361,1871 L 2352,1857 L 2343,1851 L 2341,1847 L 2340,1844 L 2340,1836 L 2341,1833 L 2343,1829 L 2345,1828 L 2348,1827 L 2350,1826 L 2354,1827 L 2364,1831 L 2394,1831 L 2422,1820 L 2443,1799 L 2454,1771 L 2454,1741 L 2443,1713 L 2422,1692 L 2394,1680 L 2364,1680 L 2336,1692 L 2315,1713 L 2304,1740 L 2302,1743 L 2298,1746 L 2295,1746 L 2232,1746 L 2228,1745 L 2225,1742 L 2224,1738 L 2224,1734 L 2224,1733 L 2226,1729 L 2271,1685 L 2275,1683 L 2299,1678 L 2328,1659 L 2346,1631 L 2352,1603 L 2353,1599 L 2356,1597 L 2358,1596 L 2362,1595 L 2394,1595 L 2422,1584 L 2443,1562 L 2454,1535 L 2454,1505 L 2443,1477 L 2422,1456 L 2394,1444 L 2364,1444 L 2360,1446 L 2356,1447 L 2354,1447 L 2350,1445 L 2349,1444 L 2347,1441 L 2345,1431 L 2345,1427 L 2345,1425 L 2347,1422 L 2351,1419 L 2361,1406 L 2364,1389 L 2364,1312 L 2361,1296 L 2352,1283 L 2339,1273 L 2322,1270 L 2261,1270 L 2245,1273 L 2232,1282 L 2223,1295 L 2219,1312 L 2219,1366 L 2217,1370 L 2216,1371 L 2213,1373 L 2209,1374 L 2111,1374 L 2107,1373 L 2104,1371 L 2102,1368 L 2101,1364 L 2101,1109 L 2098,1093 L 2089,1080 L 2076,1070 L 2059,1067 L 1691,1067 L 1675,1070 L 1662,1079 L 1652,1092 L 1649,1109 L 1649,1236 L 1648,1240 L 1647,1242 L 1645,1245 L 1643,1245 L 1639,1246 L 1537,1246 L 1533,1245 L 1530,1243 L 1528,1240 L 1527,1238 L 1527,1111 L 1524,1095 L 1515,1082 L 1502,1073 L 1485,1069 L 1404,1069 L 1400,1068 L 1397,1066 L 1395,1065 L 1394,1061 L 1394,1059 L 1394,1055 L 1408,1035 L 1413,1010 L 1413,940 L 1412,935 L 1412,905 L 1415,890 L 1415,808 L 1412,793 L 1403,779 L 1389,769 L 1387,766 L 1387,762 L 1387,758 L 1390,755 L 1402,747 L 1411,733 L 1415,717 L 1415,635 L 1412,619 L 1403,606 L 1390,597 L 1373,593 L 1324,593 L 1308,596 L 1294,605 L 1291,609 L 1289,611 L 1286,612 L 1270,612 L 1267,611 L 1264,608 L 1263,606 L 1262,602 L 1262,546 L 1257,521 L 1243,499 L 1241,496 L 1241,369 L 1238,354 L 1229,340 L 1216,331 L 1199,328 L 1195,328 L 1191,327 L 1188,325 L 1187,323 L 1186,321 L 1185,318 L 1185,302 L 1187,299 L 1189,296 L 1191,295 L 1195,294 L 1239,294 L 1254,291 L 1268,282 L 1277,269 L 1279,262 L 1280,258 L 1283,256 L 1287,254 L 1291,254 L 1293,255 L 1294,256 L 1309,272 L 1344,289 L 1353,284 L 1353,250 L 1346,248 L 1334,241 L 1324,232 L 1316,222 L 1310,210 L 1307,196 L 1306,183 L 1308,170 L 1313,157 L 1320,145 L 1329,136 L 1340,128 L 1353,122 L 1353,88 L 1344,84 L 1309,100 L 1294,116 L 1293,117 L 1291,118 L 1289,118 L 1287,118 L 1285,118 L 1283,117 L 1282,116 L 1280,114 L 1279,112 L 1279,110 L 1278,105 L 1269,91 L 1255,82 L 1239,78 L 1107,78 L 1091,81 L 1077,90 L 1068,104 L 1065,120 L 1065,207 L 1064,211 L 1063,214 L 1058,239 L 1057,319 L 1056,323 L 1055,325 L 1051,327 L 1048,328 L 1044,328 L 1028,330 L 1014,339 L 1005,353 L 1002,369 L 1002,494 L 1005,509 L 1013,523 L 1027,532 L 1044,535 L 1095,535 L 1099,536 L 1102,538 L 1132,569 L 1134,572 L 1135,576 L 1135,620 L 1132,635 L 1132,717 L 1135,733 L 1135,776 L 1134,779 L 1132,783 L 1129,785 L 1102,790 L 1080,805 L 818,1067 L 815,1069 L 811,1069 L 474,1069 L 459,1072 L 445,1081 L 436,1095 L 432,1111 L 432,1480 L 435,1495 L 444,1509 L 457,1518 L 474,1521 L 842,1521 L 858,1518 L 872,1510 L 881,1496 L 884,1479 L 884,1185 L 885,1181 L 886,1179 L 1141,925 L 1144,923 L 1148,923 L 1152,925 L 1157,928 L 1174,932 L 1223,932 L 1235,930 L 1237,930 L 1240,931 L 1247,931 L 1250,928 L 1250,891 L 1248,891 L 1248,807 L 1299,807 L 1299,891 L 1297,891 L 1297,938 L 1297,943 L 1295,947 L 1293,951 L 1290,955 L 1285,959M 1086,2276 L 1053,2276 L 1046,2283 L 1046,2461 L 1052,2476 L 1064,2487 L 1078,2493 L 1256,2493 L 1263,2487 L 1263,2453 L 1086,2453 L 1086,2276M 1086,2236 L 1086,2060 L 1263,2060 L 1263,2026 L 1256,2020 L 1078,2020 L 1064,2026 L 1052,2037 L 1046,2052 L 1046,2230 L 1053,2236 L 1086,2236M 473,676 L 440,676 L 433,683 L 433,849 L 439,864 L 451,875 L 465,881 L 632,881 L 638,875 L 638,841 L 473,841 L 473,676M 473,636 L 473,471 L 638,471 L 638,438 L 632,431 L 465,431 L 451,437 L 439,448 L 433,463 L 433,630 L 440,636 L 473,636M 678,471 L 843,471 L 843,636 L 877,636 L 883,630 L 883,463 L 877,448 L 866,437 L 851,431 L 685,431 L 678,438 L 678,471M 678,841 L 678,875 L 685,881 L 851,881 L 866,875 L 877,864 L 883,849 L 883,683 L 877,676 L 843,676 L 843,841 L 678,841M 1303,2060 L 1480,2060 L 1480,2236 L 1513,2236 L 1520,2230 L 1520,2052 L 1514,2037 L 1503,2026 L 1488,2020 L 1310,2020 L 1303,2026 L 1303,2060M 1303,2453 L 1303,2487 L 1310,2493 L 1488,2493 L 1503,2487 L 1514,2476 L 1520,2461 L 1520,2283 L 1513,2276 L 1480,2276 L 1480,2453 L 1303,2453M 1895,469 L 2060,469 L 2060,634 L 2093,634 L 2100,627 L 2100,461 L 2094,446 L 2083,435 L 2068,429 L 1902,429 L 1895,435 L 1895,469M 1895,839 L 1895,872 L 1902,879 L 2068,879 L 2083,873 L 2094,861 L 2100,847 L 2100,680 L 2093,674 L 2060,674 L 2060,839 L 1895,839M 1690,634 L 1690,469 L 1855,469 L 1855,435 L 1848,429 L 1682,429 L 1667,435 L 1656,446 L 1650,461 L 1650,627 L 1657,634 L 1690,634M 1690,674 L 1657,674 L 1650,680 L 1650,847 L 1656,861 L 1667,873 L 1682,879 L 1848,879 L 1855,872 L 1855,839 L 1690,839 L 1690,674M 1416,494 L 1358,494 L 1358,451 L 1324,451 L 1318,458 L 1318,502 L 1324,517 L 1335,528 L 1350,534 L 1410,534 L 1416,528 L 1416,494M 1416,368 L 1416,335 L 1410,328 L 1350,328 L 1335,335 L 1324,346 L 1318,361 L 1318,405 L 1324,411 L 1358,411 L 1358,368 L 1416,368M 1456,494 L 1456,528 L 1463,534 L 1523,534 L 1538,528 L 1549,517 L 1555,502 L 1555,458 L 1548,451 L 1515,451 L 1515,494 L 1456,494M 1515,411 L 1548,411 L 1555,405 L 1555,361 L 1549,346 L 1538,335 L 1523,328 L 1463,328 L 1456,335 L 1456,368 L 1515,368 L 1515,411M 1436,206 L 1433,216 L 1426,227 L 1416,237 L 1405,245 L 1393,250 L 1393,284 L 1401,289 L 1436,272 L 1464,241 L 1475,215 L 1471,206 L 1436,206M 1436,166 L 1471,166 L 1475,158 L 1464,131 L 1436,100 L 1401,84 L 1393,88 L 1393,123 L 1399,125 L 1411,131 L 1421,140 L 1429,151 L 1435,163 L 1436,166 z " style="fill-opacity:1.000000;fill:rgb(153,146,72);stroke:rgb(0,0,0);stroke-width:2"/></g>
<g fill-rule="evenodd"><path d="M 1486,1271 L 1501,1286 L 1690,1286 L 1690,1108 L 2060,1108 L 2060,1414 L 2264,1414 L 2273,1415 L 2283,1418 L 2291,1423 L 2299,1430 L 2305,1438 L 2309,1447 L 2311,1456 L 2311,1466 L 2309,1476 L 2305,1485 L 2299,1493 L 2291,1500 L 2283,1505 L 2273,1508 L 2264,1509 L 2021,1509 L 2011,1508 L 2001,1505 L 1993,1500 L 1986,1493 L 1980,1485 L 1977,1478 L 1690,1478 L 1690,1381 L 1482,1381 L 1472,1380 L 1464,1377 L 1455,1373 L 1448,1367 L 1444,1362 L 1328,1362 L 1328,1110 L 1486,1110 L 1486,1271 z " style="fill-opacity:1.000000;fill:rgb(51,98,65);stroke:rgb(0,0,0);stroke-width:2"/></g>
<g fill-rule="evenodd"><path d="M 2136,2052 L 2503,2052 L 2503,2461 L 2110,2461 L 2110,2159 L 2015,2065 L 2009,2058 L 2005,2049 L 2002,2040 L 2001,2031 L 2001,1784 L 2002,1775 L 2005,1766 L 2009,1758 L 2015,1751 L 2181,1584 L 2181,1551 L 2229,1551 L 2234,1551 L 2266,1551 L 2271,1551 L 2299,1551 L 2299,1565 L 2301,1566 L 2307,1574 L 2311,1583 L 2313,1593 L 2313,1603 L 2311,1612 L 2307,1622 L 2301,1629 L 2294,1636 L 2285,1641 L 2276,1644 L 2266,1645 L 2254,1645 L 2096,1803 L 2096,2012 L 2136,2052 z " style="fill-opacity:1.000000;fill:rgb(243,13,35);stroke:rgb(0,0,0);stroke-width:2"/></g>
</svg>
